<svg width="56" height="50" viewBox="0 0 56 50" fill="none" xmlns="http://www.w3.org/2000/svg">
<rect x="0.75" y="0.75" width="54.5" height="48.5" rx="5.25" stroke="#3366FF" stroke-width="1.5"/>
<path d="M31.7885 30.2821L32.1042 30.4659L32.3753 30.2209C32.8129 29.8254 33.3762 29.58 34 29.58C35.3339 29.58 36.42 30.6661 36.42 32C36.42 33.3339 35.3339 34.42 34 34.42C32.6661 34.42 31.58 33.3339 31.58 32C31.58 31.8247 31.604 31.6439 31.6464 31.4658L31.7322 31.1053L31.4122 30.9183L24.2922 26.7583L23.9722 26.5713L23.7003 26.8231C23.2456 27.2441 22.6547 27.5 22 27.5C20.6161 27.5 19.5 26.3839 19.5 25C19.5 23.6161 20.6161 22.5 22 22.5C22.6547 22.5 23.2456 22.7559 23.7003 23.1769L23.972 23.4284L24.2918 23.242L31.3418 19.132L31.6558 18.9489L31.5786 18.5938C31.531 18.3747 31.5 18.1861 31.5 18C31.5 16.6161 32.6161 15.5 34 15.5C35.3839 15.5 36.5 16.6161 36.5 18C36.5 19.3839 35.3839 20.5 34 20.5C33.3453 20.5 32.7544 20.2441 32.2997 19.8231L32.028 19.5716L31.7082 19.758L24.6582 23.868L24.3442 24.0511L24.4214 24.4062C24.469 24.6253 24.5 24.8139 24.5 25C24.5 25.1861 24.469 25.3747 24.4214 25.5938L24.3442 25.9492L24.6585 26.1321L31.7885 30.2821Z" stroke="#3366FF"/>
</svg>
