<svg width="56" height="50" viewBox="0 0 56 50" fill="none" xmlns="http://www.w3.org/2000/svg">
<rect x="0.75" y="0.75" width="54.5" height="48.5" rx="5.25" stroke="#3366FF" stroke-width="1.5"/>
<path d="M33.4297 32.4047L33.4282 32.4037L29.1301 29.4654C29.1299 29.4652 29.1296 29.4651 29.1294 29.4649C28.7969 29.2361 28.3854 29.1372 28 29.1372C27.6146 29.1372 27.2031 29.2361 26.8706 29.4649C26.8704 29.4651 26.8701 29.4652 26.8699 29.4654L22.5743 32.402C22.5473 32.4199 22.5225 32.4348 22.5 32.447V17.8298C22.5 17.8196 22.5065 17.7514 22.6345 17.6638C22.7591 17.5785 22.9577 17.51 23.1985 17.51H23.4232C23.4597 17.51 23.4919 17.5069 23.5195 17.5026C23.5249 17.5018 23.5302 17.5009 23.5351 17.5H32.4499C32.4549 17.5009 32.4601 17.5018 32.4656 17.5026C32.4932 17.5069 32.5254 17.51 32.5618 17.51H32.7865C33.0269 17.51 33.2264 17.5783 33.354 17.6649C33.4775 17.7487 33.4975 17.8194 33.5 17.8426V32.4487C33.4786 32.4368 33.4552 32.4223 33.4297 32.4047Z" stroke="#3366FF"/>
</svg>
