<svg width="24" height="25" viewBox="0 0 24 25" fill="none" xmlns="http://www.w3.org/2000/svg">
<path d="M6.59609 16.7H7.09609V16.2H6.59609V16.7ZM8.64809 21.152L9.00165 21.5056L9.00212 21.5051L8.64809 21.152ZM13.0881 16.7V16.2H12.8806L12.7341 16.3469L13.0881 16.7ZM19.7961 3H4.19609V4H19.7961V3ZM4.19609 3C3.25995 3 2.49609 3.76386 2.49609 4.7H3.49609C3.49609 4.31614 3.81224 4 4.19609 4V3ZM2.49609 4.7V15.5H3.49609V4.7H2.49609ZM2.49609 15.5C2.49609 16.4361 3.25995 17.2 4.19609 17.2V16.2C3.81224 16.2 3.49609 15.8839 3.49609 15.5H2.49609ZM4.19609 17.2H6.59609V16.2H4.19609V17.2ZM6.09609 16.7V20.3H7.09609V16.7H6.09609ZM6.09609 20.3C6.09609 21.2361 6.85995 22 7.79609 22V21C7.41224 21 7.09609 20.6839 7.09609 20.3H6.09609ZM7.79609 22C8.26621 22 8.69295 21.8143 9.00165 21.5056L8.29454 20.7984C8.17124 20.9217 7.99798 21 7.79609 21V22ZM9.00212 21.5051L13.4421 17.0531L12.7341 16.3469L8.29406 20.7989L9.00212 21.5051ZM13.0881 17.2H19.7961V16.2H13.0881V17.2ZM19.7961 17.2C20.7322 17.2 21.4961 16.4361 21.4961 15.5H20.4961C20.4961 15.8839 20.18 16.2 19.7961 16.2V17.2ZM21.4961 15.5V4.7H20.4961V15.5H21.4961ZM21.4961 4.7C21.4961 3.76386 20.7322 3 19.7961 3V4C20.18 4 20.4961 4.31614 20.4961 4.7H21.4961Z" fill="#0D2159"/>
</svg>
