<svg width="20" height="17" viewBox="0 0 20 17" fill="none" xmlns="http://www.w3.org/2000/svg">
<path d="M0.999023 1.64465V1.14465H0.499023V1.64465H0.999023ZM0.999023 9.63874H0.499023V10.1387H0.999023V9.63874ZM18.9899 6.64773L18.4944 6.58039L18.4934 6.58869L18.9899 6.64773ZM17.696 5.44862L17.7174 4.94908L17.7163 4.94903L17.696 5.44862ZM16.7846 5.39152V4.89152L16.7497 5.8903L16.7846 5.39152ZM16.8634 5.3801V5.8801H16.8994L16.9351 5.87492L16.8634 5.3801ZM18.4498 4.15814L18.9464 4.21719L18.9472 4.20884L18.4498 4.15814ZM17.1334 2.97045L17.1832 2.47285L17.1739 2.47209L17.1334 2.97045ZM16.2445 2.90193L16.0905 2.42626L16.2071 3.40052L16.2445 2.90193ZM17.2234 1.83986L16.7245 1.80596L16.7243 1.81093L17.2234 1.83986ZM15.5357 0.595061L15.5784 0.0968632L15.5732 0.0964687L15.5357 0.595061ZM14.6131 0.537961L14.5691 1.03602L14.5911 1.03796H14.6131V0.537961ZM13.9155 0.5037L13.9422 0.00441235L13.9329 0.00391674L13.9236 0.00376612L13.9155 0.5037ZM5.49954 2.22814L5.23124 1.80622L4.99954 1.95356V2.22814H5.49954ZM5.49954 9.08022H4.99954V9.36046L5.23859 9.50672L5.49954 9.08022ZM10.2363 15.3727L10.7153 15.5167L10.7175 15.5085L10.2363 15.3727ZM11.339 16.4919L11.3917 16.9891L11.395 16.9887L11.339 16.4919ZM12.9142 14.4591L12.4145 14.4394L12.4144 14.4421L12.9142 14.4591ZM12.3516 11.1358L11.8577 11.2137L11.8659 11.2656L11.8847 11.3147L12.3516 11.1358ZM12.7679 10.5306L12.7369 10.0314L12.7258 10.0324L12.7679 10.5306ZM14.5569 10.4392V9.93921H14.5463L14.5357 9.93966L14.5569 10.4392ZM15.4007 10.4164V9.91637H15.3901L15.3796 9.91682L15.4007 10.4164ZM16.6834 10.3136L16.7444 10.8099L16.7481 10.8094L16.6834 10.3136ZM16.9984 7.91537L16.8989 8.40537L16.9201 8.40967L16.9416 8.41213L16.9984 7.91537ZM16.8184 7.89253L16.7886 7.39341L16.7189 8.38253L16.8184 7.89253ZM17.3697 7.83542L17.3136 7.33853L17.3067 7.3394L17.3697 7.83542ZM3.24929 1.14465H0.999023V2.14465H3.24929V1.14465ZM0.499023 1.64465V9.63874H1.49902V1.64465H0.499023ZM0.999023 10.1387H3.24929V9.13874H0.999023V10.1387ZM3.24929 10.1387C4.15125 10.1387 4.87442 9.39393 4.87442 8.49673H3.87442C3.87442 8.85574 3.58497 9.13874 3.24929 9.13874V10.1387ZM4.87442 8.49673V2.78666H3.87442V8.49673H4.87442ZM4.87442 2.78666C4.87442 1.88946 4.15125 1.14465 3.24929 1.14465V2.14465C3.58497 2.14465 3.87442 2.42765 3.87442 2.78666H4.87442ZM19.4853 6.71506C19.5546 6.20546 19.3573 5.75484 19.0119 5.44202C18.6754 5.1373 18.2112 4.97026 17.7174 4.94908L17.6745 5.94816C17.9796 5.96124 18.2073 6.06256 18.3406 6.18325C18.4649 6.29583 18.5152 6.42763 18.4944 6.5804L19.4853 6.71506ZM17.7163 4.94903C17.4443 4.93799 17.1504 4.9159 16.8195 4.89274L16.7497 5.8903C17.0714 5.91282 17.385 5.93641 17.6757 5.94821L17.7163 4.94903ZM16.7846 5.89152C16.808 5.89152 16.8281 5.89007 16.8433 5.88854C16.8588 5.88699 16.8722 5.88507 16.8824 5.88343C16.9011 5.88043 16.9186 5.87681 16.9235 5.87581C16.9326 5.87395 16.9292 5.87472 16.9239 5.87558C16.9203 5.87615 16.9134 5.87718 16.9042 5.8781C16.8952 5.879 16.8811 5.8801 16.8634 5.8801V4.8801C16.84 4.8801 16.8199 4.88155 16.8047 4.88307C16.7892 4.88462 16.7758 4.88654 16.7656 4.88818C16.7469 4.89118 16.7294 4.89481 16.7245 4.8958C16.7154 4.89766 16.7187 4.89689 16.7241 4.89603C16.7277 4.89546 16.7345 4.89443 16.7437 4.89351C16.7528 4.89261 16.7669 4.89152 16.7846 4.89152V5.89152ZM16.9351 5.87492C17.3932 5.80851 17.8499 5.64406 18.2153 5.37989C18.5823 5.11462 18.886 4.72451 18.9463 4.21718L17.9533 4.09911C17.9349 4.25414 17.8391 4.41791 17.6295 4.56947C17.4183 4.72214 17.1212 4.83749 16.7916 4.88527L16.9351 5.87492ZM18.9472 4.20884C18.9992 3.69882 18.7913 3.26636 18.4423 2.96658C18.1068 2.67849 17.6547 2.52011 17.1832 2.47293L17.0836 3.46796C17.411 3.50072 17.6508 3.60501 17.7907 3.72519C17.917 3.83368 17.9679 3.9551 17.9524 4.10745L18.9472 4.20884ZM17.1739 2.47209C16.8908 2.44911 16.5855 2.42615 16.282 2.40334L16.2071 3.40052C16.5112 3.42339 16.8134 3.44611 17.0929 3.46881L17.1739 2.47209ZM16.3986 3.37759C16.7041 3.27865 17.0201 3.12724 17.27 2.88177C17.531 2.62538 17.6984 2.28664 17.7226 1.86878L16.7243 1.81093C16.7147 1.9755 16.657 2.08214 16.5693 2.16836C16.4704 2.26549 16.3138 2.35391 16.0905 2.42626L16.3986 3.37759ZM17.7223 1.87375C17.7627 1.27827 17.3616 0.839176 16.9746 0.579546C16.5718 0.309326 16.0563 0.137878 15.5784 0.0968907L15.493 1.09323C15.814 1.12077 16.1649 1.24053 16.4175 1.40999C16.6858 1.59003 16.7291 1.73908 16.7246 1.80596L17.7223 1.87375ZM15.5732 0.0964687C15.2766 0.0741655 14.9945 0.0503529 14.7374 0.0384921L14.6913 1.03743C14.9293 1.04841 15.1873 1.07028 15.4982 1.09365L15.5732 0.0964687ZM14.7144 0.0379608C14.7143 0.0379608 14.7142 0.0379608 14.7142 0.0379608C14.7141 0.0379608 14.714 0.0379608 14.714 0.0379608C14.7139 0.0379608 14.7138 0.0379608 14.7138 0.0379608C14.7137 0.0379608 14.7136 0.0379608 14.7136 0.0379608C14.7135 0.0379608 14.7134 0.0379608 14.7134 0.0379608C14.7133 0.0379608 14.7132 0.0379608 14.7132 0.0379608C14.7131 0.0379608 14.7131 0.0379608 14.713 0.0379608C14.7129 0.0379608 14.7129 0.0379608 14.7128 0.0379608C14.7127 0.0379608 14.7127 0.0379608 14.7126 0.0379608C14.7125 0.0379608 14.7125 0.0379608 14.7124 0.0379608C14.7123 0.0379608 14.7123 0.0379608 14.7122 0.0379608C14.7121 0.0379608 14.7121 0.0379608 14.712 0.0379608C14.7119 0.0379608 14.7119 0.0379608 14.7118 0.0379608C14.7117 0.0379608 14.7117 0.0379608 14.7116 0.0379608C14.7115 0.0379608 14.7115 0.0379608 14.7114 0.0379608C14.7113 0.0379608 14.7113 0.0379608 14.7112 0.0379608C14.7111 0.0379608 14.7111 0.0379608 14.711 0.0379608C14.7109 0.0379608 14.7109 0.0379608 14.7108 0.0379608C14.7107 0.0379608 14.7107 0.0379608 14.7106 0.0379608C14.7105 0.0379608 14.7105 0.0379608 14.7104 0.0379608C14.7103 0.0379608 14.7103 0.0379608 14.7102 0.0379608C14.7102 0.0379608 14.7101 0.0379608 14.71 0.0379608C14.71 0.0379608 14.7099 0.0379608 14.7098 0.0379608C14.7098 0.0379608 14.7097 0.0379608 14.7096 0.0379608C14.7096 0.0379608 14.7095 0.0379608 14.7094 0.0379608C14.7094 0.0379608 14.7093 0.0379608 14.7092 0.0379608C14.7092 0.0379608 14.7091 0.0379608 14.709 0.0379608C14.709 0.0379608 14.7089 0.0379608 14.7088 0.0379608C14.7088 0.0379608 14.7087 0.0379608 14.7086 0.0379608C14.7086 0.0379608 14.7085 0.0379608 14.7084 0.0379608C14.7084 0.0379608 14.7083 0.0379608 14.7082 0.0379608C14.7082 0.0379608 14.7081 0.0379608 14.708 0.0379608C14.708 0.0379608 14.7079 0.0379608 14.7078 0.0379608C14.7078 0.0379608 14.7077 0.0379608 14.7076 0.0379608C14.7076 0.0379608 14.7075 0.0379608 14.7074 0.0379608C14.7074 0.0379608 14.7073 0.0379608 14.7072 0.0379608C14.7072 0.0379608 14.7071 0.0379608 14.7071 0.0379608C14.707 0.0379608 14.7069 0.0379608 14.7069 0.0379608C14.7068 0.0379608 14.7067 0.0379608 14.7067 0.0379608C14.7066 0.0379608 14.7065 0.0379608 14.7065 0.0379608C14.7064 0.0379608 14.7063 0.0379608 14.7063 0.0379608C14.7062 0.0379608 14.7061 0.0379608 14.7061 0.0379608C14.706 0.0379608 14.7059 0.0379608 14.7059 0.0379608C14.7058 0.0379608 14.7057 0.0379608 14.7057 0.0379608C14.7056 0.0379608 14.7055 0.0379608 14.7055 0.0379608C14.7054 0.0379608 14.7053 0.0379608 14.7053 0.0379608C14.7052 0.0379608 14.7051 0.0379608 14.7051 0.0379608C14.705 0.0379608 14.7049 0.0379608 14.7049 0.0379608C14.7048 0.0379608 14.7047 0.0379608 14.7047 0.0379608C14.7046 0.0379608 14.7045 0.0379608 14.7045 0.0379608C14.7044 0.0379608 14.7043 0.0379608 14.7043 0.0379608C14.7042 0.0379608 14.7042 0.0379608 14.7041 0.0379608C14.704 0.0379608 14.704 0.0379608 14.7039 0.0379608C14.7038 0.0379608 14.7038 0.0379608 14.7037 0.0379608C14.7036 0.0379608 14.7036 0.0379608 14.7035 0.0379608C14.7034 0.0379608 14.7034 0.0379608 14.7033 0.0379608C14.7032 0.0379608 14.7032 0.0379608 14.7031 0.0379608C14.703 0.0379608 14.703 0.0379608 14.7029 0.0379608C14.7028 0.0379608 14.7028 0.0379608 14.7027 0.0379608C14.7026 0.0379608 14.7026 0.0379608 14.7025 0.0379608C14.7024 0.0379608 14.7024 0.0379608 14.7023 0.0379608C14.7022 0.0379608 14.7022 0.0379608 14.7021 0.0379608C14.702 0.0379608 14.702 0.0379608 14.7019 0.0379608C14.7018 0.0379608 14.7018 0.0379608 14.7017 0.0379608C14.7016 0.0379608 14.7016 0.0379608 14.7015 0.0379608C14.7014 0.0379608 14.7014 0.0379608 14.7013 0.0379608C14.7013 0.0379608 14.7012 0.0379608 14.7011 0.0379608C14.7011 0.0379608 14.701 0.0379608 14.7009 0.0379608C14.7009 0.0379608 14.7008 0.0379608 14.7007 0.0379608C14.7007 0.0379608 14.7006 0.0379608 14.7005 0.0379608C14.7005 0.0379608 14.7004 0.0379608 14.7003 0.0379608C14.7003 0.0379608 14.7002 0.0379608 14.7001 0.0379608C14.7001 0.0379608 14.7 0.0379608 14.6999 0.0379608C14.6999 0.0379608 14.6998 0.0379608 14.6997 0.0379608C14.6997 0.0379608 14.6996 0.0379608 14.6995 0.0379608C14.6995 0.0379608 14.6994 0.0379608 14.6993 0.0379608C14.6993 0.0379608 14.6992 0.0379608 14.6991 0.0379608C14.6991 0.0379608 14.699 0.0379608 14.6989 0.0379608C14.6989 0.0379608 14.6988 0.0379608 14.6987 0.0379608C14.6987 0.0379608 14.6986 0.0379608 14.6985 0.0379608C14.6985 0.0379608 14.6984 0.0379608 14.6983 0.0379608C14.6983 0.0379608 14.6982 0.0379608 14.6982 0.0379608C14.6981 0.0379608 14.698 0.0379608 14.698 0.0379608C14.6979 0.0379608 14.6978 0.0379608 14.6978 0.0379608C14.6977 0.0379608 14.6976 0.0379608 14.6976 0.0379608C14.6975 0.0379608 14.6974 0.0379608 14.6974 0.0379608C14.6973 0.0379608 14.6972 0.0379608 14.6972 0.0379608C14.6971 0.0379608 14.697 0.0379608 14.697 0.0379608C14.6969 0.0379608 14.6968 0.0379608 14.6968 0.0379608C14.6967 0.0379608 14.6966 0.0379608 14.6966 0.0379608C14.6965 0.0379608 14.6964 0.0379608 14.6964 0.0379608C14.6963 0.0379608 14.6962 0.0379608 14.6962 0.0379608C14.6961 0.0379608 14.696 0.0379608 14.696 0.0379608C14.6959 0.0379608 14.6958 0.0379608 14.6958 0.0379608C14.6957 0.0379608 14.6956 0.0379608 14.6956 0.0379608C14.6955 0.0379608 14.6954 0.0379608 14.6954 0.0379608C14.6953 0.0379608 14.6953 0.0379608 14.6952 0.0379608C14.6951 0.0379608 14.6951 0.0379608 14.695 0.0379608C14.6949 0.0379608 14.6949 0.0379608 14.6948 0.0379608C14.6947 0.0379608 14.6947 0.0379608 14.6946 0.0379608C14.6945 0.0379608 14.6945 0.0379608 14.6944 0.0379608C14.6943 0.0379608 14.6943 0.0379608 14.6942 0.0379608C14.6941 0.0379608 14.6941 0.0379608 14.694 0.0379608C14.6939 0.0379608 14.6939 0.0379608 14.6938 0.0379608C14.6937 0.0379608 14.6937 0.0379608 14.6936 0.0379608C14.6935 0.0379608 14.6935 0.0379608 14.6934 0.0379608C14.6933 0.0379608 14.6933 0.0379608 14.6932 0.0379608C14.6931 0.0379608 14.6931 0.0379608 14.693 0.0379608C14.6929 0.0379608 14.6929 0.0379608 14.6928 0.0379608C14.6927 0.0379608 14.6927 0.0379608 14.6926 0.0379608C14.6925 0.0379608 14.6925 0.0379608 14.6924 0.0379608C14.6924 0.0379608 14.6923 0.0379608 14.6922 0.0379608C14.6922 0.0379608 14.6921 0.0379608 14.692 0.0379608C14.692 0.0379608 14.6919 0.0379608 14.6918 0.0379608C14.6918 0.0379608 14.6917 0.0379608 14.6916 0.0379608C14.6916 0.0379608 14.6915 0.0379608 14.6914 0.0379608C14.6914 0.0379608 14.6913 0.0379608 14.6912 0.0379608C14.6912 0.0379608 14.6911 0.0379608 14.691 0.0379608C14.691 0.0379608 14.6909 0.0379608 14.6908 0.0379608C14.6908 0.0379608 14.6907 0.0379608 14.6906 0.0379608C14.6906 0.0379608 14.6905 0.0379608 14.6904 0.0379608C14.6904 0.0379608 14.6903 0.0379608 14.6902 0.0379608C14.6902 0.0379608 14.6901 0.0379608 14.69 0.0379608C14.69 0.0379608 14.6899 0.0379608 14.6898 0.0379608C14.6898 0.0379608 14.6897 0.0379608 14.6896 0.0379608C14.6896 0.0379608 14.6895 0.0379608 14.6895 0.0379608C14.6894 0.0379608 14.6893 0.0379608 14.6893 0.0379608C14.6892 0.0379608 14.6891 0.0379608 14.6891 0.0379608C14.689 0.0379608 14.6889 0.0379608 14.6889 0.0379608C14.6888 0.0379608 14.6887 0.0379608 14.6887 0.0379608C14.6886 0.0379608 14.6885 0.0379608 14.6885 0.0379608C14.6884 0.0379608 14.6883 0.0379608 14.6883 0.0379608C14.6882 0.0379608 14.6881 0.0379608 14.6881 0.0379608C14.688 0.0379608 14.6879 0.0379608 14.6879 0.0379608C14.6878 0.0379608 14.6877 0.0379608 14.6877 0.0379608C14.6876 0.0379608 14.6875 0.0379608 14.6875 0.0379608C14.6874 0.0379608 14.6873 0.0379608 14.6873 0.0379608C14.6872 0.0379608 14.6871 0.0379608 14.6871 0.0379608C14.687 0.0379608 14.6869 0.0379608 14.6869 0.0379608C14.6868 0.0379608 14.6867 0.0379608 14.6867 0.0379608C14.6866 0.0379608 14.6865 0.0379608 14.6865 0.0379608C14.6864 0.0379608 14.6864 0.0379608 14.6863 0.0379608C14.6862 0.0379608 14.6862 0.0379608 14.6861 0.0379608C14.686 0.0379608 14.686 0.0379608 14.6859 0.0379608C14.6858 0.0379608 14.6858 0.0379608 14.6857 0.0379608C14.6856 0.0379608 14.6856 0.0379608 14.6855 0.0379608C14.6854 0.0379608 14.6854 0.0379608 14.6853 0.0379608C14.6852 0.0379608 14.6852 0.0379608 14.6851 0.0379608C14.685 0.0379608 14.685 0.0379608 14.6849 0.0379608C14.6848 0.0379608 14.6848 0.0379608 14.6847 0.0379608C14.6846 0.0379608 14.6846 0.0379608 14.6845 0.0379608C14.6844 0.0379608 14.6844 0.0379608 14.6843 0.0379608C14.6842 0.0379608 14.6842 0.0379608 14.6841 0.0379608C14.684 0.0379608 14.684 0.0379608 14.6839 0.0379608C14.6838 0.0379608 14.6838 0.0379608 14.6837 0.0379608C14.6836 0.0379608 14.6836 0.0379608 14.6835 0.0379608C14.6835 0.0379608 14.6834 0.0379608 14.6833 0.0379608C14.6833 0.0379608 14.6832 0.0379608 14.6831 0.0379608C14.6831 0.0379608 14.683 0.0379608 14.6829 0.0379608C14.6829 0.0379608 14.6828 0.0379608 14.6827 0.0379608C14.6827 0.0379608 14.6826 0.0379608 14.6825 0.0379608C14.6825 0.0379608 14.6824 0.0379608 14.6823 0.0379608C14.6823 0.0379608 14.6822 0.0379608 14.6821 0.0379608C14.6821 0.0379608 14.682 0.0379608 14.6819 0.0379608C14.6819 0.0379608 14.6818 0.0379608 14.6817 0.0379608C14.6817 0.0379608 14.6816 0.0379608 14.6815 0.0379608C14.6815 0.0379608 14.6814 0.0379608 14.6813 0.0379608C14.6813 0.0379608 14.6812 0.0379608 14.6811 0.0379608C14.6811 0.0379608 14.681 0.0379608 14.6809 0.0379608C14.6809 0.0379608 14.6808 0.0379608 14.6807 0.0379608C14.6807 0.0379608 14.6806 0.0379608 14.6805 0.0379608C14.6805 0.0379608 14.6804 0.0379608 14.6804 0.0379608C14.6803 0.0379608 14.6802 0.0379608 14.6802 0.0379608C14.6801 0.0379608 14.68 0.0379608 14.68 0.0379608C14.6799 0.0379608 14.6798 0.0379608 14.6798 0.0379608C14.6797 0.0379608 14.6796 0.0379608 14.6796 0.0379608C14.6795 0.0379608 14.6794 0.0379608 14.6794 0.0379608C14.6793 0.0379608 14.6792 0.0379608 14.6792 0.0379608C14.6791 0.0379608 14.679 0.0379608 14.679 0.0379608C14.6789 0.0379608 14.6788 0.0379608 14.6788 0.0379608C14.6787 0.0379608 14.6786 0.0379608 14.6786 0.0379608C14.6785 0.0379608 14.6784 0.0379608 14.6784 0.0379608C14.6783 0.0379608 14.6782 0.0379608 14.6782 0.0379608C14.6781 0.0379608 14.678 0.0379608 14.678 0.0379608C14.6779 0.0379608 14.6778 0.0379608 14.6778 0.0379608C14.6777 0.0379608 14.6776 0.0379608 14.6776 0.0379608C14.6775 0.0379608 14.6775 0.0379608 14.6774 0.0379608C14.6773 0.0379608 14.6773 0.0379608 14.6772 0.0379608C14.6771 0.0379608 14.6771 0.0379608 14.677 0.0379608C14.6769 0.0379608 14.6769 0.0379608 14.6768 0.0379608C14.6767 0.0379608 14.6767 0.0379608 14.6766 0.0379608C14.6765 0.0379608 14.6765 0.0379608 14.6764 0.0379608C14.6763 0.0379608 14.6763 0.0379608 14.6762 0.0379608C14.6761 0.0379608 14.6761 0.0379608 14.676 0.0379608C14.6759 0.0379608 14.6759 0.0379608 14.6758 0.0379608C14.6757 0.0379608 14.6757 0.0379608 14.6756 0.0379608C14.6755 0.0379608 14.6755 0.0379608 14.6754 0.0379608C14.6753 0.0379608 14.6753 0.0379608 14.6752 0.0379608C14.6751 0.0379608 14.6751 0.0379608 14.675 0.0379608C14.6749 0.0379608 14.6749 0.0379608 14.6748 0.0379608C14.6747 0.0379608 14.6747 0.0379608 14.6746 0.0379608C14.6746 0.0379608 14.6745 0.0379608 14.6744 0.0379608C14.6744 0.0379608 14.6743 0.0379608 14.6742 0.0379608C14.6742 0.0379608 14.6741 0.0379608 14.674 0.0379608C14.674 0.0379608 14.6739 0.0379608 14.6738 0.0379608C14.6738 0.0379608 14.6737 0.0379608 14.6736 0.0379608C14.6736 0.0379608 14.6735 0.0379608 14.6734 0.0379608C14.6734 0.0379608 14.6733 0.0379608 14.6732 0.0379608C14.6732 0.0379608 14.6731 0.0379608 14.673 0.0379608C14.673 0.0379608 14.6729 0.0379608 14.6728 0.0379608C14.6728 0.0379608 14.6727 0.0379608 14.6726 0.0379608C14.6726 0.0379608 14.6725 0.0379608 14.6724 0.0379608C14.6724 0.0379608 14.6723 0.0379608 14.6722 0.0379608C14.6722 0.0379608 14.6721 0.0379608 14.672 0.0379608C14.672 0.0379608 14.6719 0.0379608 14.6718 0.0379608C14.6718 0.0379608 14.6717 0.0379608 14.6716 0.0379608C14.6716 0.0379608 14.6715 0.0379608 14.6715 0.0379608C14.6714 0.0379608 14.6713 0.0379608 14.6713 0.0379608C14.6712 0.0379608 14.6711 0.0379608 14.6711 0.0379608C14.671 0.0379608 14.6709 0.0379608 14.6709 0.0379608C14.6708 0.0379608 14.6707 0.0379608 14.6707 0.0379608C14.6706 0.0379608 14.6705 0.0379608 14.6705 0.0379608C14.6704 0.0379608 14.6703 0.0379608 14.6703 0.0379608C14.6702 0.0379608 14.6701 0.0379608 14.6701 0.0379608C14.67 0.0379608 14.6699 0.0379608 14.6699 0.0379608C14.6698 0.0379608 14.6697 0.0379608 14.6697 0.0379608C14.6696 0.0379608 14.6695 0.0379608 14.6695 0.0379608C14.6694 0.0379608 14.6693 0.0379608 14.6693 0.0379608C14.6692 0.0379608 14.6691 0.0379608 14.6691 0.0379608C14.669 0.0379608 14.6689 0.0379608 14.6689 0.0379608C14.6688 0.0379608 14.6687 0.0379608 14.6687 0.0379608C14.6686 0.0379608 14.6686 0.0379608 14.6685 0.0379608C14.6684 0.0379608 14.6684 0.0379608 14.6683 0.0379608C14.6682 0.0379608 14.6682 0.0379608 14.6681 0.0379608C14.668 0.0379608 14.668 0.0379608 14.6679 0.0379608C14.6678 0.0379608 14.6678 0.0379608 14.6677 0.0379608C14.6676 0.0379608 14.6676 0.0379608 14.6675 0.0379608C14.6674 0.0379608 14.6674 0.0379608 14.6673 0.0379608C14.6672 0.0379608 14.6672 0.0379608 14.6671 0.0379608C14.667 0.0379608 14.667 0.0379608 14.6669 0.0379608C14.6668 0.0379608 14.6668 0.0379608 14.6667 0.0379608C14.6666 0.0379608 14.6666 0.0379608 14.6665 0.0379608C14.6664 0.0379608 14.6664 0.0379608 14.6663 0.0379608C14.6662 0.0379608 14.6662 0.0379608 14.6661 0.0379608C14.666 0.0379608 14.666 0.0379608 14.6659 0.0379608C14.6658 0.0379608 14.6658 0.0379608 14.6657 0.0379608C14.6657 0.0379608 14.6656 0.0379608 14.6655 0.0379608C14.6655 0.0379608 14.6654 0.0379608 14.6653 0.0379608C14.6653 0.0379608 14.6652 0.0379608 14.6651 0.0379608C14.6651 0.0379608 14.665 0.0379608 14.6649 0.0379608C14.6649 0.0379608 14.6648 0.0379608 14.6647 0.0379608C14.6647 0.0379608 14.6646 0.0379608 14.6645 0.0379608C14.6645 0.0379608 14.6644 0.0379608 14.6643 0.0379608C14.6643 0.0379608 14.6642 0.0379608 14.6641 0.0379608C14.6641 0.0379608 14.664 0.0379608 14.6639 0.0379608C14.6639 0.0379608 14.6638 0.0379608 14.6637 0.0379608C14.6637 0.0379608 14.6636 0.0379608 14.6635 0.0379608C14.6635 0.0379608 14.6634 0.0379608 14.6633 0.0379608C14.6633 0.0379608 14.6632 0.0379608 14.6631 0.0379608C14.6631 0.0379608 14.663 0.0379608 14.6629 0.0379608C14.6629 0.0379608 14.6628 0.0379608 14.6628 0.0379608C14.6627 0.0379608 14.6626 0.0379608 14.6626 0.0379608C14.6625 0.0379608 14.6624 0.0379608 14.6624 0.0379608C14.6623 0.0379608 14.6622 0.0379608 14.6622 0.0379608C14.6621 0.0379608 14.662 0.0379608 14.662 0.0379608C14.6619 0.0379608 14.6618 0.0379608 14.6618 0.0379608C14.6617 0.0379608 14.6616 0.0379608 14.6616 0.0379608C14.6615 0.0379608 14.6614 0.0379608 14.6614 0.0379608C14.6613 0.0379608 14.6612 0.0379608 14.6612 0.0379608C14.6611 0.0379608 14.661 0.0379608 14.661 0.0379608C14.6609 0.0379608 14.6608 0.0379608 14.6608 0.0379608C14.6607 0.0379608 14.6606 0.0379608 14.6606 0.0379608C14.6605 0.0379608 14.6604 0.0379608 14.6604 0.0379608C14.6603 0.0379608 14.6602 0.0379608 14.6602 0.0379608C14.6601 0.0379608 14.66 0.0379608 14.66 0.0379608C14.6599 0.0379608 14.6598 0.0379608 14.6598 0.0379608C14.6597 0.0379608 14.6597 0.0379608 14.6596 0.0379608C14.6595 0.0379608 14.6595 0.0379608 14.6594 0.0379608C14.6593 0.0379608 14.6593 0.0379608 14.6592 0.0379608C14.6591 0.0379608 14.6591 0.0379608 14.659 0.0379608C14.6589 0.0379608 14.6589 0.0379608 14.6588 0.0379608C14.6587 0.0379608 14.6587 0.0379608 14.6586 0.0379608C14.6585 0.0379608 14.6585 0.0379608 14.6584 0.0379608C14.6583 0.0379608 14.6583 0.0379608 14.6582 0.0379608C14.6581 0.0379608 14.6581 0.0379608 14.658 0.0379608C14.6579 0.0379608 14.6579 0.0379608 14.6578 0.0379608C14.6577 0.0379608 14.6577 0.0379608 14.6576 0.0379608C14.6575 0.0379608 14.6575 0.0379608 14.6574 0.0379608C14.6573 0.0379608 14.6573 0.0379608 14.6572 0.0379608C14.6571 0.0379608 14.6571 0.0379608 14.657 0.0379608C14.6569 0.0379608 14.6569 0.0379608 14.6568 0.0379608C14.6568 0.0379608 14.6567 0.0379608 14.6566 0.0379608C14.6566 0.0379608 14.6565 0.0379608 14.6564 0.0379608C14.6564 0.0379608 14.6563 0.0379608 14.6562 0.0379608C14.6562 0.0379608 14.6561 0.0379608 14.656 0.0379608C14.656 0.0379608 14.6559 0.0379608 14.6558 0.0379608C14.6558 0.0379608 14.6557 0.0379608 14.6556 0.0379608C14.6556 0.0379608 14.6555 0.0379608 14.6554 0.0379608C14.6554 0.0379608 14.6553 0.0379608 14.6552 0.0379608C14.6552 0.0379608 14.6551 0.0379608 14.655 0.0379608C14.655 0.0379608 14.6549 0.0379608 14.6548 0.0379608C14.6548 0.0379608 14.6547 0.0379608 14.6546 0.0379608C14.6546 0.0379608 14.6545 0.0379608 14.6544 0.0379608C14.6544 0.0379608 14.6543 0.0379608 14.6542 0.0379608C14.6542 0.0379608 14.6541 0.0379608 14.654 0.0379608C14.654 0.0379608 14.6539 0.0379608 14.6539 0.0379608C14.6538 0.0379608 14.6537 0.0379608 14.6537 0.0379608C14.6536 0.0379608 14.6535 0.0379608 14.6535 0.0379608C14.6534 0.0379608 14.6533 0.0379608 14.6533 0.0379608C14.6532 0.0379608 14.6531 0.0379608 14.6531 0.0379608C14.653 0.0379608 14.6529 0.0379608 14.6529 0.0379608C14.6528 0.0379608 14.6527 0.0379608 14.6527 0.0379608C14.6526 0.0379608 14.6525 0.0379608 14.6525 0.0379608C14.6524 0.0379608 14.6523 0.0379608 14.6523 0.0379608C14.6522 0.0379608 14.6521 0.0379608 14.6521 0.0379608C14.652 0.0379608 14.6519 0.0379608 14.6519 0.0379608C14.6518 0.0379608 14.6517 0.0379608 14.6517 0.0379608C14.6516 0.0379608 14.6515 0.0379608 14.6515 0.0379608C14.6514 0.0379608 14.6513 0.0379608 14.6513 0.0379608C14.6512 0.0379608 14.6511 0.0379608 14.6511 0.0379608C14.651 0.0379608 14.6509 0.0379608 14.6509 0.0379608C14.6508 0.0379608 14.6508 0.0379608 14.6507 0.0379608C14.6506 0.0379608 14.6506 0.0379608 14.6505 0.0379608C14.6504 0.0379608 14.6504 0.0379608 14.6503 0.0379608C14.6502 0.0379608 14.6502 0.0379608 14.6501 0.0379608C14.65 0.0379608 14.65 0.0379608 14.6499 0.0379608C14.6498 0.0379608 14.6498 0.0379608 14.6497 0.0379608C14.6496 0.0379608 14.6496 0.0379608 14.6495 0.0379608C14.6494 0.0379608 14.6494 0.0379608 14.6493 0.0379608C14.6492 0.0379608 14.6492 0.0379608 14.6491 0.0379608C14.649 0.0379608 14.649 0.0379608 14.6489 0.0379608C14.6488 0.0379608 14.6488 0.0379608 14.6487 0.0379608C14.6486 0.0379608 14.6486 0.0379608 14.6485 0.0379608C14.6484 0.0379608 14.6484 0.0379608 14.6483 0.0379608C14.6482 0.0379608 14.6482 0.0379608 14.6481 0.0379608C14.648 0.0379608 14.648 0.0379608 14.6479 0.0379608C14.6479 0.0379608 14.6478 0.0379608 14.6477 0.0379608C14.6477 0.0379608 14.6476 0.0379608 14.6475 0.0379608C14.6475 0.0379608 14.6474 0.0379608 14.6473 0.0379608C14.6473 0.0379608 14.6472 0.0379608 14.6471 0.0379608C14.6471 0.0379608 14.647 0.0379608 14.6469 0.0379608C14.6469 0.0379608 14.6468 0.0379608 14.6467 0.0379608C14.6467 0.0379608 14.6466 0.0379608 14.6465 0.0379608C14.6465 0.0379608 14.6464 0.0379608 14.6463 0.0379608C14.6463 0.0379608 14.6462 0.0379608 14.6461 0.0379608C14.6461 0.0379608 14.646 0.0379608 14.6459 0.0379608C14.6459 0.0379608 14.6458 0.0379608 14.6457 0.0379608C14.6457 0.0379608 14.6456 0.0379608 14.6455 0.0379608C14.6455 0.0379608 14.6454 0.0379608 14.6453 0.0379608C14.6453 0.0379608 14.6452 0.0379608 14.6451 0.0379608C14.6451 0.0379608 14.645 0.0379608 14.645 0.0379608C14.6449 0.0379608 14.6448 0.0379608 14.6448 0.0379608C14.6447 0.0379608 14.6446 0.0379608 14.6446 0.0379608C14.6445 0.0379608 14.6444 0.0379608 14.6444 0.0379608C14.6443 0.0379608 14.6442 0.0379608 14.6442 0.0379608C14.6441 0.0379608 14.644 0.0379608 14.644 0.0379608C14.6439 0.0379608 14.6438 0.0379608 14.6438 0.0379608C14.6437 0.0379608 14.6436 0.0379608 14.6436 0.0379608C14.6435 0.0379608 14.6434 0.0379608 14.6434 0.0379608C14.6433 0.0379608 14.6432 0.0379608 14.6432 0.0379608C14.6431 0.0379608 14.643 0.0379608 14.643 0.0379608C14.6429 0.0379608 14.6428 0.0379608 14.6428 0.0379608C14.6427 0.0379608 14.6426 0.0379608 14.6426 0.0379608C14.6425 0.0379608 14.6424 0.0379608 14.6424 0.0379608C14.6423 0.0379608 14.6422 0.0379608 14.6422 0.0379608C14.6421 0.0379608 14.642 0.0379608 14.642 0.0379608C14.6419 0.0379608 14.6419 0.0379608 14.6418 0.0379608C14.6417 0.0379608 14.6417 0.0379608 14.6416 0.0379608C14.6415 0.0379608 14.6415 0.0379608 14.6414 0.0379608C14.6413 0.0379608 14.6413 0.0379608 14.6412 0.0379608C14.6411 0.0379608 14.6411 0.0379608 14.641 0.0379608C14.6409 0.0379608 14.6409 0.0379608 14.6408 0.0379608C14.6407 0.0379608 14.6407 0.0379608 14.6406 0.0379608C14.6405 0.0379608 14.6405 0.0379608 14.6404 0.0379608C14.6403 0.0379608 14.6403 0.0379608 14.6402 0.0379608C14.6401 0.0379608 14.6401 0.0379608 14.64 0.0379608C14.6399 0.0379608 14.6399 0.0379608 14.6398 0.0379608C14.6397 0.0379608 14.6397 0.0379608 14.6396 0.0379608C14.6395 0.0379608 14.6395 0.0379608 14.6394 0.0379608C14.6393 0.0379608 14.6393 0.0379608 14.6392 0.0379608C14.6391 0.0379608 14.6391 0.0379608 14.639 0.0379608C14.639 0.0379608 14.6389 0.0379608 14.6388 0.0379608C14.6388 0.0379608 14.6387 0.0379608 14.6386 0.0379608C14.6386 0.0379608 14.6385 0.0379608 14.6384 0.0379608C14.6384 0.0379608 14.6383 0.0379608 14.6382 0.0379608C14.6382 0.0379608 14.6381 0.0379608 14.638 0.0379608C14.638 0.0379608 14.6379 0.0379608 14.6378 0.0379608C14.6378 0.0379608 14.6377 0.0379608 14.6376 0.0379608C14.6376 0.0379608 14.6375 0.0379608 14.6374 0.0379608C14.6374 0.0379608 14.6373 0.0379608 14.6372 0.0379608C14.6372 0.0379608 14.6371 0.0379608 14.637 0.0379608C14.637 0.0379608 14.6369 0.0379608 14.6368 0.0379608C14.6368 0.0379608 14.6367 0.0379608 14.6366 0.0379608C14.6366 0.0379608 14.6365 0.0379608 14.6364 0.0379608C14.6364 0.0379608 14.6363 0.0379608 14.6362 0.0379608C14.6362 0.0379608 14.6361 0.0379608 14.6361 0.0379608C14.636 0.0379608 14.6359 0.0379608 14.6359 0.0379608C14.6358 0.0379608 14.6357 0.0379608 14.6357 0.0379608C14.6356 0.0379608 14.6355 0.0379608 14.6355 0.0379608C14.6354 0.0379608 14.6353 0.0379608 14.6353 0.0379608C14.6352 0.0379608 14.6351 0.0379608 14.6351 0.0379608C14.635 0.0379608 14.6349 0.0379608 14.6349 0.0379608C14.6348 0.0379608 14.6347 0.0379608 14.6347 0.0379608C14.6346 0.0379608 14.6345 0.0379608 14.6345 0.0379608C14.6344 0.0379608 14.6343 0.0379608 14.6343 0.0379608C14.6342 0.0379608 14.6341 0.0379608 14.6341 0.0379608C14.634 0.0379608 14.6339 0.0379608 14.6339 0.0379608C14.6338 0.0379608 14.6337 0.0379608 14.6337 0.0379608C14.6336 0.0379608 14.6335 0.0379608 14.6335 0.0379608C14.6334 0.0379608 14.6333 0.0379608 14.6333 0.0379608C14.6332 0.0379608 14.6332 0.0379608 14.6331 0.0379608C14.633 0.0379608 14.633 0.0379608 14.6329 0.0379608C14.6328 0.0379608 14.6328 0.0379608 14.6327 0.0379608C14.6326 0.0379608 14.6326 0.0379608 14.6325 0.0379608C14.6324 0.0379608 14.6324 0.0379608 14.6323 0.0379608C14.6322 0.0379608 14.6322 0.0379608 14.6321 0.0379608C14.632 0.0379608 14.632 0.0379608 14.6319 0.0379608C14.6318 0.0379608 14.6318 0.0379608 14.6317 0.0379608C14.6316 0.0379608 14.6316 0.0379608 14.6315 0.0379608C14.6314 0.0379608 14.6314 0.0379608 14.6313 0.0379608C14.6312 0.0379608 14.6312 0.0379608 14.6311 0.0379608C14.631 0.0379608 14.631 0.0379608 14.6309 0.0379608C14.6308 0.0379608 14.6308 0.0379608 14.6307 0.0379608C14.6306 0.0379608 14.6306 0.0379608 14.6305 0.0379608C14.6304 0.0379608 14.6304 0.0379608 14.6303 0.0379608C14.6302 0.0379608 14.6302 0.0379608 14.6301 0.0379608C14.6301 0.0379608 14.63 0.0379608 14.6299 0.0379608C14.6299 0.0379608 14.6298 0.0379608 14.6297 0.0379608C14.6297 0.0379608 14.6296 0.0379608 14.6295 0.0379608C14.6295 0.0379608 14.6294 0.0379608 14.6293 0.0379608C14.6293 0.0379608 14.6292 0.0379608 14.6291 0.0379608C14.6291 0.0379608 14.629 0.0379608 14.6289 0.0379608C14.6289 0.0379608 14.6288 0.0379608 14.6287 0.0379608C14.6287 0.0379608 14.6286 0.0379608 14.6285 0.0379608C14.6285 0.0379608 14.6284 0.0379608 14.6283 0.0379608C14.6283 0.0379608 14.6282 0.0379608 14.6281 0.0379608C14.6281 0.0379608 14.628 0.0379608 14.6279 0.0379608C14.6279 0.0379608 14.6278 0.0379608 14.6277 0.0379608C14.6277 0.0379608 14.6276 0.0379608 14.6275 0.0379608C14.6275 0.0379608 14.6274 0.0379608 14.6273 0.0379608C14.6273 0.0379608 14.6272 0.0379608 14.6272 0.0379608C14.6271 0.0379608 14.627 0.0379608 14.627 0.0379608C14.6269 0.0379608 14.6268 0.0379608 14.6268 0.0379608C14.6267 0.0379608 14.6266 0.0379608 14.6266 0.0379608C14.6265 0.0379608 14.6264 0.0379608 14.6264 0.0379608C14.6263 0.0379608 14.6262 0.0379608 14.6262 0.0379608C14.6261 0.0379608 14.626 0.0379608 14.626 0.0379608C14.6259 0.0379608 14.6258 0.0379608 14.6258 0.0379608C14.6257 0.0379608 14.6256 0.0379608 14.6256 0.0379608C14.6255 0.0379608 14.6254 0.0379608 14.6254 0.0379608C14.6253 0.0379608 14.6252 0.0379608 14.6252 0.0379608C14.6251 0.0379608 14.625 0.0379608 14.625 0.0379608C14.6249 0.0379608 14.6248 0.0379608 14.6248 0.0379608C14.6247 0.0379608 14.6246 0.0379608 14.6246 0.0379608C14.6245 0.0379608 14.6244 0.0379608 14.6244 0.0379608C14.6243 0.0379608 14.6243 0.0379608 14.6242 0.0379608C14.6241 0.0379608 14.6241 0.0379608 14.624 0.0379608C14.6239 0.0379608 14.6239 0.0379608 14.6238 0.0379608C14.6237 0.0379608 14.6237 0.0379608 14.6236 0.0379608C14.6235 0.0379608 14.6235 0.0379608 14.6234 0.0379608C14.6233 0.0379608 14.6233 0.0379608 14.6232 0.0379608C14.6231 0.0379608 14.6231 0.0379608 14.623 0.0379608C14.6229 0.0379608 14.6229 0.0379608 14.6228 0.0379608C14.6227 0.0379608 14.6227 0.0379608 14.6226 0.0379608C14.6225 0.0379608 14.6225 0.0379608 14.6224 0.0379608C14.6223 0.0379608 14.6223 0.0379608 14.6222 0.0379608C14.6221 0.0379608 14.6221 0.0379608 14.622 0.0379608C14.6219 0.0379608 14.6219 0.0379608 14.6218 0.0379608C14.6217 0.0379608 14.6217 0.0379608 14.6216 0.0379608C14.6215 0.0379608 14.6215 0.0379608 14.6214 0.0379608C14.6213 0.0379608 14.6213 0.0379608 14.6212 0.0379608C14.6212 0.0379608 14.6211 0.0379608 14.621 0.0379608C14.621 0.0379608 14.6209 0.0379608 14.6208 0.0379608C14.6208 0.0379608 14.6207 0.0379608 14.6206 0.0379608C14.6206 0.0379608 14.6205 0.0379608 14.6204 0.0379608C14.6204 0.0379608 14.6203 0.0379608 14.6202 0.0379608C14.6202 0.0379608 14.6201 0.0379608 14.62 0.0379608C14.62 0.0379608 14.6199 0.0379608 14.6198 0.0379608C14.6198 0.0379608 14.6197 0.0379608 14.6196 0.0379608C14.6196 0.0379608 14.6195 0.0379608 14.6194 0.0379608C14.6194 0.0379608 14.6193 0.0379608 14.6192 0.0379608C14.6192 0.0379608 14.6191 0.0379608 14.619 0.0379608C14.619 0.0379608 14.6189 0.0379608 14.6188 0.0379608C14.6188 0.0379608 14.6187 0.0379608 14.6186 0.0379608C14.6186 0.0379608 14.6185 0.0379608 14.6184 0.0379608C14.6184 0.0379608 14.6183 0.0379608 14.6183 0.0379608C14.6182 0.0379608 14.6181 0.0379608 14.6181 0.0379608C14.618 0.0379608 14.6179 0.0379608 14.6179 0.0379608C14.6178 0.0379608 14.6177 0.0379608 14.6177 0.0379608C14.6176 0.0379608 14.6175 0.0379608 14.6175 0.0379608C14.6174 0.0379608 14.6173 0.0379608 14.6173 0.0379608C14.6172 0.0379608 14.6171 0.0379608 14.6171 0.0379608C14.617 0.0379608 14.6169 0.0379608 14.6169 0.0379608C14.6168 0.0379608 14.6167 0.0379608 14.6167 0.0379608C14.6166 0.0379608 14.6165 0.0379608 14.6165 0.0379608C14.6164 0.0379608 14.6163 0.0379608 14.6163 0.0379608C14.6162 0.0379608 14.6161 0.0379608 14.6161 0.0379608C14.616 0.0379608 14.6159 0.0379608 14.6159 0.0379608C14.6158 0.0379608 14.6157 0.0379608 14.6157 0.0379608C14.6156 0.0379608 14.6155 0.0379608 14.6155 0.0379608C14.6154 0.0379608 14.6153 0.0379608 14.6153 0.0379608C14.6152 0.0379608 14.6152 0.0379608 14.6151 0.0379608C14.615 0.0379608 14.615 0.0379608 14.6149 0.0379608C14.6148 0.0379608 14.6148 0.0379608 14.6147 0.0379608C14.6146 0.0379608 14.6146 0.0379608 14.6145 0.0379608C14.6144 0.0379608 14.6144 0.0379608 14.6143 0.0379608C14.6142 0.0379608 14.6142 0.0379608 14.6141 0.0379608C14.614 0.0379608 14.614 0.0379608 14.6139 0.0379608C14.6138 0.0379608 14.6138 0.0379608 14.6137 0.0379608C14.6136 0.0379608 14.6136 0.0379608 14.6135 0.0379608C14.6134 0.0379608 14.6134 0.0379608 14.6133 0.0379608C14.6132 0.0379608 14.6132 0.0379608 14.6131 0.0379608V1.03796C14.6132 1.03796 14.6132 1.03796 14.6133 1.03796C14.6134 1.03796 14.6134 1.03796 14.6135 1.03796C14.6136 1.03796 14.6136 1.03796 14.6137 1.03796C14.6138 1.03796 14.6138 1.03796 14.6139 1.03796C14.614 1.03796 14.614 1.03796 14.6141 1.03796C14.6142 1.03796 14.6142 1.03796 14.6143 1.03796C14.6144 1.03796 14.6144 1.03796 14.6145 1.03796C14.6146 1.03796 14.6146 1.03796 14.6147 1.03796C14.6148 1.03796 14.6148 1.03796 14.6149 1.03796C14.615 1.03796 14.615 1.03796 14.6151 1.03796C14.6152 1.03796 14.6152 1.03796 14.6153 1.03796C14.6153 1.03796 14.6154 1.03796 14.6155 1.03796C14.6155 1.03796 14.6156 1.03796 14.6157 1.03796C14.6157 1.03796 14.6158 1.03796 14.6159 1.03796C14.6159 1.03796 14.616 1.03796 14.6161 1.03796C14.6161 1.03796 14.6162 1.03796 14.6163 1.03796C14.6163 1.03796 14.6164 1.03796 14.6165 1.03796C14.6165 1.03796 14.6166 1.03796 14.6167 1.03796C14.6167 1.03796 14.6168 1.03796 14.6169 1.03796C14.6169 1.03796 14.617 1.03796 14.6171 1.03796C14.6171 1.03796 14.6172 1.03796 14.6173 1.03796C14.6173 1.03796 14.6174 1.03796 14.6175 1.03796C14.6175 1.03796 14.6176 1.03796 14.6177 1.03796C14.6177 1.03796 14.6178 1.03796 14.6179 1.03796C14.6179 1.03796 14.618 1.03796 14.6181 1.03796C14.6181 1.03796 14.6182 1.03796 14.6183 1.03796C14.6183 1.03796 14.6184 1.03796 14.6184 1.03796C14.6185 1.03796 14.6186 1.03796 14.6186 1.03796C14.6187 1.03796 14.6188 1.03796 14.6188 1.03796C14.6189 1.03796 14.619 1.03796 14.619 1.03796C14.6191 1.03796 14.6192 1.03796 14.6192 1.03796C14.6193 1.03796 14.6194 1.03796 14.6194 1.03796C14.6195 1.03796 14.6196 1.03796 14.6196 1.03796C14.6197 1.03796 14.6198 1.03796 14.6198 1.03796C14.6199 1.03796 14.62 1.03796 14.62 1.03796C14.6201 1.03796 14.6202 1.03796 14.6202 1.03796C14.6203 1.03796 14.6204 1.03796 14.6204 1.03796C14.6205 1.03796 14.6206 1.03796 14.6206 1.03796C14.6207 1.03796 14.6208 1.03796 14.6208 1.03796C14.6209 1.03796 14.621 1.03796 14.621 1.03796C14.6211 1.03796 14.6212 1.03796 14.6212 1.03796C14.6213 1.03796 14.6213 1.03796 14.6214 1.03796C14.6215 1.03796 14.6215 1.03796 14.6216 1.03796C14.6217 1.03796 14.6217 1.03796 14.6218 1.03796C14.6219 1.03796 14.6219 1.03796 14.622 1.03796C14.6221 1.03796 14.6221 1.03796 14.6222 1.03796C14.6223 1.03796 14.6223 1.03796 14.6224 1.03796C14.6225 1.03796 14.6225 1.03796 14.6226 1.03796C14.6227 1.03796 14.6227 1.03796 14.6228 1.03796C14.6229 1.03796 14.6229 1.03796 14.623 1.03796C14.6231 1.03796 14.6231 1.03796 14.6232 1.03796C14.6233 1.03796 14.6233 1.03796 14.6234 1.03796C14.6235 1.03796 14.6235 1.03796 14.6236 1.03796C14.6237 1.03796 14.6237 1.03796 14.6238 1.03796C14.6239 1.03796 14.6239 1.03796 14.624 1.03796C14.6241 1.03796 14.6241 1.03796 14.6242 1.03796C14.6243 1.03796 14.6243 1.03796 14.6244 1.03796C14.6244 1.03796 14.6245 1.03796 14.6246 1.03796C14.6246 1.03796 14.6247 1.03796 14.6248 1.03796C14.6248 1.03796 14.6249 1.03796 14.625 1.03796C14.625 1.03796 14.6251 1.03796 14.6252 1.03796C14.6252 1.03796 14.6253 1.03796 14.6254 1.03796C14.6254 1.03796 14.6255 1.03796 14.6256 1.03796C14.6256 1.03796 14.6257 1.03796 14.6258 1.03796C14.6258 1.03796 14.6259 1.03796 14.626 1.03796C14.626 1.03796 14.6261 1.03796 14.6262 1.03796C14.6262 1.03796 14.6263 1.03796 14.6264 1.03796C14.6264 1.03796 14.6265 1.03796 14.6266 1.03796C14.6266 1.03796 14.6267 1.03796 14.6268 1.03796C14.6268 1.03796 14.6269 1.03796 14.627 1.03796C14.627 1.03796 14.6271 1.03796 14.6272 1.03796C14.6272 1.03796 14.6273 1.03796 14.6273 1.03796C14.6274 1.03796 14.6275 1.03796 14.6275 1.03796C14.6276 1.03796 14.6277 1.03796 14.6277 1.03796C14.6278 1.03796 14.6279 1.03796 14.6279 1.03796C14.628 1.03796 14.6281 1.03796 14.6281 1.03796C14.6282 1.03796 14.6283 1.03796 14.6283 1.03796C14.6284 1.03796 14.6285 1.03796 14.6285 1.03796C14.6286 1.03796 14.6287 1.03796 14.6287 1.03796C14.6288 1.03796 14.6289 1.03796 14.6289 1.03796C14.629 1.03796 14.6291 1.03796 14.6291 1.03796C14.6292 1.03796 14.6293 1.03796 14.6293 1.03796C14.6294 1.03796 14.6295 1.03796 14.6295 1.03796C14.6296 1.03796 14.6297 1.03796 14.6297 1.03796C14.6298 1.03796 14.6299 1.03796 14.6299 1.03796C14.63 1.03796 14.6301 1.03796 14.6301 1.03796C14.6302 1.03796 14.6302 1.03796 14.6303 1.03796C14.6304 1.03796 14.6304 1.03796 14.6305 1.03796C14.6306 1.03796 14.6306 1.03796 14.6307 1.03796C14.6308 1.03796 14.6308 1.03796 14.6309 1.03796C14.631 1.03796 14.631 1.03796 14.6311 1.03796C14.6312 1.03796 14.6312 1.03796 14.6313 1.03796C14.6314 1.03796 14.6314 1.03796 14.6315 1.03796C14.6316 1.03796 14.6316 1.03796 14.6317 1.03796C14.6318 1.03796 14.6318 1.03796 14.6319 1.03796C14.632 1.03796 14.632 1.03796 14.6321 1.03796C14.6322 1.03796 14.6322 1.03796 14.6323 1.03796C14.6324 1.03796 14.6324 1.03796 14.6325 1.03796C14.6326 1.03796 14.6326 1.03796 14.6327 1.03796C14.6328 1.03796 14.6328 1.03796 14.6329 1.03796C14.633 1.03796 14.633 1.03796 14.6331 1.03796C14.6332 1.03796 14.6332 1.03796 14.6333 1.03796C14.6333 1.03796 14.6334 1.03796 14.6335 1.03796C14.6335 1.03796 14.6336 1.03796 14.6337 1.03796C14.6337 1.03796 14.6338 1.03796 14.6339 1.03796C14.6339 1.03796 14.634 1.03796 14.6341 1.03796C14.6341 1.03796 14.6342 1.03796 14.6343 1.03796C14.6343 1.03796 14.6344 1.03796 14.6345 1.03796C14.6345 1.03796 14.6346 1.03796 14.6347 1.03796C14.6347 1.03796 14.6348 1.03796 14.6349 1.03796C14.6349 1.03796 14.635 1.03796 14.6351 1.03796C14.6351 1.03796 14.6352 1.03796 14.6353 1.03796C14.6353 1.03796 14.6354 1.03796 14.6355 1.03796C14.6355 1.03796 14.6356 1.03796 14.6357 1.03796C14.6357 1.03796 14.6358 1.03796 14.6359 1.03796C14.6359 1.03796 14.636 1.03796 14.6361 1.03796C14.6361 1.03796 14.6362 1.03796 14.6362 1.03796C14.6363 1.03796 14.6364 1.03796 14.6364 1.03796C14.6365 1.03796 14.6366 1.03796 14.6366 1.03796C14.6367 1.03796 14.6368 1.03796 14.6368 1.03796C14.6369 1.03796 14.637 1.03796 14.637 1.03796C14.6371 1.03796 14.6372 1.03796 14.6372 1.03796C14.6373 1.03796 14.6374 1.03796 14.6374 1.03796C14.6375 1.03796 14.6376 1.03796 14.6376 1.03796C14.6377 1.03796 14.6378 1.03796 14.6378 1.03796C14.6379 1.03796 14.638 1.03796 14.638 1.03796C14.6381 1.03796 14.6382 1.03796 14.6382 1.03796C14.6383 1.03796 14.6384 1.03796 14.6384 1.03796C14.6385 1.03796 14.6386 1.03796 14.6386 1.03796C14.6387 1.03796 14.6388 1.03796 14.6388 1.03796C14.6389 1.03796 14.639 1.03796 14.639 1.03796C14.6391 1.03796 14.6391 1.03796 14.6392 1.03796C14.6393 1.03796 14.6393 1.03796 14.6394 1.03796C14.6395 1.03796 14.6395 1.03796 14.6396 1.03796C14.6397 1.03796 14.6397 1.03796 14.6398 1.03796C14.6399 1.03796 14.6399 1.03796 14.64 1.03796C14.6401 1.03796 14.6401 1.03796 14.6402 1.03796C14.6403 1.03796 14.6403 1.03796 14.6404 1.03796C14.6405 1.03796 14.6405 1.03796 14.6406 1.03796C14.6407 1.03796 14.6407 1.03796 14.6408 1.03796C14.6409 1.03796 14.6409 1.03796 14.641 1.03796C14.6411 1.03796 14.6411 1.03796 14.6412 1.03796C14.6413 1.03796 14.6413 1.03796 14.6414 1.03796C14.6415 1.03796 14.6415 1.03796 14.6416 1.03796C14.6417 1.03796 14.6417 1.03796 14.6418 1.03796C14.6419 1.03796 14.6419 1.03796 14.642 1.03796C14.642 1.03796 14.6421 1.03796 14.6422 1.03796C14.6422 1.03796 14.6423 1.03796 14.6424 1.03796C14.6424 1.03796 14.6425 1.03796 14.6426 1.03796C14.6426 1.03796 14.6427 1.03796 14.6428 1.03796C14.6428 1.03796 14.6429 1.03796 14.643 1.03796C14.643 1.03796 14.6431 1.03796 14.6432 1.03796C14.6432 1.03796 14.6433 1.03796 14.6434 1.03796C14.6434 1.03796 14.6435 1.03796 14.6436 1.03796C14.6436 1.03796 14.6437 1.03796 14.6438 1.03796C14.6438 1.03796 14.6439 1.03796 14.644 1.03796C14.644 1.03796 14.6441 1.03796 14.6442 1.03796C14.6442 1.03796 14.6443 1.03796 14.6444 1.03796C14.6444 1.03796 14.6445 1.03796 14.6446 1.03796C14.6446 1.03796 14.6447 1.03796 14.6448 1.03796C14.6448 1.03796 14.6449 1.03796 14.645 1.03796C14.645 1.03796 14.6451 1.03796 14.6451 1.03796C14.6452 1.03796 14.6453 1.03796 14.6453 1.03796C14.6454 1.03796 14.6455 1.03796 14.6455 1.03796C14.6456 1.03796 14.6457 1.03796 14.6457 1.03796C14.6458 1.03796 14.6459 1.03796 14.6459 1.03796C14.646 1.03796 14.6461 1.03796 14.6461 1.03796C14.6462 1.03796 14.6463 1.03796 14.6463 1.03796C14.6464 1.03796 14.6465 1.03796 14.6465 1.03796C14.6466 1.03796 14.6467 1.03796 14.6467 1.03796C14.6468 1.03796 14.6469 1.03796 14.6469 1.03796C14.647 1.03796 14.6471 1.03796 14.6471 1.03796C14.6472 1.03796 14.6473 1.03796 14.6473 1.03796C14.6474 1.03796 14.6475 1.03796 14.6475 1.03796C14.6476 1.03796 14.6477 1.03796 14.6477 1.03796C14.6478 1.03796 14.6479 1.03796 14.6479 1.03796C14.648 1.03796 14.648 1.03796 14.6481 1.03796C14.6482 1.03796 14.6482 1.03796 14.6483 1.03796C14.6484 1.03796 14.6484 1.03796 14.6485 1.03796C14.6486 1.03796 14.6486 1.03796 14.6487 1.03796C14.6488 1.03796 14.6488 1.03796 14.6489 1.03796C14.649 1.03796 14.649 1.03796 14.6491 1.03796C14.6492 1.03796 14.6492 1.03796 14.6493 1.03796C14.6494 1.03796 14.6494 1.03796 14.6495 1.03796C14.6496 1.03796 14.6496 1.03796 14.6497 1.03796C14.6498 1.03796 14.6498 1.03796 14.6499 1.03796C14.65 1.03796 14.65 1.03796 14.6501 1.03796C14.6502 1.03796 14.6502 1.03796 14.6503 1.03796C14.6504 1.03796 14.6504 1.03796 14.6505 1.03796C14.6506 1.03796 14.6506 1.03796 14.6507 1.03796C14.6508 1.03796 14.6508 1.03796 14.6509 1.03796C14.6509 1.03796 14.651 1.03796 14.6511 1.03796C14.6511 1.03796 14.6512 1.03796 14.6513 1.03796C14.6513 1.03796 14.6514 1.03796 14.6515 1.03796C14.6515 1.03796 14.6516 1.03796 14.6517 1.03796C14.6517 1.03796 14.6518 1.03796 14.6519 1.03796C14.6519 1.03796 14.652 1.03796 14.6521 1.03796C14.6521 1.03796 14.6522 1.03796 14.6523 1.03796C14.6523 1.03796 14.6524 1.03796 14.6525 1.03796C14.6525 1.03796 14.6526 1.03796 14.6527 1.03796C14.6527 1.03796 14.6528 1.03796 14.6529 1.03796C14.6529 1.03796 14.653 1.03796 14.6531 1.03796C14.6531 1.03796 14.6532 1.03796 14.6533 1.03796C14.6533 1.03796 14.6534 1.03796 14.6535 1.03796C14.6535 1.03796 14.6536 1.03796 14.6537 1.03796C14.6537 1.03796 14.6538 1.03796 14.6539 1.03796C14.6539 1.03796 14.654 1.03796 14.654 1.03796C14.6541 1.03796 14.6542 1.03796 14.6542 1.03796C14.6543 1.03796 14.6544 1.03796 14.6544 1.03796C14.6545 1.03796 14.6546 1.03796 14.6546 1.03796C14.6547 1.03796 14.6548 1.03796 14.6548 1.03796C14.6549 1.03796 14.655 1.03796 14.655 1.03796C14.6551 1.03796 14.6552 1.03796 14.6552 1.03796C14.6553 1.03796 14.6554 1.03796 14.6554 1.03796C14.6555 1.03796 14.6556 1.03796 14.6556 1.03796C14.6557 1.03796 14.6558 1.03796 14.6558 1.03796C14.6559 1.03796 14.656 1.03796 14.656 1.03796C14.6561 1.03796 14.6562 1.03796 14.6562 1.03796C14.6563 1.03796 14.6564 1.03796 14.6564 1.03796C14.6565 1.03796 14.6566 1.03796 14.6566 1.03796C14.6567 1.03796 14.6568 1.03796 14.6568 1.03796C14.6569 1.03796 14.6569 1.03796 14.657 1.03796C14.6571 1.03796 14.6571 1.03796 14.6572 1.03796C14.6573 1.03796 14.6573 1.03796 14.6574 1.03796C14.6575 1.03796 14.6575 1.03796 14.6576 1.03796C14.6577 1.03796 14.6577 1.03796 14.6578 1.03796C14.6579 1.03796 14.6579 1.03796 14.658 1.03796C14.6581 1.03796 14.6581 1.03796 14.6582 1.03796C14.6583 1.03796 14.6583 1.03796 14.6584 1.03796C14.6585 1.03796 14.6585 1.03796 14.6586 1.03796C14.6587 1.03796 14.6587 1.03796 14.6588 1.03796C14.6589 1.03796 14.6589 1.03796 14.659 1.03796C14.6591 1.03796 14.6591 1.03796 14.6592 1.03796C14.6593 1.03796 14.6593 1.03796 14.6594 1.03796C14.6595 1.03796 14.6595 1.03796 14.6596 1.03796C14.6597 1.03796 14.6597 1.03796 14.6598 1.03796C14.6598 1.03796 14.6599 1.03796 14.66 1.03796C14.66 1.03796 14.6601 1.03796 14.6602 1.03796C14.6602 1.03796 14.6603 1.03796 14.6604 1.03796C14.6604 1.03796 14.6605 1.03796 14.6606 1.03796C14.6606 1.03796 14.6607 1.03796 14.6608 1.03796C14.6608 1.03796 14.6609 1.03796 14.661 1.03796C14.661 1.03796 14.6611 1.03796 14.6612 1.03796C14.6612 1.03796 14.6613 1.03796 14.6614 1.03796C14.6614 1.03796 14.6615 1.03796 14.6616 1.03796C14.6616 1.03796 14.6617 1.03796 14.6618 1.03796C14.6618 1.03796 14.6619 1.03796 14.662 1.03796C14.662 1.03796 14.6621 1.03796 14.6622 1.03796C14.6622 1.03796 14.6623 1.03796 14.6624 1.03796C14.6624 1.03796 14.6625 1.03796 14.6626 1.03796C14.6626 1.03796 14.6627 1.03796 14.6628 1.03796C14.6628 1.03796 14.6629 1.03796 14.6629 1.03796C14.663 1.03796 14.6631 1.03796 14.6631 1.03796C14.6632 1.03796 14.6633 1.03796 14.6633 1.03796C14.6634 1.03796 14.6635 1.03796 14.6635 1.03796C14.6636 1.03796 14.6637 1.03796 14.6637 1.03796C14.6638 1.03796 14.6639 1.03796 14.6639 1.03796C14.664 1.03796 14.6641 1.03796 14.6641 1.03796C14.6642 1.03796 14.6643 1.03796 14.6643 1.03796C14.6644 1.03796 14.6645 1.03796 14.6645 1.03796C14.6646 1.03796 14.6647 1.03796 14.6647 1.03796C14.6648 1.03796 14.6649 1.03796 14.6649 1.03796C14.665 1.03796 14.6651 1.03796 14.6651 1.03796C14.6652 1.03796 14.6653 1.03796 14.6653 1.03796C14.6654 1.03796 14.6655 1.03796 14.6655 1.03796C14.6656 1.03796 14.6657 1.03796 14.6657 1.03796C14.6658 1.03796 14.6658 1.03796 14.6659 1.03796C14.666 1.03796 14.666 1.03796 14.6661 1.03796C14.6662 1.03796 14.6662 1.03796 14.6663 1.03796C14.6664 1.03796 14.6664 1.03796 14.6665 1.03796C14.6666 1.03796 14.6666 1.03796 14.6667 1.03796C14.6668 1.03796 14.6668 1.03796 14.6669 1.03796C14.667 1.03796 14.667 1.03796 14.6671 1.03796C14.6672 1.03796 14.6672 1.03796 14.6673 1.03796C14.6674 1.03796 14.6674 1.03796 14.6675 1.03796C14.6676 1.03796 14.6676 1.03796 14.6677 1.03796C14.6678 1.03796 14.6678 1.03796 14.6679 1.03796C14.668 1.03796 14.668 1.03796 14.6681 1.03796C14.6682 1.03796 14.6682 1.03796 14.6683 1.03796C14.6684 1.03796 14.6684 1.03796 14.6685 1.03796C14.6686 1.03796 14.6686 1.03796 14.6687 1.03796C14.6687 1.03796 14.6688 1.03796 14.6689 1.03796C14.6689 1.03796 14.669 1.03796 14.6691 1.03796C14.6691 1.03796 14.6692 1.03796 14.6693 1.03796C14.6693 1.03796 14.6694 1.03796 14.6695 1.03796C14.6695 1.03796 14.6696 1.03796 14.6697 1.03796C14.6697 1.03796 14.6698 1.03796 14.6699 1.03796C14.6699 1.03796 14.67 1.03796 14.6701 1.03796C14.6701 1.03796 14.6702 1.03796 14.6703 1.03796C14.6703 1.03796 14.6704 1.03796 14.6705 1.03796C14.6705 1.03796 14.6706 1.03796 14.6707 1.03796C14.6707 1.03796 14.6708 1.03796 14.6709 1.03796C14.6709 1.03796 14.671 1.03796 14.6711 1.03796C14.6711 1.03796 14.6712 1.03796 14.6713 1.03796C14.6713 1.03796 14.6714 1.03796 14.6715 1.03796C14.6715 1.03796 14.6716 1.03796 14.6716 1.03796C14.6717 1.03796 14.6718 1.03796 14.6718 1.03796C14.6719 1.03796 14.672 1.03796 14.672 1.03796C14.6721 1.03796 14.6722 1.03796 14.6722 1.03796C14.6723 1.03796 14.6724 1.03796 14.6724 1.03796C14.6725 1.03796 14.6726 1.03796 14.6726 1.03796C14.6727 1.03796 14.6728 1.03796 14.6728 1.03796C14.6729 1.03796 14.673 1.03796 14.673 1.03796C14.6731 1.03796 14.6732 1.03796 14.6732 1.03796C14.6733 1.03796 14.6734 1.03796 14.6734 1.03796C14.6735 1.03796 14.6736 1.03796 14.6736 1.03796C14.6737 1.03796 14.6738 1.03796 14.6738 1.03796C14.6739 1.03796 14.674 1.03796 14.674 1.03796C14.6741 1.03796 14.6742 1.03796 14.6742 1.03796C14.6743 1.03796 14.6744 1.03796 14.6744 1.03796C14.6745 1.03796 14.6746 1.03796 14.6746 1.03796C14.6747 1.03796 14.6747 1.03796 14.6748 1.03796C14.6749 1.03796 14.6749 1.03796 14.675 1.03796C14.6751 1.03796 14.6751 1.03796 14.6752 1.03796C14.6753 1.03796 14.6753 1.03796 14.6754 1.03796C14.6755 1.03796 14.6755 1.03796 14.6756 1.03796C14.6757 1.03796 14.6757 1.03796 14.6758 1.03796C14.6759 1.03796 14.6759 1.03796 14.676 1.03796C14.6761 1.03796 14.6761 1.03796 14.6762 1.03796C14.6763 1.03796 14.6763 1.03796 14.6764 1.03796C14.6765 1.03796 14.6765 1.03796 14.6766 1.03796C14.6767 1.03796 14.6767 1.03796 14.6768 1.03796C14.6769 1.03796 14.6769 1.03796 14.677 1.03796C14.6771 1.03796 14.6771 1.03796 14.6772 1.03796C14.6773 1.03796 14.6773 1.03796 14.6774 1.03796C14.6775 1.03796 14.6775 1.03796 14.6776 1.03796C14.6776 1.03796 14.6777 1.03796 14.6778 1.03796C14.6778 1.03796 14.6779 1.03796 14.678 1.03796C14.678 1.03796 14.6781 1.03796 14.6782 1.03796C14.6782 1.03796 14.6783 1.03796 14.6784 1.03796C14.6784 1.03796 14.6785 1.03796 14.6786 1.03796C14.6786 1.03796 14.6787 1.03796 14.6788 1.03796C14.6788 1.03796 14.6789 1.03796 14.679 1.03796C14.679 1.03796 14.6791 1.03796 14.6792 1.03796C14.6792 1.03796 14.6793 1.03796 14.6794 1.03796C14.6794 1.03796 14.6795 1.03796 14.6796 1.03796C14.6796 1.03796 14.6797 1.03796 14.6798 1.03796C14.6798 1.03796 14.6799 1.03796 14.68 1.03796C14.68 1.03796 14.6801 1.03796 14.6802 1.03796C14.6802 1.03796 14.6803 1.03796 14.6804 1.03796C14.6804 1.03796 14.6805 1.03796 14.6805 1.03796C14.6806 1.03796 14.6807 1.03796 14.6807 1.03796C14.6808 1.03796 14.6809 1.03796 14.6809 1.03796C14.681 1.03796 14.6811 1.03796 14.6811 1.03796C14.6812 1.03796 14.6813 1.03796 14.6813 1.03796C14.6814 1.03796 14.6815 1.03796 14.6815 1.03796C14.6816 1.03796 14.6817 1.03796 14.6817 1.03796C14.6818 1.03796 14.6819 1.03796 14.6819 1.03796C14.682 1.03796 14.6821 1.03796 14.6821 1.03796C14.6822 1.03796 14.6823 1.03796 14.6823 1.03796C14.6824 1.03796 14.6825 1.03796 14.6825 1.03796C14.6826 1.03796 14.6827 1.03796 14.6827 1.03796C14.6828 1.03796 14.6829 1.03796 14.6829 1.03796C14.683 1.03796 14.6831 1.03796 14.6831 1.03796C14.6832 1.03796 14.6833 1.03796 14.6833 1.03796C14.6834 1.03796 14.6835 1.03796 14.6835 1.03796C14.6836 1.03796 14.6836 1.03796 14.6837 1.03796C14.6838 1.03796 14.6838 1.03796 14.6839 1.03796C14.684 1.03796 14.684 1.03796 14.6841 1.03796C14.6842 1.03796 14.6842 1.03796 14.6843 1.03796C14.6844 1.03796 14.6844 1.03796 14.6845 1.03796C14.6846 1.03796 14.6846 1.03796 14.6847 1.03796C14.6848 1.03796 14.6848 1.03796 14.6849 1.03796C14.685 1.03796 14.685 1.03796 14.6851 1.03796C14.6852 1.03796 14.6852 1.03796 14.6853 1.03796C14.6854 1.03796 14.6854 1.03796 14.6855 1.03796C14.6856 1.03796 14.6856 1.03796 14.6857 1.03796C14.6858 1.03796 14.6858 1.03796 14.6859 1.03796C14.686 1.03796 14.686 1.03796 14.6861 1.03796C14.6862 1.03796 14.6862 1.03796 14.6863 1.03796C14.6864 1.03796 14.6864 1.03796 14.6865 1.03796C14.6865 1.03796 14.6866 1.03796 14.6867 1.03796C14.6867 1.03796 14.6868 1.03796 14.6869 1.03796C14.6869 1.03796 14.687 1.03796 14.6871 1.03796C14.6871 1.03796 14.6872 1.03796 14.6873 1.03796C14.6873 1.03796 14.6874 1.03796 14.6875 1.03796C14.6875 1.03796 14.6876 1.03796 14.6877 1.03796C14.6877 1.03796 14.6878 1.03796 14.6879 1.03796C14.6879 1.03796 14.688 1.03796 14.6881 1.03796C14.6881 1.03796 14.6882 1.03796 14.6883 1.03796C14.6883 1.03796 14.6884 1.03796 14.6885 1.03796C14.6885 1.03796 14.6886 1.03796 14.6887 1.03796C14.6887 1.03796 14.6888 1.03796 14.6889 1.03796C14.6889 1.03796 14.689 1.03796 14.6891 1.03796C14.6891 1.03796 14.6892 1.03796 14.6893 1.03796C14.6893 1.03796 14.6894 1.03796 14.6895 1.03796C14.6895 1.03796 14.6896 1.03796 14.6896 1.03796C14.6897 1.03796 14.6898 1.03796 14.6898 1.03796C14.6899 1.03796 14.69 1.03796 14.69 1.03796C14.6901 1.03796 14.6902 1.03796 14.6902 1.03796C14.6903 1.03796 14.6904 1.03796 14.6904 1.03796C14.6905 1.03796 14.6906 1.03796 14.6906 1.03796C14.6907 1.03796 14.6908 1.03796 14.6908 1.03796C14.6909 1.03796 14.691 1.03796 14.691 1.03796C14.6911 1.03796 14.6912 1.03796 14.6912 1.03796C14.6913 1.03796 14.6914 1.03796 14.6914 1.03796C14.6915 1.03796 14.6916 1.03796 14.6916 1.03796C14.6917 1.03796 14.6918 1.03796 14.6918 1.03796C14.6919 1.03796 14.692 1.03796 14.692 1.03796C14.6921 1.03796 14.6922 1.03796 14.6922 1.03796C14.6923 1.03796 14.6924 1.03796 14.6924 1.03796C14.6925 1.03796 14.6925 1.03796 14.6926 1.03796C14.6927 1.03796 14.6927 1.03796 14.6928 1.03796C14.6929 1.03796 14.6929 1.03796 14.693 1.03796C14.6931 1.03796 14.6931 1.03796 14.6932 1.03796C14.6933 1.03796 14.6933 1.03796 14.6934 1.03796C14.6935 1.03796 14.6935 1.03796 14.6936 1.03796C14.6937 1.03796 14.6937 1.03796 14.6938 1.03796C14.6939 1.03796 14.6939 1.03796 14.694 1.03796C14.6941 1.03796 14.6941 1.03796 14.6942 1.03796C14.6943 1.03796 14.6943 1.03796 14.6944 1.03796C14.6945 1.03796 14.6945 1.03796 14.6946 1.03796C14.6947 1.03796 14.6947 1.03796 14.6948 1.03796C14.6949 1.03796 14.6949 1.03796 14.695 1.03796C14.6951 1.03796 14.6951 1.03796 14.6952 1.03796C14.6953 1.03796 14.6953 1.03796 14.6954 1.03796C14.6954 1.03796 14.6955 1.03796 14.6956 1.03796C14.6956 1.03796 14.6957 1.03796 14.6958 1.03796C14.6958 1.03796 14.6959 1.03796 14.696 1.03796C14.696 1.03796 14.6961 1.03796 14.6962 1.03796C14.6962 1.03796 14.6963 1.03796 14.6964 1.03796C14.6964 1.03796 14.6965 1.03796 14.6966 1.03796C14.6966 1.03796 14.6967 1.03796 14.6968 1.03796C14.6968 1.03796 14.6969 1.03796 14.697 1.03796C14.697 1.03796 14.6971 1.03796 14.6972 1.03796C14.6972 1.03796 14.6973 1.03796 14.6974 1.03796C14.6974 1.03796 14.6975 1.03796 14.6976 1.03796C14.6976 1.03796 14.6977 1.03796 14.6978 1.03796C14.6978 1.03796 14.6979 1.03796 14.698 1.03796C14.698 1.03796 14.6981 1.03796 14.6982 1.03796C14.6982 1.03796 14.6983 1.03796 14.6983 1.03796C14.6984 1.03796 14.6985 1.03796 14.6985 1.03796C14.6986 1.03796 14.6987 1.03796 14.6987 1.03796C14.6988 1.03796 14.6989 1.03796 14.6989 1.03796C14.699 1.03796 14.6991 1.03796 14.6991 1.03796C14.6992 1.03796 14.6993 1.03796 14.6993 1.03796C14.6994 1.03796 14.6995 1.03796 14.6995 1.03796C14.6996 1.03796 14.6997 1.03796 14.6997 1.03796C14.6998 1.03796 14.6999 1.03796 14.6999 1.03796C14.7 1.03796 14.7001 1.03796 14.7001 1.03796C14.7002 1.03796 14.7003 1.03796 14.7003 1.03796C14.7004 1.03796 14.7005 1.03796 14.7005 1.03796C14.7006 1.03796 14.7007 1.03796 14.7007 1.03796C14.7008 1.03796 14.7009 1.03796 14.7009 1.03796C14.701 1.03796 14.7011 1.03796 14.7011 1.03796C14.7012 1.03796 14.7013 1.03796 14.7013 1.03796C14.7014 1.03796 14.7014 1.03796 14.7015 1.03796C14.7016 1.03796 14.7016 1.03796 14.7017 1.03796C14.7018 1.03796 14.7018 1.03796 14.7019 1.03796C14.702 1.03796 14.702 1.03796 14.7021 1.03796C14.7022 1.03796 14.7022 1.03796 14.7023 1.03796C14.7024 1.03796 14.7024 1.03796 14.7025 1.03796C14.7026 1.03796 14.7026 1.03796 14.7027 1.03796C14.7028 1.03796 14.7028 1.03796 14.7029 1.03796C14.703 1.03796 14.703 1.03796 14.7031 1.03796C14.7032 1.03796 14.7032 1.03796 14.7033 1.03796C14.7034 1.03796 14.7034 1.03796 14.7035 1.03796C14.7036 1.03796 14.7036 1.03796 14.7037 1.03796C14.7038 1.03796 14.7038 1.03796 14.7039 1.03796C14.704 1.03796 14.704 1.03796 14.7041 1.03796C14.7042 1.03796 14.7042 1.03796 14.7043 1.03796C14.7043 1.03796 14.7044 1.03796 14.7045 1.03796C14.7045 1.03796 14.7046 1.03796 14.7047 1.03796C14.7047 1.03796 14.7048 1.03796 14.7049 1.03796C14.7049 1.03796 14.705 1.03796 14.7051 1.03796C14.7051 1.03796 14.7052 1.03796 14.7053 1.03796C14.7053 1.03796 14.7054 1.03796 14.7055 1.03796C14.7055 1.03796 14.7056 1.03796 14.7057 1.03796C14.7057 1.03796 14.7058 1.03796 14.7059 1.03796C14.7059 1.03796 14.706 1.03796 14.7061 1.03796C14.7061 1.03796 14.7062 1.03796 14.7063 1.03796C14.7063 1.03796 14.7064 1.03796 14.7065 1.03796C14.7065 1.03796 14.7066 1.03796 14.7067 1.03796C14.7067 1.03796 14.7068 1.03796 14.7069 1.03796C14.7069 1.03796 14.707 1.03796 14.7071 1.03796C14.7071 1.03796 14.7072 1.03796 14.7072 1.03796C14.7073 1.03796 14.7074 1.03796 14.7074 1.03796C14.7075 1.03796 14.7076 1.03796 14.7076 1.03796C14.7077 1.03796 14.7078 1.03796 14.7078 1.03796C14.7079 1.03796 14.708 1.03796 14.708 1.03796C14.7081 1.03796 14.7082 1.03796 14.7082 1.03796C14.7083 1.03796 14.7084 1.03796 14.7084 1.03796C14.7085 1.03796 14.7086 1.03796 14.7086 1.03796C14.7087 1.03796 14.7088 1.03796 14.7088 1.03796C14.7089 1.03796 14.709 1.03796 14.709 1.03796C14.7091 1.03796 14.7092 1.03796 14.7092 1.03796C14.7093 1.03796 14.7094 1.03796 14.7094 1.03796C14.7095 1.03796 14.7096 1.03796 14.7096 1.03796C14.7097 1.03796 14.7098 1.03796 14.7098 1.03796C14.7099 1.03796 14.71 1.03796 14.71 1.03796C14.7101 1.03796 14.7102 1.03796 14.7102 1.03796C14.7103 1.03796 14.7103 1.03796 14.7104 1.03796C14.7105 1.03796 14.7105 1.03796 14.7106 1.03796C14.7107 1.03796 14.7107 1.03796 14.7108 1.03796C14.7109 1.03796 14.7109 1.03796 14.711 1.03796C14.7111 1.03796 14.7111 1.03796 14.7112 1.03796C14.7113 1.03796 14.7113 1.03796 14.7114 1.03796C14.7115 1.03796 14.7115 1.03796 14.7116 1.03796C14.7117 1.03796 14.7117 1.03796 14.7118 1.03796C14.7119 1.03796 14.7119 1.03796 14.712 1.03796C14.7121 1.03796 14.7121 1.03796 14.7122 1.03796C14.7123 1.03796 14.7123 1.03796 14.7124 1.03796C14.7125 1.03796 14.7125 1.03796 14.7126 1.03796C14.7127 1.03796 14.7127 1.03796 14.7128 1.03796C14.7129 1.03796 14.7129 1.03796 14.713 1.03796C14.7131 1.03796 14.7131 1.03796 14.7132 1.03796C14.7132 1.03796 14.7133 1.03796 14.7134 1.03796C14.7134 1.03796 14.7135 1.03796 14.7136 1.03796C14.7136 1.03796 14.7137 1.03796 14.7138 1.03796C14.7138 1.03796 14.7139 1.03796 14.714 1.03796C14.714 1.03796 14.7141 1.03796 14.7142 1.03796C14.7142 1.03796 14.7143 1.03796 14.7144 1.03796V0.0379608ZM14.6571 0.039897C14.3918 0.0164876 14.1177 0.0137891 13.9422 0.00441235L13.8889 1.00299C14.1409 1.01645 14.3168 1.01375 14.5691 1.03602L14.6571 0.039897ZM13.9236 0.00376612C10.363 -0.0539659 7.22007 0.541513 5.23124 1.80622L5.76784 2.65006C7.51445 1.53938 10.4247 0.947165 13.9074 1.00363L13.9236 0.00376612ZM4.99954 2.22814V9.08022H5.99954V2.22814H4.99954ZM5.23859 9.50672C6.41455 10.2262 7.70795 11.2197 8.62413 12.283C9.56332 13.3731 9.99164 14.3989 9.75514 15.2369L10.7175 15.5085C11.0999 14.1538 10.3637 12.77 9.38171 11.6303C8.37673 10.4639 6.99232 9.40741 5.76049 8.65372L5.23859 9.50672ZM9.75751 15.2288C9.60488 15.7366 9.7346 16.2296 10.0765 16.5695C10.4072 16.8983 10.891 17.0422 11.3917 16.9891L11.2862 15.9947C11.0331 16.0215 10.8644 15.9427 10.7816 15.8604C10.71 15.7892 10.6653 15.6826 10.7152 15.5166L9.75751 15.2288ZM11.395 16.9887C12.6408 16.8482 13.3751 15.6172 13.4139 14.4761L12.4144 14.4421C12.3857 15.2881 11.8599 15.93 11.2829 15.995L11.395 16.9887ZM13.4138 14.4788C13.4617 13.2634 13.2344 12.0426 12.8185 10.957L11.8847 11.3147C12.2563 12.2847 12.4567 13.3708 12.4145 14.4394L13.4138 14.4788ZM12.8455 11.058C12.8421 11.0363 12.8401 11.0174 12.8392 11.0012C12.8382 10.985 12.8385 10.9729 12.8392 10.9646C12.8406 10.9468 12.843 10.9539 12.8327 10.9733C12.8273 10.9835 12.8193 10.9952 12.8085 11.0065C12.7977 11.0179 12.7869 11.0259 12.7784 11.0309C12.7615 11.0408 12.7649 11.0326 12.81 11.0288L12.7258 10.0324C12.3965 10.0602 12.1062 10.2089 11.9493 10.5047C11.8144 10.7589 11.8292 11.0328 11.8577 11.2137L12.8455 11.058ZM12.7989 11.0296C13.3459 10.9956 14.04 10.9615 14.578 10.9388L14.5357 9.93966C13.9936 9.96259 13.2925 9.99701 12.7369 10.0315L12.7989 11.0296ZM14.5569 10.9392C14.8613 10.9392 15.1523 10.9273 15.4218 10.9159L15.3796 9.91682C15.109 9.92826 14.8375 9.93921 14.5569 9.93921V10.9392ZM15.4007 10.9164H15.412V9.91637H15.4007V10.9164ZM15.4367 10.9158C15.9058 10.8925 16.3574 10.8575 16.7444 10.8099L16.6223 9.81734C16.2667 9.86108 15.8407 9.89453 15.3872 9.91699L15.4367 10.9158ZM16.7481 10.8094C17.2059 10.7496 17.6654 10.5922 18.0355 10.3339C18.4071 10.0746 18.7188 9.68929 18.7877 9.18181L17.7968 9.04715C17.7758 9.20204 17.6768 9.36484 17.4633 9.51384C17.2484 9.66382 16.9484 9.77477 16.6186 9.8178L16.7481 10.8094ZM18.7877 9.18181C18.8576 8.66735 18.6558 8.22897 18.308 7.92455C17.9756 7.63365 17.5237 7.47218 17.0552 7.4186L16.9416 8.41213C17.2719 8.44991 17.512 8.55682 17.6494 8.67704C17.7713 8.78374 17.8169 8.89924 17.7968 9.04715L18.7877 9.18181ZM17.0979 7.42536C17.0382 7.41326 16.9791 7.40835 16.9543 7.40606C16.9173 7.40264 16.9145 7.40184 16.9178 7.40252L16.7189 8.38253C16.7785 8.39463 16.8376 8.39954 16.8624 8.40183C16.8995 8.40525 16.9023 8.40605 16.8989 8.40537L17.0979 7.42536ZM16.8482 8.39164C17.0586 8.37907 17.2547 8.35402 17.4326 8.33145L17.3067 7.3394C17.1246 7.3625 16.9607 7.38314 16.7886 7.39341L16.8482 8.39164ZM17.4257 8.33227C17.8959 8.27925 18.3636 8.12545 18.7379 7.86732C19.1142 7.60781 19.4255 7.21876 19.4864 6.70677L18.4934 6.58869C18.4755 6.73907 18.3817 6.89819 18.1702 7.04409C17.9566 7.19137 17.6536 7.30023 17.3136 7.33857L17.4257 8.33227Z" fill="#0D2159"/>
</svg>
