<svg width="304" height="49" viewBox="0 0 304 49" fill="none" xmlns="http://www.w3.org/2000/svg">
<g filter="url(#filter0_d_4459_3633)">
<rect x="2" y="1.5" width="300" height="44" rx="8" fill="white"/>
<rect x="2.5" y="2" width="299" height="43" rx="7.5" stroke="#D8DAE5"/>
<g clip-path="url(#clip0_4459_3633)">
<path d="M95.7663 23.7764C95.7663 22.9607 95.7001 22.1406 95.559 21.3381H84.2402V25.9591H90.722C90.453 27.4494 89.5888 28.7678 88.3233 29.6056V32.6039H92.1903C94.4611 30.5139 95.7663 27.4274 95.7663 23.7764Z" fill="#4285F4"/>
<path d="M84.2401 35.5008C87.4766 35.5008 90.2059 34.4382 92.1945 32.6039L88.3276 29.6055C87.2517 30.3375 85.8627 30.752 84.2445 30.752C81.1139 30.752 78.4595 28.6399 77.507 25.8003H73.5166V28.8912C75.5537 32.9434 79.7029 35.5008 84.2401 35.5008Z" fill="#34A853"/>
<path d="M77.5028 25.8003C77.0001 24.3099 77.0001 22.6961 77.5028 21.2057V18.1148H73.5167C71.8147 21.5056 71.8147 25.5004 73.5167 28.8912L77.5028 25.8003Z" fill="#FBBC04"/>
<path d="M84.2401 16.2497C85.9509 16.2232 87.6044 16.867 88.8434 18.0487L92.2695 14.6226C90.1001 12.5855 87.2208 11.4655 84.2401 11.5008C79.7029 11.5008 75.5537 14.0582 73.5166 18.1148L77.5026 21.2058C78.4506 18.3617 81.1095 16.2497 84.2401 16.2497Z" fill="#EA4335"/>
</g>
<path d="M109.233 28.5V18.3182H110.466V27.4062H115.199V28.5H109.233ZM120.051 28.6591C119.362 28.6591 118.757 28.495 118.237 28.1669C117.719 27.8388 117.315 27.3797 117.023 26.7898C116.735 26.1998 116.591 25.5104 116.591 24.7216C116.591 23.9261 116.735 23.2318 117.023 22.6385C117.315 22.0452 117.719 21.5845 118.237 21.2564C118.757 20.9283 119.362 20.7642 120.051 20.7642C120.741 20.7642 121.344 20.9283 121.861 21.2564C122.381 21.5845 122.786 22.0452 123.074 22.6385C123.366 23.2318 123.511 23.9261 123.511 24.7216C123.511 25.5104 123.366 26.1998 123.074 26.7898C122.786 27.3797 122.381 27.8388 121.861 28.1669C121.344 28.495 120.741 28.6591 120.051 28.6591ZM120.051 27.6051C120.575 27.6051 121.006 27.4709 121.344 27.2024C121.682 26.9339 121.932 26.581 122.094 26.1435C122.257 25.706 122.338 25.232 122.338 24.7216C122.338 24.2112 122.257 23.7356 122.094 23.2947C121.932 22.8539 121.682 22.4976 121.344 22.2259C121.006 21.9541 120.575 21.8182 120.051 21.8182C119.527 21.8182 119.097 21.9541 118.759 22.2259C118.42 22.4976 118.17 22.8539 118.008 23.2947C117.845 23.7356 117.764 24.2112 117.764 24.7216C117.764 25.232 117.845 25.706 118.008 26.1435C118.17 26.581 118.42 26.9339 118.759 27.2024C119.097 27.4709 119.527 27.6051 120.051 27.6051ZM128.385 31.5227C127.818 31.5227 127.331 31.4498 126.923 31.304C126.515 31.1615 126.176 30.9725 125.904 30.7372C125.635 30.5052 125.422 30.2566 125.263 29.9915L126.197 29.3352C126.303 29.4744 126.438 29.6335 126.6 29.8125C126.762 29.9948 126.984 30.1522 127.266 30.2848C127.551 30.4207 127.924 30.4886 128.385 30.4886C129.001 30.4886 129.51 30.3395 129.911 30.0412C130.312 29.7429 130.513 29.2756 130.513 28.6392V27.0881H130.413C130.327 27.2273 130.204 27.3996 130.045 27.6051C129.89 27.8073 129.664 27.9879 129.369 28.147C129.077 28.3028 128.683 28.3807 128.186 28.3807C127.569 28.3807 127.016 28.2348 126.525 27.9432C126.038 27.6515 125.652 27.2273 125.367 26.6705C125.085 26.1136 124.944 25.4375 124.944 24.642C124.944 23.8598 125.082 23.1787 125.357 22.5987C125.632 22.0154 126.015 21.5646 126.506 21.2464C126.996 20.925 127.563 20.7642 128.206 20.7642C128.703 20.7642 129.097 20.8471 129.389 21.0128C129.684 21.1752 129.909 21.3608 130.065 21.5696C130.224 21.7751 130.347 21.9441 130.433 22.0767H130.552V20.8636H131.686V28.7188C131.686 29.375 131.537 29.9086 131.238 30.3196C130.943 30.7339 130.546 31.0372 130.045 31.2294C129.548 31.425 128.995 31.5227 128.385 31.5227ZM128.345 27.3267C128.816 27.3267 129.213 27.219 129.538 27.0036C129.863 26.7881 130.11 26.4782 130.279 26.0739C130.448 25.6695 130.532 25.1856 130.532 24.6222C130.532 24.072 130.45 23.5864 130.284 23.1655C130.118 22.7446 129.873 22.4148 129.548 22.1761C129.223 21.9375 128.822 21.8182 128.345 21.8182C127.848 21.8182 127.434 21.9441 127.102 22.196C126.774 22.4479 126.527 22.786 126.361 23.2102C126.199 23.6345 126.118 24.1051 126.118 24.6222C126.118 25.1525 126.201 25.6214 126.366 26.0291C126.535 26.4335 126.784 26.7517 127.112 26.9837C127.443 27.2124 127.854 27.3267 128.345 27.3267ZM137.771 28.5V20.8636H138.944V28.5H137.771ZM138.368 19.5909C138.139 19.5909 137.942 19.513 137.776 19.3572C137.614 19.2015 137.532 19.0142 137.532 18.7955C137.532 18.5767 137.614 18.3894 137.776 18.2337C137.942 18.0779 138.139 18 138.368 18C138.596 18 138.792 18.0779 138.954 18.2337C139.12 18.3894 139.203 18.5767 139.203 18.7955C139.203 19.0142 139.12 19.2015 138.954 19.3572C138.792 19.513 138.596 19.5909 138.368 19.5909ZM142.267 23.9062V28.5H141.093V20.8636H142.227V22.0568H142.326C142.505 21.669 142.777 21.3575 143.142 21.1222C143.506 20.8835 143.977 20.7642 144.554 20.7642C145.071 20.7642 145.523 20.8703 145.911 21.0824C146.299 21.2912 146.6 21.6094 146.816 22.0369C147.031 22.4612 147.139 22.9981 147.139 23.6477V28.5H145.966V23.7273C145.966 23.1274 145.81 22.66 145.498 22.3253C145.187 21.9872 144.759 21.8182 144.216 21.8182C143.841 21.8182 143.506 21.8994 143.211 22.0618C142.92 22.2242 142.689 22.4612 142.52 22.7727C142.351 23.0843 142.267 23.4621 142.267 23.9062ZM154.95 28.5L152.624 20.8636H153.857L155.507 26.7102H155.587L157.218 20.8636H158.47L160.081 26.6903H160.161L161.811 20.8636H163.044L160.718 28.5H159.564L157.894 22.6335H157.774L156.104 28.5H154.95ZM164.595 28.5V20.8636H165.769V28.5H164.595ZM165.192 19.5909C164.963 19.5909 164.766 19.513 164.6 19.3572C164.438 19.2015 164.357 19.0142 164.357 18.7955C164.357 18.5767 164.438 18.3894 164.6 18.2337C164.766 18.0779 164.963 18 165.192 18C165.421 18 165.616 18.0779 165.779 18.2337C165.944 18.3894 166.027 18.5767 166.027 18.7955C166.027 19.0142 165.944 19.2015 165.779 19.3572C165.616 19.513 165.421 19.5909 165.192 19.5909ZM171.239 20.8636V21.858H167.281V20.8636H171.239ZM168.435 19.0341H169.608V26.3125C169.608 26.6439 169.656 26.8925 169.752 27.0582C169.852 27.2206 169.978 27.33 170.13 27.3864C170.286 27.4394 170.45 27.4659 170.622 27.4659C170.751 27.4659 170.857 27.4593 170.94 27.446C171.023 27.4295 171.089 27.4162 171.139 27.4062L171.378 28.4602C171.298 28.4901 171.187 28.5199 171.045 28.5497C170.902 28.5829 170.722 28.5994 170.503 28.5994C170.171 28.5994 169.847 28.5282 169.528 28.3857C169.214 28.2431 168.952 28.026 168.743 27.7344C168.537 27.4427 168.435 27.0748 168.435 26.6307V19.0341ZM174.341 23.9062V28.5H173.168V18.3182H174.341V22.0568H174.44C174.619 21.6624 174.888 21.3492 175.246 21.1172C175.607 20.8819 176.088 20.7642 176.688 20.7642C177.208 20.7642 177.664 20.8686 178.055 21.0774C178.446 21.2829 178.749 21.5994 178.964 22.027C179.183 22.4512 179.293 22.9915 179.293 23.6477V28.5H178.119V23.7273C178.119 23.1207 177.962 22.6518 177.647 22.3203C177.335 21.9856 176.903 21.8182 176.349 21.8182C175.965 21.8182 175.62 21.8994 175.315 22.0618C175.014 22.2242 174.775 22.4612 174.599 22.7727C174.427 23.0843 174.341 23.4621 174.341 23.9062ZM192.496 21.5C192.387 21.1652 192.242 20.8653 192.063 20.6001C191.888 20.3317 191.677 20.103 191.432 19.9141C191.19 19.7251 190.915 19.581 190.607 19.4815C190.298 19.3821 189.96 19.3324 189.593 19.3324C188.989 19.3324 188.441 19.4882 187.947 19.7997C187.453 20.1113 187.06 20.5703 186.769 21.1768C186.477 21.7834 186.331 22.5275 186.331 23.4091C186.331 24.2907 186.479 25.0348 186.774 25.6413C187.069 26.2479 187.468 26.7069 187.972 27.0185C188.476 27.33 189.042 27.4858 189.672 27.4858C190.255 27.4858 190.769 27.3615 191.213 27.1129C191.661 26.861 192.009 26.5064 192.257 26.049C192.509 25.5883 192.635 25.0464 192.635 24.4233L193.013 24.5028H189.95V23.4091H193.828V24.5028C193.828 25.3414 193.649 26.0705 193.291 26.6903C192.937 27.3101 192.446 27.7907 191.82 28.1321C191.197 28.4702 190.481 28.6392 189.672 28.6392C188.771 28.6392 187.978 28.4271 187.296 28.0028C186.616 27.5786 186.086 26.9754 185.705 26.1932C185.327 25.411 185.138 24.483 185.138 23.4091C185.138 22.6037 185.246 21.8795 185.461 21.2365C185.68 20.5902 185.988 20.04 186.386 19.5859C186.784 19.1319 187.254 18.7839 187.798 18.5419C188.341 18.3 188.94 18.179 189.593 18.179C190.129 18.179 190.63 18.2602 191.094 18.4226C191.561 18.5817 191.977 18.8087 192.342 19.1037C192.71 19.3954 193.016 19.745 193.262 20.1527C193.507 20.5571 193.676 21.0062 193.769 21.5H192.496ZM198.883 28.6591C198.194 28.6591 197.589 28.495 197.069 28.1669C196.551 27.8388 196.147 27.3797 195.855 26.7898C195.567 26.1998 195.423 25.5104 195.423 24.7216C195.423 23.9261 195.567 23.2318 195.855 22.6385C196.147 22.0452 196.551 21.5845 197.069 21.2564C197.589 20.9283 198.194 20.7642 198.883 20.7642C199.573 20.7642 200.176 20.9283 200.693 21.2564C201.213 21.5845 201.618 22.0452 201.906 22.6385C202.198 23.2318 202.343 23.9261 202.343 24.7216C202.343 25.5104 202.198 26.1998 201.906 26.7898C201.618 27.3797 201.213 27.8388 200.693 28.1669C200.176 28.495 199.573 28.6591 198.883 28.6591ZM198.883 27.6051C199.407 27.6051 199.838 27.4709 200.176 27.2024C200.514 26.9339 200.764 26.581 200.926 26.1435C201.089 25.706 201.17 25.232 201.17 24.7216C201.17 24.2112 201.089 23.7356 200.926 23.2947C200.764 22.8539 200.514 22.4976 200.176 22.2259C199.838 21.9541 199.407 21.8182 198.883 21.8182C198.359 21.8182 197.929 21.9541 197.591 22.2259C197.252 22.4976 197.002 22.8539 196.84 23.2947C196.677 23.7356 196.596 24.2112 196.596 24.7216C196.596 25.232 196.677 25.706 196.84 26.1435C197.002 26.581 197.252 26.9339 197.591 27.2024C197.929 27.4709 198.359 27.6051 198.883 27.6051ZM207.237 28.6591C206.547 28.6591 205.942 28.495 205.422 28.1669C204.905 27.8388 204.501 27.3797 204.209 26.7898C203.921 26.1998 203.776 25.5104 203.776 24.7216C203.776 23.9261 203.921 23.2318 204.209 22.6385C204.501 22.0452 204.905 21.5845 205.422 21.2564C205.942 20.9283 206.547 20.7642 207.237 20.7642C207.926 20.7642 208.529 20.9283 209.046 21.2564C209.567 21.5845 209.971 22.0452 210.259 22.6385C210.551 23.2318 210.697 23.9261 210.697 24.7216C210.697 25.5104 210.551 26.1998 210.259 26.7898C209.971 27.3797 209.567 27.8388 209.046 28.1669C208.529 28.495 207.926 28.6591 207.237 28.6591ZM207.237 27.6051C207.76 27.6051 208.191 27.4709 208.529 27.2024C208.867 26.9339 209.118 26.581 209.28 26.1435C209.442 25.706 209.524 25.232 209.524 24.7216C209.524 24.2112 209.442 23.7356 209.28 23.2947C209.118 22.8539 208.867 22.4976 208.529 22.2259C208.191 21.9541 207.76 21.8182 207.237 21.8182C206.713 21.8182 206.282 21.9541 205.944 22.2259C205.606 22.4976 205.356 22.8539 205.193 23.2947C205.031 23.7356 204.95 24.2112 204.95 24.7216C204.95 25.232 205.031 25.706 205.193 26.1435C205.356 26.581 205.606 26.9339 205.944 27.2024C206.282 27.4709 206.713 27.6051 207.237 27.6051ZM215.57 31.5227C215.004 31.5227 214.516 31.4498 214.109 31.304C213.701 31.1615 213.361 30.9725 213.089 30.7372C212.821 30.5052 212.607 30.2566 212.448 29.9915L213.383 29.3352C213.489 29.4744 213.623 29.6335 213.786 29.8125C213.948 29.9948 214.17 30.1522 214.452 30.2848C214.737 30.4207 215.11 30.4886 215.57 30.4886C216.187 30.4886 216.696 30.3395 217.097 30.0412C217.498 29.7429 217.698 29.2756 217.698 28.6392V27.0881H217.599C217.513 27.2273 217.39 27.3996 217.231 27.6051C217.075 27.8073 216.85 27.9879 216.555 28.147C216.263 28.3028 215.869 28.3807 215.371 28.3807C214.755 28.3807 214.201 28.2348 213.711 27.9432C213.224 27.6515 212.838 27.2273 212.553 26.6705C212.271 26.1136 212.13 25.4375 212.13 24.642C212.13 23.8598 212.268 23.1787 212.543 22.5987C212.818 22.0154 213.201 21.5646 213.691 21.2464C214.182 20.925 214.748 20.7642 215.391 20.7642C215.888 20.7642 216.283 20.8471 216.575 21.0128C216.87 21.1752 217.095 21.3608 217.251 21.5696C217.41 21.7751 217.532 21.9441 217.619 22.0767H217.738V20.8636H218.871V28.7188C218.871 29.375 218.722 29.9086 218.424 30.3196C218.129 30.7339 217.731 31.0372 217.231 31.2294C216.734 31.425 216.18 31.5227 215.57 31.5227ZM215.531 27.3267C216.001 27.3267 216.399 27.219 216.724 27.0036C217.049 26.7881 217.295 26.4782 217.464 26.0739C217.634 25.6695 217.718 25.1856 217.718 24.6222C217.718 24.072 217.635 23.5864 217.469 23.1655C217.304 22.7446 217.058 22.4148 216.734 22.1761C216.409 21.9375 216.008 21.8182 215.531 21.8182C215.033 21.8182 214.619 21.9441 214.288 22.196C213.96 22.4479 213.713 22.786 213.547 23.2102C213.384 23.6345 213.303 24.1051 213.303 24.6222C213.303 25.1525 213.386 25.6214 213.552 26.0291C213.721 26.4335 213.969 26.7517 214.298 26.9837C214.629 27.2124 215.04 27.3267 215.531 27.3267ZM222.192 18.3182V28.5H221.019V18.3182H222.192ZM227.543 28.6591C226.807 28.6591 226.173 28.4967 225.639 28.1719C225.109 27.8438 224.699 27.3864 224.411 26.7997C224.126 26.2098 223.983 25.5237 223.983 24.7415C223.983 23.9593 224.126 23.2699 224.411 22.6733C224.699 22.0734 225.1 21.6061 225.614 21.2713C226.131 20.9332 226.734 20.7642 227.424 20.7642C227.822 20.7642 228.214 20.8305 228.602 20.9631C228.99 21.0956 229.343 21.3111 229.661 21.6094C229.979 21.9044 230.233 22.2955 230.422 22.7827C230.611 23.2699 230.705 23.8698 230.705 24.5824V25.0795H224.819V24.0653H229.512C229.512 23.6345 229.426 23.25 229.253 22.9119C229.084 22.5739 228.842 22.3071 228.528 22.1115C228.216 21.916 227.848 21.8182 227.424 21.8182C226.956 21.8182 226.552 21.9342 226.211 22.1662C225.873 22.3949 225.613 22.6932 225.43 23.0611C225.248 23.429 225.157 23.8234 225.157 24.2443V24.9205C225.157 25.4972 225.256 25.986 225.455 26.3871C225.657 26.7848 225.937 27.0881 226.295 27.2969C226.653 27.5024 227.069 27.6051 227.543 27.6051C227.851 27.6051 228.13 27.562 228.378 27.4759C228.63 27.3864 228.847 27.2538 229.03 27.0781C229.212 26.8991 229.353 26.6771 229.452 26.4119L230.586 26.7301C230.466 27.1146 230.266 27.4527 229.984 27.7443C229.702 28.0327 229.354 28.258 228.94 28.4205C228.526 28.5795 228.06 28.6591 227.543 28.6591Z" fill="#1E1E1E"/>
</g>
<defs>
<filter id="filter0_d_4459_3633" x="0" y="0.5" width="304" height="48" filterUnits="userSpaceOnUse" color-interpolation-filters="sRGB">
<feFlood flood-opacity="0" result="BackgroundImageFix"/>
<feColorMatrix in="SourceAlpha" type="matrix" values="0 0 0 0 0 0 0 0 0 0 0 0 0 0 0 0 0 0 127 0" result="hardAlpha"/>
<feOffset dy="1"/>
<feGaussianBlur stdDeviation="1"/>
<feColorMatrix type="matrix" values="0 0 0 0 0.0627451 0 0 0 0 0.0941176 0 0 0 0 0.156863 0 0 0 0.05 0"/>
<feBlend mode="normal" in2="BackgroundImageFix" result="effect1_dropShadow_4459_3633"/>
<feBlend mode="normal" in="SourceGraphic" in2="effect1_dropShadow_4459_3633" result="shape"/>
</filter>
<clipPath id="clip0_4459_3633">
<rect width="24" height="24" fill="white" transform="translate(72 11.5)"/>
</clipPath>
</defs>
</svg>
