<svg width="12" height="16" viewBox="0 0 12 16" fill="none" xmlns="http://www.w3.org/2000/svg">
<path d="M11.4297 15.4047L11.4282 15.4037L7.13009 12.4654C7.12987 12.4652 7.12964 12.4651 7.12941 12.4649C6.79693 12.2361 6.38539 12.1372 6 12.1372C5.61461 12.1372 5.20308 12.2361 4.87059 12.4649C4.87036 12.4651 4.87013 12.4652 4.86991 12.4654L0.574283 15.402C0.547306 15.4199 0.522508 15.4348 0.5 15.447V0.829817C0.5 0.819563 0.506521 0.751397 0.634515 0.663771C0.759122 0.578463 0.957651 0.509998 1.1985 0.509998H1.42322C1.45966 0.509998 1.49186 0.50686 1.51946 0.50261C1.52489 0.501772 1.53016 0.500885 1.5351 0.5H10.4499C10.4549 0.500885 10.4601 0.501772 10.4656 0.50261C10.4932 0.50686 10.5254 0.509998 10.5618 0.509998H10.7865C11.0269 0.509998 11.2264 0.578251 11.354 0.664896C11.4775 0.748733 11.4975 0.819381 11.5 0.842613V15.4487C11.4786 15.4368 11.4552 15.4223 11.4297 15.4047Z" stroke="#3366FF"/>
</svg>
