<svg width="24" height="25" viewBox="0 0 24 25" fill="none" xmlns="http://www.w3.org/2000/svg">
<path d="M19.3818 13.1585L19.3147 13.654L19.3171 13.6543L19.3818 13.1585ZM18.8305 13.1013L18.7471 12.6084L18.8007 13.6004L18.8305 13.1013ZM19.0105 13.0785L18.9537 12.5817L18.9322 12.5842L18.911 12.5885L19.0105 13.0785ZM18.6955 10.6788L18.7602 10.1829L18.7548 10.1823L18.6955 10.6788ZM17.4128 10.5759L17.3917 11.0755L17.4023 11.0759H17.4128V10.5759ZM16.569 10.5531L16.5479 11.0526L16.5584 11.0531H16.569V10.5531ZM14.78 10.4616L14.8222 9.96343L14.78 10.4616ZM14.3637 9.856L13.8968 9.67721L13.878 9.72629L13.8698 9.7782L14.3637 9.856ZM14.9263 6.53068L15.4259 6.511L15.4258 6.50754L14.9263 6.53068ZM13.3399 4.50806L13.3959 4.0112L13.3926 4.01085L13.3399 4.50806ZM12.226 5.62793L11.745 5.76439L11.7452 5.76528L12.226 5.62793ZM7.50044 11.9243L7.23848 11.4985L7.00044 11.6449V11.9243H7.50044ZM7.50044 18.7807H7.00044V19.0566L7.23386 19.2037L7.50044 18.7807ZM15.9164 20.4948V19.9947L15.9067 19.9949L15.9164 20.4948ZM16.614 20.4719V19.9719H16.603L16.5919 19.9724L16.614 20.4719ZM17.5366 20.4148L17.5741 20.9134L17.5794 20.9129L17.5366 20.4148ZM19.2243 19.1692L18.7251 19.1981L18.7255 19.2031L19.2243 19.1692ZM18.2454 18.1065L18.2079 17.6079L18.1007 18.585L18.2454 18.1065ZM19.1343 18.0379L19.1748 18.5363L19.1771 18.5361L19.1343 18.0379ZM20.4507 16.8495L19.9532 16.9001L19.9541 16.9075L20.4507 16.8495ZM18.8643 15.6268L18.9351 15.1318L18.8998 15.1268H18.8643V15.6268ZM18.7855 15.6153L18.7506 15.1166L18.7855 16.1153V15.6153ZM19.6969 15.5582L19.6754 15.0587L19.6651 15.0591L19.6547 15.06L19.6969 15.5582ZM3 11.3643V10.8643H2.5V11.3643H3ZM3 19.3634H2.5V19.8634H3V19.3634ZM21.4862 14.291C21.4173 13.7835 21.1057 13.3979 20.7341 13.1385C20.364 12.88 19.9045 12.7225 19.4466 12.6627L19.3171 13.6543C19.6468 13.6973 19.9467 13.8083 20.1616 13.9584C20.3751 14.1075 20.4742 14.2704 20.4953 14.4256L21.4862 14.291ZM19.4489 12.663C19.2754 12.6395 19.0699 12.6147 18.8603 12.6022L18.8007 13.6004C18.9736 13.6108 19.1507 13.6317 19.3147 13.654L19.4489 12.663ZM18.914 13.5943C18.927 13.5921 18.9398 13.5908 18.9729 13.5876C19.0004 13.5849 19.053 13.5801 19.1101 13.5685L18.911 12.5885C18.9118 12.5883 18.9082 12.5892 18.8766 12.5922C18.8506 12.5947 18.8015 12.5991 18.7471 12.6084L18.914 13.5943ZM19.0674 13.5752C19.5359 13.5216 19.9878 13.36 20.3202 13.069C20.668 12.7644 20.8698 12.3259 20.7999 11.8113L19.809 11.9459C19.8291 12.0942 19.7833 12.2099 19.6614 12.3167C19.524 12.437 19.284 12.5439 18.9537 12.5817L19.0674 13.5752ZM20.7999 11.8113C20.731 11.3038 20.4194 10.9182 20.0478 10.6588C19.6777 10.4003 19.2182 10.2428 18.7602 10.183L18.6308 11.1746C18.9604 11.2176 19.2604 11.3286 19.4753 11.4787C19.6888 11.6277 19.7879 11.7907 19.809 11.9459L20.7999 11.8113ZM18.7548 10.1823C18.3585 10.1349 17.9191 10.0998 17.4488 10.0765L17.3994 11.0753C17.8517 11.0977 18.2674 11.1312 18.6362 11.1752L18.7548 10.1823ZM17.4241 10.5759C17.4241 11.0759 17.4241 10.5759 17.4241 10.0759H17.4241C17.4241 10.0759 17.4241 10.0759 17.4241 10.0759C17.4241 10.0759 17.4241 10.0759 17.4241 10.0759H17.4241C17.4241 10.0759 17.4241 10.0759 17.4241 10.0759H17.4241C17.4241 10.0759 17.4241 10.0759 17.4241 10.0759C17.4241 10.0759 17.4241 10.0759 17.4241 10.0759H17.4241C17.4241 10.0759 17.4241 10.0759 17.4241 10.0759C17.4241 10.0759 17.4241 10.0759 17.4241 10.0759H17.4241C17.4241 10.0759 17.4241 10.0759 17.4241 10.0759C17.4241 10.0759 17.4241 10.0759 17.4241 10.0759H17.4241H17.4241C17.4241 10.0759 17.4241 10.0759 17.4241 10.0759C17.4241 10.0759 17.4241 10.0759 17.4241 10.0759C17.4241 10.0759 17.4241 10.0759 17.4241 10.0759C17.4241 10.0759 17.4241 10.0759 17.4241 10.0759C17.4241 10.0759 17.4241 10.0759 17.4241 10.0759C17.4241 10.0759 17.4241 10.0759 17.4241 10.0759C17.4241 10.0759 17.4241 10.0759 17.4241 10.0759C17.4241 10.0759 17.4241 10.0759 17.4241 10.0759C17.4241 10.0759 17.4241 10.0759 17.4241 10.0759H17.4241H17.4241C17.4241 10.0759 17.4241 10.0759 17.4241 10.0759C17.4241 10.0759 17.4241 10.0759 17.4241 10.0759H17.4241H17.4241C17.4241 10.0759 17.4241 10.0759 17.4241 10.0759H17.4241C17.4241 10.0759 17.4241 10.0759 17.4241 10.0759H17.4241C17.4241 10.0759 17.4241 10.0759 17.4241 10.0759H17.4241C17.4241 10.0759 17.4241 10.0759 17.4241 10.0759C17.4241 10.0759 17.4241 10.0759 17.4241 10.0759H17.4241C17.4241 10.0759 17.4241 10.0759 17.4241 10.0759C17.4241 10.0759 17.4241 10.0759 17.4241 10.0759C17.4241 10.0759 17.4241 10.0759 17.424 10.0759C17.424 10.0759 17.424 10.0759 17.424 10.0759H17.424C17.424 10.0759 17.424 10.0759 17.424 10.0759C17.424 10.0759 17.424 10.0759 17.424 10.0759C17.424 10.0759 17.424 10.0759 17.424 10.0759C17.424 10.0759 17.424 10.0759 17.424 10.0759C17.424 10.0759 17.424 10.0759 17.424 10.0759C17.424 10.0759 17.424 10.0759 17.424 10.0759C17.424 10.0759 17.424 10.0759 17.424 10.0759C17.424 10.0759 17.424 10.0759 17.424 10.0759C17.424 10.0759 17.424 10.0759 17.424 10.0759C17.424 10.0759 17.424 10.0759 17.424 10.0759C17.424 10.0759 17.424 10.0759 17.424 10.0759C17.424 10.0759 17.424 10.0759 17.424 10.0759C17.424 10.0759 17.424 10.0759 17.424 10.0759C17.424 10.0759 17.424 10.0759 17.424 10.0759C17.424 10.0759 17.424 10.0759 17.424 10.0759C17.424 10.0759 17.424 10.0759 17.424 10.0759C17.424 10.0759 17.424 10.0759 17.424 10.0759C17.424 10.0759 17.424 10.0759 17.424 10.0759C17.424 10.0759 17.424 10.0759 17.424 10.0759C17.424 10.0759 17.424 10.0759 17.424 10.0759C17.424 10.0759 17.424 10.0759 17.424 10.0759C17.424 10.0759 17.424 10.0759 17.424 10.0759C17.424 10.0759 17.424 10.0759 17.424 10.0759C17.424 10.0759 17.424 10.0759 17.424 10.0759C17.424 10.0759 17.424 10.0759 17.424 10.0759C17.424 10.0759 17.424 10.0759 17.424 10.0759C17.424 10.0759 17.424 10.0759 17.424 10.0759C17.424 10.0759 17.424 10.0759 17.424 10.0759C17.424 10.0759 17.424 10.0759 17.424 10.0759C17.424 10.0759 17.424 10.0759 17.424 10.0759C17.424 10.0759 17.424 10.0759 17.424 10.0759C17.424 10.0759 17.424 10.0759 17.424 10.0759C17.424 10.0759 17.424 10.0759 17.424 10.0759C17.424 10.0759 17.424 10.0759 17.424 10.0759C17.424 10.0759 17.424 10.0759 17.424 10.0759C17.4239 10.0759 17.4239 10.0759 17.4239 10.0759C17.4239 10.0759 17.4239 10.0759 17.4239 10.0759C17.4239 10.0759 17.4239 10.0759 17.4239 10.0759C17.4239 10.0759 17.4239 10.0759 17.4239 10.0759C17.4239 10.0759 17.4239 10.0759 17.4239 10.0759C17.4239 10.0759 17.4239 10.0759 17.4239 10.0759C17.4239 10.0759 17.4239 10.0759 17.4239 10.0759C17.4239 10.0759 17.4239 10.0759 17.4239 10.0759C17.4239 10.0759 17.4239 10.0759 17.4239 10.0759C17.4239 10.0759 17.4239 10.0759 17.4239 10.0759C17.4239 10.0759 17.4239 10.0759 17.4239 10.0759C17.4239 10.0759 17.4239 10.0759 17.4239 10.0759C17.4239 10.0759 17.4239 10.0759 17.4239 10.0759C17.4239 10.0759 17.4239 10.0759 17.4239 10.0759C17.4239 10.0759 17.4239 10.0759 17.4239 10.0759C17.4239 10.0759 17.4239 10.0759 17.4239 10.0759C17.4239 10.0759 17.4239 10.0759 17.4239 10.0759C17.4239 10.0759 17.4239 10.0759 17.4239 10.0759C17.4239 10.0759 17.4239 10.0759 17.4239 10.0759C17.4239 10.0759 17.4239 10.0759 17.4239 10.0759C17.4239 10.0759 17.4239 10.0759 17.4239 10.0759C17.4239 10.0759 17.4239 10.0759 17.4239 10.0759C17.4239 10.0759 17.4239 10.0759 17.4238 10.0759C17.4238 10.0759 17.4238 10.0759 17.4238 10.0759C17.4238 10.0759 17.4238 10.0759 17.4238 10.0759C17.4238 10.0759 17.4238 10.0759 17.4238 10.0759C17.4238 10.0759 17.4238 10.0759 17.4238 10.0759C17.4238 10.0759 17.4238 10.0759 17.4238 10.0759C17.4238 10.0759 17.4238 10.0759 17.4238 10.0759C17.4238 10.0759 17.4238 10.0759 17.4238 10.0759C17.4238 10.0759 17.4238 10.0759 17.4238 10.0759C17.4238 10.0759 17.4238 10.0759 17.4238 10.0759C17.4238 10.0759 17.4238 10.0759 17.4238 10.0759C17.4238 10.0759 17.4238 10.0759 17.4238 10.0759C17.4238 10.0759 17.4238 10.0759 17.4238 10.0759C17.4238 10.0759 17.4238 10.0759 17.4238 10.0759C17.4238 10.0759 17.4238 10.0759 17.4238 10.0759C17.4238 10.0759 17.4238 10.0759 17.4238 10.0759C17.4238 10.0759 17.4238 10.0759 17.4238 10.0759C17.4238 10.0759 17.4238 10.0759 17.4237 10.0759C17.4237 10.0759 17.4237 10.0759 17.4237 10.0759C17.4237 10.0759 17.4237 10.0759 17.4237 10.0759C17.4237 10.0759 17.4237 10.0759 17.4237 10.0759C17.4237 10.0759 17.4237 10.0759 17.4237 10.0759C17.4237 10.0759 17.4237 10.0759 17.4237 10.0759C17.4237 10.0759 17.4237 10.0759 17.4237 10.0759C17.4237 10.0759 17.4237 10.0759 17.4237 10.0759C17.4237 10.0759 17.4237 10.0759 17.4237 10.0759C17.4237 10.0759 17.4237 10.0759 17.4237 10.0759C17.4237 10.0759 17.4237 10.0759 17.4237 10.0759C17.4237 10.0759 17.4237 10.0759 17.4237 10.0759C17.4237 10.0759 17.4237 10.0759 17.4237 10.0759C17.4237 10.0759 17.4237 10.0759 17.4237 10.0759C17.4237 10.0759 17.4237 10.0759 17.4237 10.0759C17.4236 10.0759 17.4236 10.0759 17.4236 10.0759C17.4236 10.0759 17.4236 10.0759 17.4236 10.0759C17.4236 10.0759 17.4236 10.0759 17.4236 10.0759C17.4236 10.0759 17.4236 10.0759 17.4236 10.0759C17.4236 10.0759 17.4236 10.0759 17.4236 10.0759C17.4236 10.0759 17.4236 10.0759 17.4236 10.0759C17.4236 10.0759 17.4236 10.0759 17.4236 10.0759C17.4236 10.0759 17.4236 10.0759 17.4236 10.0759C17.4236 10.0759 17.4236 10.0759 17.4236 10.0759C17.4236 10.0759 17.4236 10.0759 17.4236 10.0759C17.4236 10.0759 17.4236 10.0759 17.4236 10.0759C17.4236 10.0759 17.4236 10.0759 17.4236 10.0759C17.4235 10.0759 17.4235 10.0759 17.4235 10.0759C17.4235 10.0759 17.4235 10.0759 17.4235 10.0759C17.4235 10.0759 17.4235 10.0759 17.4235 10.0759C17.4235 10.0759 17.4235 10.0759 17.4235 10.0759C17.4235 10.0759 17.4235 10.0759 17.4235 10.0759C17.4235 10.0759 17.4235 10.0759 17.4235 10.0759C17.4235 10.0759 17.4235 10.0759 17.4235 10.0759C17.4235 10.0759 17.4235 10.0759 17.4235 10.0759C17.4235 10.0759 17.4235 10.0759 17.4235 10.0759C17.4235 10.0759 17.4235 10.0759 17.4235 10.0759C17.4235 10.0759 17.4235 10.0759 17.4234 10.0759C17.4234 10.0759 17.4234 10.0759 17.4234 10.0759C17.4234 10.0759 17.4234 10.0759 17.4234 10.0759C17.4234 10.0759 17.4234 10.0759 17.4234 10.0759C17.4234 10.0759 17.4234 10.0759 17.4234 10.0759C17.4234 10.0759 17.4234 10.0759 17.4234 10.0759C17.4234 10.0759 17.4234 10.0759 17.4234 10.0759C17.4234 10.0759 17.4234 10.0759 17.4234 10.0759C17.4234 10.0759 17.4234 10.0759 17.4234 10.0759C17.4234 10.0759 17.4234 10.0759 17.4234 10.0759C17.4234 10.0759 17.4233 10.0759 17.4233 10.0759C17.4233 10.0759 17.4233 10.0759 17.4233 10.0759C17.4233 10.0759 17.4233 10.0759 17.4233 10.0759C17.4233 10.0759 17.4233 10.0759 17.4233 10.0759C17.4233 10.0759 17.4233 10.0759 17.4233 10.0759C17.4233 10.0759 17.4233 10.0759 17.4233 10.0759C17.4233 10.0759 17.4233 10.0759 17.4233 10.0759C17.4233 10.0759 17.4233 10.0759 17.4233 10.0759C17.4233 10.0759 17.4233 10.0759 17.4233 10.0759C17.4233 10.0759 17.4232 10.0759 17.4232 10.0759C17.4232 10.0759 17.4232 10.0759 17.4232 10.0759C17.4232 10.0759 17.4232 10.0759 17.4232 10.0759C17.4232 10.0759 17.4232 10.0759 17.4232 10.0759C17.4232 10.0759 17.4232 10.0759 17.4232 10.0759C17.4232 10.0759 17.4232 10.0759 17.4232 10.0759C17.4232 10.0759 17.4232 10.0759 17.4232 10.0759C17.4232 10.0759 17.4232 10.0759 17.4232 10.0759C17.4232 10.0759 17.4231 10.0759 17.4231 10.0759C17.4231 10.0759 17.4231 10.0759 17.4231 10.0759C17.4231 10.0759 17.4231 10.0759 17.4231 10.0759C17.4231 10.0759 17.4231 10.0759 17.4231 10.0759C17.4231 10.0759 17.4231 10.0759 17.4231 10.0759C17.4231 10.0759 17.4231 10.0759 17.4231 10.0759C17.4231 10.0759 17.4231 10.0759 17.4231 10.0759C17.4231 10.0759 17.4231 10.0759 17.4231 10.0759C17.423 10.0759 17.423 10.0759 17.423 10.0759C17.423 10.0759 17.423 10.0759 17.423 10.0759C17.423 10.0759 17.423 10.0759 17.423 10.0759C17.423 10.0759 17.423 10.0759 17.423 10.0759C17.423 10.0759 17.423 10.0759 17.423 10.0759C17.423 10.0759 17.423 10.0759 17.423 10.0759C17.423 10.0759 17.423 10.0759 17.423 10.0759C17.423 10.0759 17.4229 10.0759 17.4229 10.0759C17.4229 10.0759 17.4229 10.0759 17.4229 10.0759C17.4229 10.0759 17.4229 10.0759 17.4229 10.0759C17.4229 10.0759 17.4229 10.0759 17.4229 10.0759C17.4229 10.0759 17.4229 10.0759 17.4229 10.0759C17.4229 10.0759 17.4229 10.0759 17.4229 10.0759C17.4229 10.0759 17.4229 10.0759 17.4229 10.0759C17.4228 10.0759 17.4228 10.0759 17.4228 10.0759C17.4228 10.0759 17.4228 10.0759 17.4228 10.0759C17.4228 10.0759 17.4228 10.0759 17.4228 10.0759C17.4228 10.0759 17.4228 10.0759 17.4228 10.0759C17.4228 10.0759 17.4228 10.0759 17.4228 10.0759C17.4228 10.0759 17.4228 10.0759 17.4228 10.0759C17.4228 10.0759 17.4227 10.0759 17.4227 10.0759C17.4227 10.0759 17.4227 10.0759 17.4227 10.0759C17.4227 10.0759 17.4227 10.0759 17.4227 10.0759C17.4227 10.0759 17.4227 10.0759 17.4227 10.0759C17.4227 10.0759 17.4227 10.0759 17.4227 10.0759C17.4227 10.0759 17.4227 10.0759 17.4227 10.0759C17.4227 10.0759 17.4226 10.0759 17.4226 10.0759C17.4226 10.0759 17.4226 10.0759 17.4226 10.0759C17.4226 10.0759 17.4226 10.0759 17.4226 10.0759C17.4226 10.0759 17.4226 10.0759 17.4226 10.0759C17.4226 10.0759 17.4226 10.0759 17.4226 10.0759C17.4226 10.0759 17.4226 10.0759 17.4226 10.0759C17.4226 10.0759 17.4225 10.0759 17.4225 10.0759C17.4225 10.0759 17.4225 10.0759 17.4225 10.0759C17.4225 10.0759 17.4225 10.0759 17.4225 10.0759C17.4225 10.0759 17.4225 10.0759 17.4225 10.0759C17.4225 10.0759 17.4225 10.0759 17.4225 10.0759C17.4225 10.0759 17.4225 10.0759 17.4225 10.0759C17.4224 10.0759 17.4224 10.0759 17.4224 10.0759C17.4224 10.0759 17.4224 10.0759 17.4224 10.0759C17.4224 10.0759 17.4224 10.0759 17.4224 10.0759C17.4224 10.0759 17.4224 10.0759 17.4224 10.0759C17.4224 10.0759 17.4224 10.0759 17.4224 10.0759C17.4223 10.0759 17.4223 10.0759 17.4223 10.0759C17.4223 10.0759 17.4223 10.0759 17.4223 10.0759C17.4223 10.0759 17.4223 10.0759 17.4223 10.0759C17.4223 10.0759 17.4223 10.0759 17.4223 10.0759C17.4223 10.0759 17.4223 10.0759 17.4223 10.0759C17.4223 10.0759 17.4222 10.0759 17.4222 10.0759C17.4222 10.0759 17.4222 10.0759 17.4222 10.0759C17.4222 10.0759 17.4222 10.0759 17.4222 10.0759C17.4222 10.0759 17.4222 10.0759 17.4222 10.0759C17.4222 10.0759 17.4222 10.0759 17.4222 10.0759C17.4222 10.0759 17.4221 10.0759 17.4221 10.0759C17.4221 10.0759 17.4221 10.0759 17.4221 10.0759C17.4221 10.0759 17.4221 10.0759 17.4221 10.0759C17.4221 10.0759 17.4221 10.0759 17.4221 10.0759C17.4221 10.0759 17.4221 10.0759 17.4221 10.0759C17.422 10.0759 17.422 10.0759 17.422 10.0759C17.422 10.0759 17.422 10.0759 17.422 10.0759C17.422 10.0759 17.422 10.0759 17.422 10.0759C17.422 10.0759 17.422 10.0759 17.422 10.0759C17.422 10.0759 17.422 10.0759 17.4219 10.0759C17.4219 10.0759 17.4219 10.0759 17.4219 10.0759C17.4219 10.0759 17.4219 10.0759 17.4219 10.0759C17.4219 10.0759 17.4219 10.0759 17.4219 10.0759C17.4219 10.0759 17.4219 10.0759 17.4219 10.0759C17.4219 10.0759 17.4218 10.0759 17.4218 10.0759C17.4218 10.0759 17.4218 10.0759 17.4218 10.0759C17.4218 10.0759 17.4218 10.0759 17.4218 10.0759C17.4218 10.0759 17.4218 10.0759 17.4218 10.0759C17.4218 10.0759 17.4218 10.0759 17.4217 10.0759C17.4217 10.0759 17.4217 10.0759 17.4217 10.0759C17.4217 10.0759 17.4217 10.0759 17.4217 10.0759C17.4217 10.0759 17.4217 10.0759 17.4217 10.0759C17.4217 10.0759 17.4217 10.0759 17.4217 10.0759C17.4216 10.0759 17.4216 10.0759 17.4216 10.0759C17.4216 10.0759 17.4216 10.0759 17.4216 10.0759C17.4216 10.0759 17.4216 10.0759 17.4216 10.0759C17.4216 10.0759 17.4216 10.0759 17.4216 10.0759C17.4215 10.0759 17.4215 10.0759 17.4215 10.0759C17.4215 10.0759 17.4215 10.0759 17.4215 10.0759C17.4215 10.0759 17.4215 10.0759 17.4215 10.0759C17.4215 10.0759 17.4215 10.0759 17.4215 10.0759C17.4214 10.0759 17.4214 10.0759 17.4214 10.0759C17.4214 10.0759 17.4214 10.0759 17.4214 10.0759C17.4214 10.0759 17.4214 10.0759 17.4214 10.0759C17.4214 10.0759 17.4214 10.0759 17.4214 10.0759C17.4213 10.0759 17.4213 10.0759 17.4213 10.0759C17.4213 10.0759 17.4213 10.0759 17.4213 10.0759C17.4213 10.0759 17.4213 10.0759 17.4213 10.0759C17.4213 10.0759 17.4213 10.0759 17.4212 10.0759C17.4212 10.0759 17.4212 10.0759 17.4212 10.0759C17.4212 10.0759 17.4212 10.0759 17.4212 10.0759C17.4212 10.0759 17.4212 10.0759 17.4212 10.0759C17.4212 10.0759 17.4212 10.0759 17.4211 10.0759C17.4211 10.0759 17.4211 10.0759 17.4211 10.0759C17.4211 10.0759 17.4211 10.0759 17.4211 10.0759C17.4211 10.0759 17.4211 10.0759 17.4211 10.0759C17.4211 10.0759 17.421 10.0759 17.421 10.0759C17.421 10.0759 17.421 10.0759 17.421 10.0759C17.421 10.0759 17.421 10.0759 17.421 10.0759C17.421 10.0759 17.421 10.0759 17.4209 10.0759C17.4209 10.0759 17.4209 10.0759 17.4209 10.0759C17.4209 10.0759 17.4209 10.0759 17.4209 10.0759C17.4209 10.0759 17.4209 10.0759 17.4209 10.0759C17.4209 10.0759 17.4208 10.0759 17.4208 10.0759C17.4208 10.0759 17.4208 10.0759 17.4208 10.0759C17.4208 10.0759 17.4208 10.0759 17.4208 10.0759C17.4208 10.0759 17.4208 10.0759 17.4207 10.0759C17.4207 10.0759 17.4207 10.0759 17.4207 10.0759C17.4207 10.0759 17.4207 10.0759 17.4207 10.0759C17.4207 10.0759 17.4207 10.0759 17.4207 10.0759C17.4206 10.0759 17.4206 10.0759 17.4206 10.0759C17.4206 10.0759 17.4206 10.0759 17.4206 10.0759C17.4206 10.0759 17.4206 10.0759 17.4206 10.0759C17.4206 10.0759 17.4205 10.0759 17.4205 10.0759C17.4205 10.0759 17.4205 10.0759 17.4205 10.0759C17.4205 10.0759 17.4205 10.0759 17.4205 10.0759C17.4205 10.0759 17.4205 10.0759 17.4204 10.0759C17.4204 10.0759 17.4204 10.0759 17.4204 10.0759C17.4204 10.0759 17.4204 10.0759 17.4204 10.0759C17.4204 10.0759 17.4204 10.0759 17.4203 10.0759C17.4203 10.0759 17.4203 10.0759 17.4203 10.0759C17.4203 10.0759 17.4203 10.0759 17.4203 10.0759C17.4203 10.0759 17.4203 10.0759 17.4203 10.0759C17.4202 10.0759 17.4202 10.0759 17.4202 10.0759C17.4202 10.0759 17.4202 10.0759 17.4202 10.0759C17.4202 10.0759 17.4202 10.0759 17.4202 10.0759C17.4201 10.0759 17.4201 10.0759 17.4201 10.0759C17.4201 10.0759 17.4201 10.0759 17.4201 10.0759C17.4201 10.0759 17.4201 10.0759 17.4201 10.0759C17.42 10.0759 17.42 10.0759 17.42 10.0759C17.42 10.0759 17.42 10.0759 17.42 10.0759C17.42 10.0759 17.42 10.0759 17.42 10.0759C17.4199 10.0759 17.4199 10.0759 17.4199 10.0759C17.4199 10.0759 17.4199 10.0759 17.4199 10.0759C17.4199 10.0759 17.4199 10.0759 17.4199 10.0759C17.4198 10.0759 17.4198 10.0759 17.4198 10.0759C17.4198 10.0759 17.4198 10.0759 17.4198 10.0759C17.4198 10.0759 17.4198 10.0759 17.4197 10.0759C17.4197 10.0759 17.4197 10.0759 17.4197 10.0759C17.4197 10.0759 17.4197 10.0759 17.4197 10.0759C17.4197 10.0759 17.4197 10.0759 17.4196 10.0759C17.4196 10.0759 17.4196 10.0759 17.4196 10.0759C17.4196 10.0759 17.4196 10.0759 17.4196 10.0759C17.4196 10.0759 17.4195 10.0759 17.4195 10.0759C17.4195 10.0759 17.4195 10.0759 17.4195 10.0759C17.4195 10.0759 17.4195 10.0759 17.4195 10.0759C17.4195 10.0759 17.4194 10.0759 17.4194 10.0759C17.4194 10.0759 17.4194 10.0759 17.4194 10.0759C17.4194 10.0759 17.4194 10.0759 17.4194 10.0759C17.4193 10.0759 17.4193 10.0759 17.4193 10.0759C17.4193 10.0759 17.4193 10.0759 17.4193 10.0759C17.4193 10.0759 17.4193 10.0759 17.4192 10.0759C17.4192 10.0759 17.4192 10.0759 17.4192 10.0759C17.4192 10.0759 17.4192 10.0759 17.4192 10.0759C17.4192 10.0759 17.4191 10.0759 17.4191 10.0759C17.4191 10.0759 17.4191 10.0759 17.4191 10.0759C17.4191 10.0759 17.4191 10.0759 17.4191 10.0759C17.419 10.0759 17.419 10.0759 17.419 10.0759C17.419 10.0759 17.419 10.0759 17.419 10.0759C17.419 10.0759 17.4189 10.0759 17.4189 10.0759C17.4189 10.0759 17.4189 10.0759 17.4189 10.0759C17.4189 10.0759 17.4189 10.0759 17.4189 10.0759C17.4188 10.0759 17.4188 10.0759 17.4188 10.0759C17.4188 10.0759 17.4188 10.0759 17.4188 10.0759C17.4188 10.0759 17.4187 10.0759 17.4187 10.0759C17.4187 10.0759 17.4187 10.0759 17.4187 10.0759C17.4187 10.0759 17.4187 10.0759 17.4187 10.0759C17.4186 10.0759 17.4186 10.0759 17.4186 10.0759C17.4186 10.0759 17.4186 10.0759 17.4186 10.0759C17.4186 10.0759 17.4185 10.0759 17.4185 10.0759C17.4185 10.0759 17.4185 10.0759 17.4185 10.0759C17.4185 10.0759 17.4185 10.0759 17.4184 10.0759C17.4184 10.0759 17.4184 10.0759 17.4184 10.0759C17.4184 10.0759 17.4184 10.0759 17.4184 10.0759C17.4184 10.0759 17.4183 10.0759 17.4183 10.0759C17.4183 10.0759 17.4183 10.0759 17.4183 10.0759C17.4183 10.0759 17.4183 10.0759 17.4182 10.0759C17.4182 10.0759 17.4182 10.0759 17.4182 10.0759C17.4182 10.0759 17.4182 10.0759 17.4182 10.0759C17.4181 10.0759 17.4181 10.0759 17.4181 10.0759C17.4181 10.0759 17.4181 10.0759 17.4181 10.0759C17.4181 10.0759 17.418 10.0759 17.418 10.0759C17.418 10.0759 17.418 10.0759 17.418 10.0759C17.418 10.0759 17.4179 10.0759 17.4179 10.0759C17.4179 10.0759 17.4179 10.0759 17.4179 10.0759C17.4179 10.0759 17.4179 10.0759 17.4178 10.0759C17.4178 10.0759 17.4178 10.0759 17.4178 10.0759C17.4178 10.0759 17.4178 10.0759 17.4178 10.0759C17.4177 10.0759 17.4177 10.0759 17.4177 10.0759C17.4177 10.0759 17.4177 10.0759 17.4177 10.0759C17.4177 10.0759 17.4176 10.0759 17.4176 10.0759C17.4176 10.0759 17.4176 10.0759 17.4176 10.0759C17.4176 10.0759 17.4175 10.0759 17.4175 10.0759C17.4175 10.0759 17.4175 10.0759 17.4175 10.0759C17.4175 10.0759 17.4175 10.0759 17.4174 10.0759C17.4174 10.0759 17.4174 10.0759 17.4174 10.0759C17.4174 10.0759 17.4174 10.0759 17.4173 10.0759C17.4173 10.0759 17.4173 10.0759 17.4173 10.0759C17.4173 10.0759 17.4173 10.0759 17.4172 10.0759C17.4172 10.0759 17.4172 10.0759 17.4172 10.0759C17.4172 10.0759 17.4172 10.0759 17.4172 10.0759C17.4171 10.0759 17.4171 10.0759 17.4171 10.0759C17.4171 10.0759 17.4171 10.0759 17.4171 10.0759C17.417 10.0759 17.417 10.0759 17.417 10.0759C17.417 10.0759 17.417 10.0759 17.417 10.0759C17.4169 10.0759 17.4169 10.0759 17.4169 10.0759C17.4169 10.0759 17.4169 10.0759 17.4169 10.0759C17.4168 10.0759 17.4168 10.0759 17.4168 10.0759C17.4168 10.0759 17.4168 10.0759 17.4168 10.0759C17.4167 10.0759 17.4167 10.0759 17.4167 10.0759C17.4167 10.0759 17.4167 10.0759 17.4167 10.0759C17.4166 10.0759 17.4166 10.0759 17.4166 10.0759C17.4166 10.0759 17.4166 10.0759 17.4166 10.0759C17.4165 10.0759 17.4165 10.0759 17.4165 10.0759C17.4165 10.0759 17.4165 10.0759 17.4165 10.0759C17.4164 10.0759 17.4164 10.0759 17.4164 10.0759C17.4164 10.0759 17.4164 10.0759 17.4164 10.0759C17.4163 10.0759 17.4163 10.0759 17.4163 10.0759C17.4163 10.0759 17.4163 10.0759 17.4163 10.0759C17.4162 10.0759 17.4162 10.0759 17.4162 10.0759C17.4162 10.0759 17.4162 10.0759 17.4162 10.0759C17.4161 10.0759 17.4161 10.0759 17.4161 10.0759C17.4161 10.0759 17.4161 10.0759 17.416 10.0759C17.416 10.0759 17.416 10.0759 17.416 10.0759C17.416 10.0759 17.416 10.0759 17.4159 10.0759C17.4159 10.0759 17.4159 10.0759 17.4159 10.0759C17.4159 10.0759 17.4159 10.0759 17.4158 10.0759C17.4158 10.0759 17.4158 10.0759 17.4158 10.0759C17.4158 10.0759 17.4157 10.0759 17.4157 10.0759C17.4157 10.0759 17.4157 10.0759 17.4157 10.0759C17.4157 10.0759 17.4156 10.0759 17.4156 10.0759C17.4156 10.0759 17.4156 10.0759 17.4156 10.0759C17.4155 10.0759 17.4155 10.0759 17.4155 10.0759C17.4155 10.0759 17.4155 10.0759 17.4155 10.0759C17.4154 10.0759 17.4154 10.0759 17.4154 10.0759C17.4154 10.0759 17.4154 10.0759 17.4153 10.0759C17.4153 10.0759 17.4153 10.0759 17.4153 10.0759C17.4153 10.0759 17.4152 10.0759 17.4152 10.0759C17.4152 10.0759 17.4152 10.0759 17.4152 10.0759C17.4152 10.0759 17.4151 10.0759 17.4151 10.0759C17.4151 10.0759 17.4151 10.0759 17.4151 10.0759C17.415 10.0759 17.415 10.0759 17.415 10.0759C17.415 10.0759 17.415 10.0759 17.4149 10.0759C17.4149 10.0759 17.4149 10.0759 17.4149 10.0759C17.4149 10.0759 17.4148 10.0759 17.4148 10.0759C17.4148 10.0759 17.4148 10.0759 17.4148 10.0759C17.4148 10.0759 17.4147 10.0759 17.4147 10.0759C17.4147 10.0759 17.4147 10.0759 17.4147 10.0759C17.4146 10.0759 17.4146 10.0759 17.4146 10.0759C17.4146 10.0759 17.4146 10.0759 17.4145 10.0759C17.4145 10.0759 17.4145 10.0759 17.4145 10.0759C17.4145 10.0759 17.4144 10.0759 17.4144 10.0759C17.4144 10.0759 17.4144 10.0759 17.4144 10.0759C17.4143 10.0759 17.4143 10.0759 17.4143 10.0759C17.4143 10.0759 17.4143 10.0759 17.4142 10.0759C17.4142 10.0759 17.4142 10.0759 17.4142 10.0759C17.4142 10.0759 17.4141 10.0759 17.4141 10.0759C17.4141 10.0759 17.4141 10.0759 17.4141 10.0759C17.414 10.0759 17.414 10.0759 17.414 10.0759C17.414 10.0759 17.414 10.0759 17.4139 10.0759C17.4139 10.0759 17.4139 10.0759 17.4139 10.0759C17.4139 10.0759 17.4138 10.0759 17.4138 10.0759C17.4138 10.0759 17.4138 10.0759 17.4137 10.0759C17.4137 10.0759 17.4137 10.0759 17.4137 10.0759C17.4137 10.0759 17.4136 10.0759 17.4136 10.0759C17.4136 10.0759 17.4136 10.0759 17.4136 10.0759C17.4135 10.0759 17.4135 10.0759 17.4135 10.0759C17.4135 10.0759 17.4135 10.0759 17.4134 10.0759C17.4134 10.0759 17.4134 10.0759 17.4134 10.0759C17.4133 10.0759 17.4133 10.0759 17.4133 10.0759C17.4133 10.0759 17.4133 10.0759 17.4132 10.0759C17.4132 10.0759 17.4132 10.0759 17.4132 10.0759C17.4132 10.0759 17.4131 10.0759 17.4131 10.0759C17.4131 10.0759 17.4131 10.0759 17.413 10.0759C17.413 10.0759 17.413 10.0759 17.413 10.0759C17.413 10.0759 17.4129 10.0759 17.4129 10.0759C17.4129 10.0759 17.4129 10.0759 17.4128 10.0759V11.0759C17.4129 11.0759 17.4129 11.0759 17.4129 11.0759C17.4129 11.0759 17.413 11.0759 17.413 11.0759C17.413 11.0759 17.413 11.0759 17.413 11.0759C17.4131 11.0759 17.4131 11.0759 17.4131 11.0759C17.4131 11.0759 17.4132 11.0759 17.4132 11.0759C17.4132 11.0759 17.4132 11.0759 17.4132 11.0759C17.4133 11.0759 17.4133 11.0759 17.4133 11.0759C17.4133 11.0759 17.4133 11.0759 17.4134 11.0759C17.4134 11.0759 17.4134 11.0759 17.4134 11.0759C17.4135 11.0759 17.4135 11.0759 17.4135 11.0759C17.4135 11.0759 17.4135 11.0759 17.4136 11.0759C17.4136 11.0759 17.4136 11.0759 17.4136 11.0759C17.4136 11.0759 17.4137 11.0759 17.4137 11.0759C17.4137 11.0759 17.4137 11.0759 17.4137 11.0759C17.4138 11.0759 17.4138 11.0759 17.4138 11.0759C17.4138 11.0759 17.4139 11.0759 17.4139 11.0759C17.4139 11.0759 17.4139 11.0759 17.4139 11.0759C17.414 11.0759 17.414 11.0759 17.414 11.0759C17.414 11.0759 17.414 11.0759 17.4141 11.0759C17.4141 11.0759 17.4141 11.0759 17.4141 11.0759C17.4141 11.0759 17.4142 11.0759 17.4142 11.0759C17.4142 11.0759 17.4142 11.0759 17.4142 11.0759C17.4143 11.0759 17.4143 11.0759 17.4143 11.0759C17.4143 11.0759 17.4143 11.0759 17.4144 11.0759C17.4144 11.0759 17.4144 11.0759 17.4144 11.0759C17.4144 11.0759 17.4145 11.0759 17.4145 11.0759C17.4145 11.0759 17.4145 11.0759 17.4145 11.0759C17.4146 11.0759 17.4146 11.0759 17.4146 11.0759C17.4146 11.0759 17.4146 11.0759 17.4147 11.0759C17.4147 11.0759 17.4147 11.0759 17.4147 11.0759C17.4147 11.0759 17.4148 11.0759 17.4148 11.0759C17.4148 11.0759 17.4148 11.0759 17.4148 11.0759C17.4148 11.0759 17.4149 11.0759 17.4149 11.0759C17.4149 11.0759 17.4149 11.0759 17.4149 11.0759C17.415 11.0759 17.415 11.0759 17.415 11.0759C17.415 11.0759 17.415 11.0759 17.4151 11.0759C17.4151 11.0759 17.4151 11.0759 17.4151 11.0759C17.4151 11.0759 17.4152 11.0759 17.4152 11.0759C17.4152 11.0759 17.4152 11.0759 17.4152 11.0759C17.4152 11.0759 17.4153 11.0759 17.4153 11.0759C17.4153 11.0759 17.4153 11.0759 17.4153 11.0759C17.4154 11.0759 17.4154 11.0759 17.4154 11.0759C17.4154 11.0759 17.4154 11.0759 17.4155 11.0759C17.4155 11.0759 17.4155 11.0759 17.4155 11.0759C17.4155 11.0759 17.4155 11.0759 17.4156 11.0759C17.4156 11.0759 17.4156 11.0759 17.4156 11.0759C17.4156 11.0759 17.4157 11.0759 17.4157 11.0759C17.4157 11.0759 17.4157 11.0759 17.4157 11.0759C17.4157 11.0759 17.4158 11.0759 17.4158 11.0759C17.4158 11.0759 17.4158 11.0759 17.4158 11.0759C17.4159 11.0759 17.4159 11.0759 17.4159 11.0759C17.4159 11.0759 17.4159 11.0759 17.4159 11.0759C17.416 11.0759 17.416 11.0759 17.416 11.0759C17.416 11.0759 17.416 11.0759 17.416 11.0759C17.4161 11.0759 17.4161 11.0759 17.4161 11.0759C17.4161 11.0759 17.4161 11.0759 17.4162 11.0759C17.4162 11.0759 17.4162 11.0759 17.4162 11.0759C17.4162 11.0759 17.4162 11.0759 17.4163 11.0759C17.4163 11.0759 17.4163 11.0759 17.4163 11.0759C17.4163 11.0759 17.4163 11.0759 17.4164 11.0759C17.4164 11.0759 17.4164 11.0759 17.4164 11.0759C17.4164 11.0759 17.4164 11.0759 17.4165 11.0759C17.4165 11.0759 17.4165 11.0759 17.4165 11.0759C17.4165 11.0759 17.4165 11.0759 17.4166 11.0759C17.4166 11.0759 17.4166 11.0759 17.4166 11.0759C17.4166 11.0759 17.4166 11.0759 17.4167 11.0759C17.4167 11.0759 17.4167 11.0759 17.4167 11.0759C17.4167 11.0759 17.4167 11.0759 17.4168 11.0759C17.4168 11.0759 17.4168 11.0759 17.4168 11.0759C17.4168 11.0759 17.4168 11.0759 17.4169 11.0759C17.4169 11.0759 17.4169 11.0759 17.4169 11.0759C17.4169 11.0759 17.4169 11.0759 17.417 11.0759C17.417 11.0759 17.417 11.0759 17.417 11.0759C17.417 11.0759 17.417 11.0759 17.4171 11.0759C17.4171 11.0759 17.4171 11.0759 17.4171 11.0759C17.4171 11.0759 17.4171 11.0759 17.4172 11.0759C17.4172 11.0759 17.4172 11.0759 17.4172 11.0759C17.4172 11.0759 17.4172 11.0759 17.4172 11.0759C17.4173 11.0759 17.4173 11.0759 17.4173 11.0759C17.4173 11.0759 17.4173 11.0759 17.4173 11.0759C17.4174 11.0759 17.4174 11.0759 17.4174 11.0759C17.4174 11.0759 17.4174 11.0759 17.4174 11.0759C17.4175 11.0759 17.4175 11.0759 17.4175 11.0759C17.4175 11.0759 17.4175 11.0759 17.4175 11.0759C17.4175 11.0759 17.4176 11.0759 17.4176 11.0759C17.4176 11.0759 17.4176 11.0759 17.4176 11.0759C17.4176 11.0759 17.4177 11.0759 17.4177 11.0759C17.4177 11.0759 17.4177 11.0759 17.4177 11.0759C17.4177 11.0759 17.4177 11.0759 17.4178 11.0759C17.4178 11.0759 17.4178 11.0759 17.4178 11.0759C17.4178 11.0759 17.4178 11.0759 17.4178 11.0759C17.4179 11.0759 17.4179 11.0759 17.4179 11.0759C17.4179 11.0759 17.4179 11.0759 17.4179 11.0759C17.4179 11.0759 17.418 11.0759 17.418 11.0759C17.418 11.0759 17.418 11.0759 17.418 11.0759C17.418 11.0759 17.4181 11.0759 17.4181 11.0759C17.4181 11.0759 17.4181 11.0759 17.4181 11.0759C17.4181 11.0759 17.4181 11.0759 17.4182 11.0759C17.4182 11.0759 17.4182 11.0759 17.4182 11.0759C17.4182 11.0759 17.4182 11.0759 17.4182 11.0759C17.4183 11.0759 17.4183 11.0759 17.4183 11.0759C17.4183 11.0759 17.4183 11.0759 17.4183 11.0759C17.4183 11.0759 17.4184 11.0759 17.4184 11.0759C17.4184 11.0759 17.4184 11.0759 17.4184 11.0759C17.4184 11.0759 17.4184 11.0759 17.4184 11.0759C17.4185 11.0759 17.4185 11.0759 17.4185 11.0759C17.4185 11.0759 17.4185 11.0759 17.4185 11.0759C17.4185 11.0759 17.4186 11.0759 17.4186 11.0759C17.4186 11.0759 17.4186 11.0759 17.4186 11.0759C17.4186 11.0759 17.4186 11.0759 17.4187 11.0759C17.4187 11.0759 17.4187 11.0759 17.4187 11.0759C17.4187 11.0759 17.4187 11.0759 17.4187 11.0759C17.4187 11.0759 17.4188 11.0759 17.4188 11.0759C17.4188 11.0759 17.4188 11.0759 17.4188 11.0759C17.4188 11.0759 17.4188 11.0759 17.4189 11.0759C17.4189 11.0759 17.4189 11.0759 17.4189 11.0759C17.4189 11.0759 17.4189 11.0759 17.4189 11.0759C17.4189 11.0759 17.419 11.0759 17.419 11.0759C17.419 11.0759 17.419 11.0759 17.419 11.0759C17.419 11.0759 17.419 11.0759 17.4191 11.0759C17.4191 11.0759 17.4191 11.0759 17.4191 11.0759C17.4191 11.0759 17.4191 11.0759 17.4191 11.0759C17.4191 11.0759 17.4192 11.0759 17.4192 11.0759C17.4192 11.0759 17.4192 11.0759 17.4192 11.0759C17.4192 11.0759 17.4192 11.0759 17.4192 11.0759C17.4193 11.0759 17.4193 11.0759 17.4193 11.0759C17.4193 11.0759 17.4193 11.0759 17.4193 11.0759C17.4193 11.0759 17.4193 11.0759 17.4194 11.0759C17.4194 11.0759 17.4194 11.0759 17.4194 11.0759C17.4194 11.0759 17.4194 11.0759 17.4194 11.0759C17.4194 11.0759 17.4195 11.0759 17.4195 11.0759C17.4195 11.0759 17.4195 11.0759 17.4195 11.0759C17.4195 11.0759 17.4195 11.0759 17.4195 11.0759C17.4195 11.0759 17.4196 11.0759 17.4196 11.0759C17.4196 11.0759 17.4196 11.0759 17.4196 11.0759C17.4196 11.0759 17.4196 11.0759 17.4196 11.0759C17.4197 11.0759 17.4197 11.0759 17.4197 11.0759C17.4197 11.0759 17.4197 11.0759 17.4197 11.0759C17.4197 11.0759 17.4197 11.0759 17.4197 11.0759C17.4198 11.0759 17.4198 11.0759 17.4198 11.0759C17.4198 11.0759 17.4198 11.0759 17.4198 11.0759C17.4198 11.0759 17.4198 11.0759 17.4199 11.0759C17.4199 11.0759 17.4199 11.0759 17.4199 11.0759C17.4199 11.0759 17.4199 11.0759 17.4199 11.0759C17.4199 11.0759 17.4199 11.0759 17.42 11.0759C17.42 11.0759 17.42 11.0759 17.42 11.0759C17.42 11.0759 17.42 11.0759 17.42 11.0759C17.42 11.0759 17.42 11.0759 17.4201 11.0759C17.4201 11.0759 17.4201 11.0759 17.4201 11.0759C17.4201 11.0759 17.4201 11.0759 17.4201 11.0759C17.4201 11.0759 17.4201 11.0759 17.4202 11.0759C17.4202 11.0759 17.4202 11.0759 17.4202 11.0759C17.4202 11.0759 17.4202 11.0759 17.4202 11.0759C17.4202 11.0759 17.4202 11.0759 17.4203 11.0759C17.4203 11.0759 17.4203 11.0759 17.4203 11.0759C17.4203 11.0759 17.4203 11.0759 17.4203 11.0759C17.4203 11.0759 17.4203 11.0759 17.4203 11.0759C17.4204 11.0759 17.4204 11.0759 17.4204 11.0759C17.4204 11.0759 17.4204 11.0759 17.4204 11.0759C17.4204 11.0759 17.4204 11.0759 17.4204 11.0759C17.4205 11.0759 17.4205 11.0759 17.4205 11.0759C17.4205 11.0759 17.4205 11.0759 17.4205 11.0759C17.4205 11.0759 17.4205 11.0759 17.4205 11.0759C17.4205 11.0759 17.4206 11.0759 17.4206 11.0759C17.4206 11.0759 17.4206 11.0759 17.4206 11.0759C17.4206 11.0759 17.4206 11.0759 17.4206 11.0759C17.4206 11.0759 17.4206 11.0759 17.4207 11.0759C17.4207 11.0759 17.4207 11.0759 17.4207 11.0759C17.4207 11.0759 17.4207 11.0759 17.4207 11.0759C17.4207 11.0759 17.4207 11.0759 17.4207 11.0759C17.4208 11.0759 17.4208 11.0759 17.4208 11.0759C17.4208 11.0759 17.4208 11.0759 17.4208 11.0759C17.4208 11.0759 17.4208 11.0759 17.4208 11.0759C17.4208 11.0759 17.4209 11.0759 17.4209 11.0759C17.4209 11.0759 17.4209 11.0759 17.4209 11.0759C17.4209 11.0759 17.4209 11.0759 17.4209 11.0759C17.4209 11.0759 17.4209 11.0759 17.4209 11.0759C17.421 11.0759 17.421 11.0759 17.421 11.0759C17.421 11.0759 17.421 11.0759 17.421 11.0759C17.421 11.0759 17.421 11.0759 17.421 11.0759C17.421 11.0759 17.4211 11.0759 17.4211 11.0759C17.4211 11.0759 17.4211 11.0759 17.4211 11.0759C17.4211 11.0759 17.4211 11.0759 17.4211 11.0759C17.4211 11.0759 17.4211 11.0759 17.4211 11.0759C17.4212 11.0759 17.4212 11.0759 17.4212 11.0759C17.4212 11.0759 17.4212 11.0759 17.4212 11.0759C17.4212 11.0759 17.4212 11.0759 17.4212 11.0759C17.4212 11.0759 17.4212 11.0759 17.4212 11.0759C17.4213 11.0759 17.4213 11.0759 17.4213 11.0759C17.4213 11.0759 17.4213 11.0759 17.4213 11.0759C17.4213 11.0759 17.4213 11.0759 17.4213 11.0759C17.4213 11.0759 17.4213 11.0759 17.4214 11.0759C17.4214 11.0759 17.4214 11.0759 17.4214 11.0759C17.4214 11.0759 17.4214 11.0759 17.4214 11.0759C17.4214 11.0759 17.4214 11.0759 17.4214 11.0759C17.4214 11.0759 17.4214 11.0759 17.4215 11.0759C17.4215 11.0759 17.4215 11.0759 17.4215 11.0759C17.4215 11.0759 17.4215 11.0759 17.4215 11.0759C17.4215 11.0759 17.4215 11.0759 17.4215 11.0759C17.4215 11.0759 17.4215 11.0759 17.4216 11.0759C17.4216 11.0759 17.4216 11.0759 17.4216 11.0759C17.4216 11.0759 17.4216 11.0759 17.4216 11.0759C17.4216 11.0759 17.4216 11.0759 17.4216 11.0759C17.4216 11.0759 17.4216 11.0759 17.4217 11.0759C17.4217 11.0759 17.4217 11.0759 17.4217 11.0759C17.4217 11.0759 17.4217 11.0759 17.4217 11.0759C17.4217 11.0759 17.4217 11.0759 17.4217 11.0759C17.4217 11.0759 17.4217 11.0759 17.4217 11.0759C17.4218 11.0759 17.4218 11.0759 17.4218 11.0759C17.4218 11.0759 17.4218 11.0759 17.4218 11.0759C17.4218 11.0759 17.4218 11.0759 17.4218 11.0759C17.4218 11.0759 17.4218 11.0759 17.4218 11.0759C17.4218 11.0759 17.4219 11.0759 17.4219 11.0759C17.4219 11.0759 17.4219 11.0759 17.4219 11.0759C17.4219 11.0759 17.4219 11.0759 17.4219 11.0759C17.4219 11.0759 17.4219 11.0759 17.4219 11.0759C17.4219 11.0759 17.4219 11.0759 17.4219 11.0759C17.422 11.0759 17.422 11.0759 17.422 11.0759C17.422 11.0759 17.422 11.0759 17.422 11.0759C17.422 11.0759 17.422 11.0759 17.422 11.0759C17.422 11.0759 17.422 11.0759 17.422 11.0759C17.422 11.0759 17.422 11.0759 17.4221 11.0759C17.4221 11.0759 17.4221 11.0759 17.4221 11.0759C17.4221 11.0759 17.4221 11.0759 17.4221 11.0759C17.4221 11.0759 17.4221 11.0759 17.4221 11.0759C17.4221 11.0759 17.4221 11.0759 17.4221 11.0759C17.4221 11.0759 17.4222 11.0759 17.4222 11.0759C17.4222 11.0759 17.4222 11.0759 17.4222 11.0759C17.4222 11.0759 17.4222 11.0759 17.4222 11.0759C17.4222 11.0759 17.4222 11.0759 17.4222 11.0759C17.4222 11.0759 17.4222 11.0759 17.4222 11.0759C17.4222 11.0759 17.4223 11.0759 17.4223 11.0759C17.4223 11.0759 17.4223 11.0759 17.4223 11.0759C17.4223 11.0759 17.4223 11.0759 17.4223 11.0759C17.4223 11.0759 17.4223 11.0759 17.4223 11.0759C17.4223 11.0759 17.4223 11.0759 17.4223 11.0759C17.4223 11.0759 17.4223 11.0759 17.4224 11.0759C17.4224 11.0759 17.4224 11.0759 17.4224 11.0759C17.4224 11.0759 17.4224 11.0759 17.4224 11.0759C17.4224 11.0759 17.4224 11.0759 17.4224 11.0759C17.4224 11.0759 17.4224 11.0759 17.4224 11.0759C17.4224 11.0759 17.4224 11.0759 17.4225 11.0759C17.4225 11.0759 17.4225 11.0759 17.4225 11.0759C17.4225 11.0759 17.4225 11.0759 17.4225 11.0759C17.4225 11.0759 17.4225 11.0759 17.4225 11.0759C17.4225 11.0759 17.4225 11.0759 17.4225 11.0759C17.4225 11.0759 17.4225 11.0759 17.4225 11.0759C17.4225 11.0759 17.4226 11.0759 17.4226 11.0759C17.4226 11.0759 17.4226 11.0759 17.4226 11.0759C17.4226 11.0759 17.4226 11.0759 17.4226 11.0759C17.4226 11.0759 17.4226 11.0759 17.4226 11.0759C17.4226 11.0759 17.4226 11.0759 17.4226 11.0759C17.4226 11.0759 17.4226 11.0759 17.4226 11.0759C17.4226 11.0759 17.4227 11.0759 17.4227 11.0759C17.4227 11.0759 17.4227 11.0759 17.4227 11.0759C17.4227 11.0759 17.4227 11.0759 17.4227 11.0759C17.4227 11.0759 17.4227 11.0759 17.4227 11.0759C17.4227 11.0759 17.4227 11.0759 17.4227 11.0759C17.4227 11.0759 17.4227 11.0759 17.4227 11.0759C17.4227 11.0759 17.4228 11.0759 17.4228 11.0759C17.4228 11.0759 17.4228 11.0759 17.4228 11.0759C17.4228 11.0759 17.4228 11.0759 17.4228 11.0759C17.4228 11.0759 17.4228 11.0759 17.4228 11.0759C17.4228 11.0759 17.4228 11.0759 17.4228 11.0759C17.4228 11.0759 17.4228 11.0759 17.4228 11.0759C17.4228 11.0759 17.4228 11.0759 17.4229 11.0759C17.4229 11.0759 17.4229 11.0759 17.4229 11.0759C17.4229 11.0759 17.4229 11.0759 17.4229 11.0759C17.4229 11.0759 17.4229 11.0759 17.4229 11.0759C17.4229 11.0759 17.4229 11.0759 17.4229 11.0759C17.4229 11.0759 17.4229 11.0759 17.4229 11.0759C17.4229 11.0759 17.4229 11.0759 17.4229 11.0759C17.4229 11.0759 17.423 11.0759 17.423 11.0759C17.423 11.0759 17.423 11.0759 17.423 11.0759C17.423 11.0759 17.423 11.0759 17.423 11.0759C17.423 11.0759 17.423 11.0759 17.423 11.0759C17.423 11.0759 17.423 11.0759 17.423 11.0759C17.423 11.0759 17.423 11.0759 17.423 11.0759C17.423 11.0759 17.423 11.0759 17.423 11.0759C17.423 11.0759 17.423 11.0759 17.4231 11.0759C17.4231 11.0759 17.4231 11.0759 17.4231 11.0759C17.4231 11.0759 17.4231 11.0759 17.4231 11.0759C17.4231 11.0759 17.4231 11.0759 17.4231 11.0759C17.4231 11.0759 17.4231 11.0759 17.4231 11.0759C17.4231 11.0759 17.4231 11.0759 17.4231 11.0759C17.4231 11.0759 17.4231 11.0759 17.4231 11.0759C17.4231 11.0759 17.4231 11.0759 17.4231 11.0759C17.4231 11.0759 17.4232 11.0759 17.4232 11.0759C17.4232 11.0759 17.4232 11.0759 17.4232 11.0759C17.4232 11.0759 17.4232 11.0759 17.4232 11.0759C17.4232 11.0759 17.4232 11.0759 17.4232 11.0759C17.4232 11.0759 17.4232 11.0759 17.4232 11.0759C17.4232 11.0759 17.4232 11.0759 17.4232 11.0759C17.4232 11.0759 17.4232 11.0759 17.4232 11.0759C17.4232 11.0759 17.4232 11.0759 17.4232 11.0759C17.4232 11.0759 17.4233 11.0759 17.4233 11.0759C17.4233 11.0759 17.4233 11.0759 17.4233 11.0759C17.4233 11.0759 17.4233 11.0759 17.4233 11.0759C17.4233 11.0759 17.4233 11.0759 17.4233 11.0759C17.4233 11.0759 17.4233 11.0759 17.4233 11.0759C17.4233 11.0759 17.4233 11.0759 17.4233 11.0759C17.4233 11.0759 17.4233 11.0759 17.4233 11.0759C17.4233 11.0759 17.4233 11.0759 17.4233 11.0759C17.4233 11.0759 17.4233 11.0759 17.4233 11.0759C17.4233 11.0759 17.4234 11.0759 17.4234 11.0759C17.4234 11.0759 17.4234 11.0759 17.4234 11.0759C17.4234 11.0759 17.4234 11.0759 17.4234 11.0759C17.4234 11.0759 17.4234 11.0759 17.4234 11.0759C17.4234 11.0759 17.4234 11.0759 17.4234 11.0759C17.4234 11.0759 17.4234 11.0759 17.4234 11.0759C17.4234 11.0759 17.4234 11.0759 17.4234 11.0759C17.4234 11.0759 17.4234 11.0759 17.4234 11.0759C17.4234 11.0759 17.4234 11.0759 17.4234 11.0759C17.4234 11.0759 17.4234 11.0759 17.4234 11.0759C17.4235 11.0759 17.4235 11.0759 17.4235 11.0759C17.4235 11.0759 17.4235 11.0759 17.4235 11.0759C17.4235 11.0759 17.4235 11.0759 17.4235 11.0759C17.4235 11.0759 17.4235 11.0759 17.4235 11.0759C17.4235 11.0759 17.4235 11.0759 17.4235 11.0759C17.4235 11.0759 17.4235 11.0759 17.4235 11.0759C17.4235 11.0759 17.4235 11.0759 17.4235 11.0759C17.4235 11.0759 17.4235 11.0759 17.4235 11.0759C17.4235 11.0759 17.4235 11.0759 17.4235 11.0759C17.4235 11.0759 17.4235 11.0759 17.4235 11.0759C17.4235 11.0759 17.4235 11.0759 17.4236 11.0759C17.4236 11.0759 17.4236 11.0759 17.4236 11.0759C17.4236 11.0759 17.4236 11.0759 17.4236 11.0759C17.4236 11.0759 17.4236 11.0759 17.4236 11.0759C17.4236 11.0759 17.4236 11.0759 17.4236 11.0759C17.4236 11.0759 17.4236 11.0759 17.4236 11.0759C17.4236 11.0759 17.4236 11.0759 17.4236 11.0759C17.4236 11.0759 17.4236 11.0759 17.4236 11.0759C17.4236 11.0759 17.4236 11.0759 17.4236 11.0759C17.4236 11.0759 17.4236 11.0759 17.4236 11.0759C17.4236 11.0759 17.4236 11.0759 17.4236 11.0759C17.4236 11.0759 17.4236 11.0759 17.4236 11.0759C17.4236 11.0759 17.4236 11.0759 17.4237 11.0759C17.4237 11.0759 17.4237 11.0759 17.4237 11.0759C17.4237 11.0759 17.4237 11.0759 17.4237 11.0759C17.4237 11.0759 17.4237 11.0759 17.4237 11.0759C17.4237 11.0759 17.4237 11.0759 17.4237 11.0759C17.4237 11.0759 17.4237 11.0759 17.4237 11.0759C17.4237 11.0759 17.4237 11.0759 17.4237 11.0759C17.4237 11.0759 17.4237 11.0759 17.4237 11.0759C17.4237 11.0759 17.4237 11.0759 17.4237 11.0759C17.4237 11.0759 17.4237 11.0759 17.4237 11.0759C17.4237 11.0759 17.4237 11.0759 17.4237 11.0759C17.4237 11.0759 17.4237 11.0759 17.4237 11.0759C17.4237 11.0759 17.4237 11.0759 17.4237 11.0759C17.4237 11.0759 17.4237 11.0759 17.4237 11.0759C17.4237 11.0759 17.4237 11.0759 17.4237 11.0759C17.4238 11.0759 17.4238 11.0759 17.4238 11.0759C17.4238 11.0759 17.4238 11.0759 17.4238 11.0759C17.4238 11.0759 17.4238 11.0759 17.4238 11.0759C17.4238 11.0759 17.4238 11.0759 17.4238 11.0759C17.4238 11.0759 17.4238 11.0759 17.4238 11.0759C17.4238 11.0759 17.4238 11.0759 17.4238 11.0759C17.4238 11.0759 17.4238 11.0759 17.4238 11.0759C17.4238 11.0759 17.4238 11.0759 17.4238 11.0759C17.4238 11.0759 17.4238 11.0759 17.4238 11.0759C17.4238 11.0759 17.4238 11.0759 17.4238 11.0759C17.4238 11.0759 17.4238 11.0759 17.4238 11.0759C17.4238 11.0759 17.4238 11.0759 17.4238 11.0759C17.4238 11.0759 17.4238 11.0759 17.4238 11.0759C17.4238 11.0759 17.4238 11.0759 17.4238 11.0759C17.4238 11.0759 17.4238 11.0759 17.4238 11.0759C17.4238 11.0759 17.4238 11.0759 17.4238 11.0759C17.4238 11.0759 17.4238 11.0759 17.4238 11.0759C17.4239 11.0759 17.4239 11.0759 17.4239 11.0759C17.4239 11.0759 17.4239 11.0759 17.4239 11.0759C17.4239 11.0759 17.4239 11.0759 17.4239 11.0759C17.4239 11.0759 17.4239 11.0759 17.4239 11.0759C17.4239 11.0759 17.4239 11.0759 17.4239 11.0759C17.4239 11.0759 17.4239 11.0759 17.4239 11.0759C17.4239 11.0759 17.4239 11.0759 17.4239 11.0759C17.4239 11.0759 17.4239 11.0759 17.4239 11.0759C17.4239 11.0759 17.4239 11.0759 17.4239 11.0759C17.4239 11.0759 17.4239 11.0759 17.4239 11.0759C17.4239 11.0759 17.4239 11.0759 17.4239 11.0759C17.4239 11.0759 17.4239 11.0759 17.4239 11.0759C17.4239 11.0759 17.4239 11.0759 17.4239 11.0759C17.4239 11.0759 17.4239 11.0759 17.4239 11.0759C17.4239 11.0759 17.4239 11.0759 17.4239 11.0759C17.4239 11.0759 17.4239 11.0759 17.4239 11.0759C17.4239 11.0759 17.4239 11.0759 17.4239 11.0759C17.4239 11.0759 17.4239 11.0759 17.4239 11.0759C17.4239 11.0759 17.4239 11.0759 17.4239 11.0759C17.4239 11.0759 17.4239 11.0759 17.4239 11.0759C17.4239 11.0759 17.4239 11.0759 17.4239 11.0759C17.4239 11.0759 17.4239 11.0759 17.4239 11.0759C17.4239 11.0759 17.4239 11.0759 17.424 11.0759C17.424 11.0759 17.424 11.0759 17.424 11.0759C17.424 11.0759 17.424 11.0759 17.424 11.0759C17.424 11.0759 17.424 11.0759 17.424 11.0759C17.424 11.0759 17.424 11.0759 17.424 11.0759C17.424 11.0759 17.424 11.0759 17.424 11.0759C17.424 11.0759 17.424 11.0759 17.424 11.0759C17.424 11.0759 17.424 11.0759 17.424 11.0759C17.424 11.0759 17.424 11.0759 17.424 11.0759C17.424 11.0759 17.424 11.0759 17.424 11.0759C17.424 11.0759 17.424 11.0759 17.424 11.0759C17.424 11.0759 17.424 11.0759 17.424 11.0759C17.424 11.0759 17.424 11.0759 17.424 11.0759C17.424 11.0759 17.424 11.0759 17.424 11.0759C17.424 11.0759 17.424 11.0759 17.424 11.0759C17.424 11.0759 17.424 11.0759 17.424 11.0759C17.424 11.0759 17.424 11.0759 17.424 11.0759C17.424 11.0759 17.424 11.0759 17.424 11.0759C17.424 11.0759 17.424 11.0759 17.424 11.0759C17.424 11.0759 17.424 11.0759 17.424 11.0759C17.424 11.0759 17.424 11.0759 17.424 11.0759C17.424 11.0759 17.424 11.0759 17.424 11.0759C17.424 11.0759 17.424 11.0759 17.424 11.0759C17.424 11.0759 17.424 11.0759 17.424 11.0759C17.424 11.0759 17.424 11.0759 17.424 11.0759C17.424 11.0759 17.424 11.0759 17.424 11.0759C17.424 11.0759 17.424 11.0759 17.424 11.0759C17.424 11.0759 17.424 11.0759 17.424 11.0759C17.424 11.0759 17.424 11.0759 17.424 11.0759C17.424 11.0759 17.424 11.0759 17.424 11.0759C17.424 11.0759 17.424 11.0759 17.424 11.0759C17.424 11.0759 17.424 11.0759 17.424 11.0759C17.424 11.0759 17.424 11.0759 17.424 11.0759C17.424 11.0759 17.424 11.0759 17.424 11.0759C17.424 11.0759 17.424 11.0759 17.424 11.0759C17.424 11.0759 17.424 11.0759 17.424 11.0759H17.424C17.424 11.0759 17.424 11.0759 17.424 11.0759C17.4241 11.0759 17.4241 11.0759 17.4241 11.0759C17.4241 11.0759 17.4241 11.0759 17.4241 11.0759C17.4241 11.0759 17.4241 11.0759 17.4241 11.0759H17.4241C17.4241 11.0759 17.4241 11.0759 17.4241 11.0759C17.4241 11.0759 17.4241 11.0759 17.4241 11.0759H17.4241C17.4241 11.0759 17.4241 11.0759 17.4241 11.0759H17.4241C17.4241 11.0759 17.4241 11.0759 17.4241 11.0759H17.4241C17.4241 11.0759 17.4241 11.0759 17.4241 11.0759H17.4241H17.4241C17.4241 11.0759 17.4241 11.0759 17.4241 11.0759C17.4241 11.0759 17.4241 11.0759 17.4241 11.0759H17.4241H17.4241C17.4241 11.0759 17.4241 11.0759 17.4241 11.0759C17.4241 11.0759 17.4241 11.0759 17.4241 11.0759C17.4241 11.0759 17.4241 11.0759 17.4241 11.0759C17.4241 11.0759 17.4241 11.0759 17.4241 11.0759C17.4241 11.0759 17.4241 11.0759 17.4241 11.0759C17.4241 11.0759 17.4241 11.0759 17.4241 11.0759C17.4241 11.0759 17.4241 11.0759 17.4241 11.0759C17.4241 11.0759 17.4241 11.0759 17.4241 11.0759C17.4241 11.0759 17.4241 11.0759 17.4241 11.0759H17.4241H17.4241C17.4241 11.0759 17.4241 11.0759 17.4241 11.0759C17.4241 11.0759 17.4241 11.0759 17.4241 11.0759H17.4241C17.4241 11.0759 17.4241 11.0759 17.4241 11.0759C17.4241 11.0759 17.4241 11.0759 17.4241 11.0759H17.4241C17.4241 11.0759 17.4241 11.0759 17.4241 11.0759C17.4241 11.0759 17.4241 11.0759 17.4241 11.0759H17.4241C17.4241 11.0759 17.4241 11.0759 17.4241 11.0759H17.4241C17.4241 11.0759 17.4241 11.0759 17.4241 11.0759C17.4241 11.0759 17.4241 11.0759 17.4241 11.0759H17.4241C17.4241 10.5759 17.4241 10.0759 17.4241 10.5759ZM17.434 10.0764C17.1645 10.065 16.8734 10.0531 16.569 10.0531V11.0531C16.8496 11.0531 17.1211 11.064 17.3917 11.0755L17.434 10.0764ZM16.5901 10.0535C16.0404 10.0302 15.3485 10.008 14.8222 9.96343L14.7379 10.9599C15.2918 11.0067 16.0175 11.0302 16.5479 11.0526L16.5901 10.0535ZM14.8222 9.96343C14.7771 9.95961 14.7737 9.95145 14.7906 9.96137C14.7992 9.96639 14.81 9.97438 14.8208 9.98574C14.8315 9.99704 14.8395 10.0087 14.8449 10.0189C14.8552 10.0383 14.8527 10.0453 14.8513 10.0274C14.8507 10.0191 14.8504 10.007 14.8513 9.99068C14.8522 9.97444 14.8542 9.95549 14.8576 9.93381L13.8698 9.7782C13.8413 9.9592 13.8266 10.2331 13.9614 10.4873C14.1182 10.7832 14.4085 10.932 14.7379 10.9599L14.8222 9.96343ZM14.8307 10.0348C15.2466 8.94857 15.4738 7.72704 15.4259 6.511L14.4267 6.55036C14.4688 7.61977 14.2685 8.70654 13.8968 9.67721L14.8307 10.0348ZM15.4258 6.50754C15.3742 5.39451 14.6419 4.15181 13.3959 4.01121L13.2838 5.00491C13.8606 5.07 14.3884 5.72422 14.4268 6.55382L15.4258 6.50754ZM13.3926 4.01085C12.8914 3.95766 12.4085 4.10205 12.0771 4.42952C11.7355 4.76706 11.601 5.25702 11.745 5.76439L12.707 5.49146C12.6597 5.32463 12.7052 5.21466 12.78 5.14082C12.8649 5.05692 13.0345 4.97847 13.2871 5.00527L13.3926 4.01085ZM11.7452 5.76528C11.9863 6.60918 11.5582 7.6351 10.6195 8.72389C9.70341 9.78644 8.40994 10.7779 7.23848 11.4985L7.7624 12.3502C8.98746 11.5967 10.3718 10.5426 11.3769 9.37687C12.3593 8.23736 13.0957 6.85213 12.7068 5.49058L11.7452 5.76528ZM7.00044 11.9243V18.7807H8.00044V11.9243H7.00044ZM7.23386 19.2037C9.22119 20.4561 12.3624 21.064 15.9262 20.9947L15.9067 19.9949C12.4271 20.0626 9.51512 19.4593 7.76701 18.3577L7.23386 19.2037ZM15.9164 20.9948C16.1442 20.9948 16.3834 20.9826 16.6361 20.9714L16.5919 19.9724C16.327 19.9841 16.1162 19.9948 15.9164 19.9948V20.9948ZM16.614 20.9719C16.6141 20.9719 16.6141 20.9719 16.6142 20.9719C16.6143 20.9719 16.6143 20.9719 16.6144 20.9719C16.6145 20.9719 16.6145 20.9719 16.6146 20.9719C16.6147 20.9719 16.6147 20.9719 16.6148 20.9719C16.6149 20.9719 16.6149 20.9719 16.615 20.9719C16.6151 20.9719 16.6151 20.9719 16.6152 20.9719C16.6153 20.9719 16.6153 20.9719 16.6154 20.9719C16.6155 20.9719 16.6155 20.9719 16.6156 20.9719C16.6157 20.9719 16.6157 20.9719 16.6158 20.9719C16.6159 20.9719 16.6159 20.9719 16.616 20.9719C16.616 20.9719 16.6161 20.9719 16.6162 20.9719C16.6162 20.9719 16.6163 20.9719 16.6164 20.9719C16.6164 20.9719 16.6165 20.9719 16.6166 20.9719C16.6166 20.9719 16.6167 20.9719 16.6168 20.9719C16.6168 20.9719 16.6169 20.9719 16.617 20.9719C16.617 20.9719 16.6171 20.9719 16.6172 20.9719C16.6172 20.9719 16.6173 20.9719 16.6174 20.9719C16.6174 20.9719 16.6175 20.9719 16.6176 20.9719C16.6176 20.9719 16.6177 20.9719 16.6178 20.9719C16.6178 20.9719 16.6179 20.9719 16.618 20.9719C16.618 20.9719 16.6181 20.9719 16.6182 20.9719C16.6182 20.9719 16.6183 20.9719 16.6184 20.9719C16.6184 20.9719 16.6185 20.9719 16.6186 20.9719C16.6186 20.9719 16.6187 20.9719 16.6188 20.9719C16.6188 20.9719 16.6189 20.9719 16.6189 20.9719C16.619 20.9719 16.6191 20.9719 16.6191 20.9719C16.6192 20.9719 16.6193 20.9719 16.6193 20.9719C16.6194 20.9719 16.6195 20.9719 16.6195 20.9719C16.6196 20.9719 16.6197 20.9719 16.6197 20.9719C16.6198 20.9719 16.6199 20.9719 16.6199 20.9719C16.62 20.9719 16.6201 20.9719 16.6201 20.9719C16.6202 20.9719 16.6203 20.9719 16.6203 20.9719C16.6204 20.9719 16.6205 20.9719 16.6205 20.9719C16.6206 20.9719 16.6207 20.9719 16.6207 20.9719C16.6208 20.9719 16.6209 20.9719 16.6209 20.9719C16.621 20.9719 16.6211 20.9719 16.6211 20.9719C16.6212 20.9719 16.6213 20.9719 16.6213 20.9719C16.6214 20.9719 16.6215 20.9719 16.6215 20.9719C16.6216 20.9719 16.6217 20.9719 16.6217 20.9719C16.6218 20.9719 16.6219 20.9719 16.6219 20.9719C16.622 20.9719 16.622 20.9719 16.6221 20.9719C16.6222 20.9719 16.6222 20.9719 16.6223 20.9719C16.6224 20.9719 16.6224 20.9719 16.6225 20.9719C16.6226 20.9719 16.6226 20.9719 16.6227 20.9719C16.6228 20.9719 16.6228 20.9719 16.6229 20.9719C16.623 20.9719 16.623 20.9719 16.6231 20.9719C16.6232 20.9719 16.6232 20.9719 16.6233 20.9719C16.6234 20.9719 16.6234 20.9719 16.6235 20.9719C16.6236 20.9719 16.6236 20.9719 16.6237 20.9719C16.6238 20.9719 16.6238 20.9719 16.6239 20.9719C16.624 20.9719 16.624 20.9719 16.6241 20.9719C16.6242 20.9719 16.6242 20.9719 16.6243 20.9719C16.6244 20.9719 16.6244 20.9719 16.6245 20.9719C16.6246 20.9719 16.6246 20.9719 16.6247 20.9719C16.6248 20.9719 16.6248 20.9719 16.6249 20.9719C16.6249 20.9719 16.625 20.9719 16.6251 20.9719C16.6251 20.9719 16.6252 20.9719 16.6253 20.9719C16.6253 20.9719 16.6254 20.9719 16.6255 20.9719C16.6255 20.9719 16.6256 20.9719 16.6257 20.9719C16.6257 20.9719 16.6258 20.9719 16.6259 20.9719C16.6259 20.9719 16.626 20.9719 16.6261 20.9719C16.6261 20.9719 16.6262 20.9719 16.6263 20.9719C16.6263 20.9719 16.6264 20.9719 16.6265 20.9719C16.6265 20.9719 16.6266 20.9719 16.6267 20.9719C16.6267 20.9719 16.6268 20.9719 16.6269 20.9719C16.6269 20.9719 16.627 20.9719 16.6271 20.9719C16.6271 20.9719 16.6272 20.9719 16.6273 20.9719C16.6273 20.9719 16.6274 20.9719 16.6275 20.9719C16.6275 20.9719 16.6276 20.9719 16.6277 20.9719C16.6277 20.9719 16.6278 20.9719 16.6278 20.9719C16.6279 20.9719 16.628 20.9719 16.628 20.9719C16.6281 20.9719 16.6282 20.9719 16.6282 20.9719C16.6283 20.9719 16.6284 20.9719 16.6284 20.9719C16.6285 20.9719 16.6286 20.9719 16.6286 20.9719C16.6287 20.9719 16.6288 20.9719 16.6288 20.9719C16.6289 20.9719 16.629 20.9719 16.629 20.9719C16.6291 20.9719 16.6292 20.9719 16.6292 20.9719C16.6293 20.9719 16.6294 20.9719 16.6294 20.9719C16.6295 20.9719 16.6296 20.9719 16.6296 20.9719C16.6297 20.9719 16.6298 20.9719 16.6298 20.9719C16.6299 20.9719 16.63 20.9719 16.63 20.9719C16.6301 20.9719 16.6302 20.9719 16.6302 20.9719C16.6303 20.9719 16.6304 20.9719 16.6304 20.9719C16.6305 20.9719 16.6306 20.9719 16.6306 20.9719C16.6307 20.9719 16.6308 20.9719 16.6308 20.9719C16.6309 20.9719 16.6309 20.9719 16.631 20.9719C16.6311 20.9719 16.6311 20.9719 16.6312 20.9719C16.6313 20.9719 16.6313 20.9719 16.6314 20.9719C16.6315 20.9719 16.6315 20.9719 16.6316 20.9719C16.6317 20.9719 16.6317 20.9719 16.6318 20.9719C16.6319 20.9719 16.6319 20.9719 16.632 20.9719C16.6321 20.9719 16.6321 20.9719 16.6322 20.9719C16.6323 20.9719 16.6323 20.9719 16.6324 20.9719C16.6325 20.9719 16.6325 20.9719 16.6326 20.9719C16.6327 20.9719 16.6327 20.9719 16.6328 20.9719C16.6329 20.9719 16.6329 20.9719 16.633 20.9719C16.6331 20.9719 16.6331 20.9719 16.6332 20.9719C16.6333 20.9719 16.6333 20.9719 16.6334 20.9719C16.6335 20.9719 16.6335 20.9719 16.6336 20.9719C16.6337 20.9719 16.6337 20.9719 16.6338 20.9719C16.6338 20.9719 16.6339 20.9719 16.634 20.9719C16.634 20.9719 16.6341 20.9719 16.6342 20.9719C16.6342 20.9719 16.6343 20.9719 16.6344 20.9719C16.6344 20.9719 16.6345 20.9719 16.6346 20.9719C16.6346 20.9719 16.6347 20.9719 16.6348 20.9719C16.6348 20.9719 16.6349 20.9719 16.635 20.9719C16.635 20.9719 16.6351 20.9719 16.6352 20.9719C16.6352 20.9719 16.6353 20.9719 16.6354 20.9719C16.6354 20.9719 16.6355 20.9719 16.6356 20.9719C16.6356 20.9719 16.6357 20.9719 16.6358 20.9719C16.6358 20.9719 16.6359 20.9719 16.636 20.9719C16.636 20.9719 16.6361 20.9719 16.6362 20.9719C16.6362 20.9719 16.6363 20.9719 16.6364 20.9719C16.6364 20.9719 16.6365 20.9719 16.6366 20.9719C16.6366 20.9719 16.6367 20.9719 16.6367 20.9719C16.6368 20.9719 16.6369 20.9719 16.6369 20.9719C16.637 20.9719 16.6371 20.9719 16.6371 20.9719C16.6372 20.9719 16.6373 20.9719 16.6373 20.9719C16.6374 20.9719 16.6375 20.9719 16.6375 20.9719C16.6376 20.9719 16.6377 20.9719 16.6377 20.9719C16.6378 20.9719 16.6379 20.9719 16.6379 20.9719C16.638 20.9719 16.6381 20.9719 16.6381 20.9719C16.6382 20.9719 16.6383 20.9719 16.6383 20.9719C16.6384 20.9719 16.6385 20.9719 16.6385 20.9719C16.6386 20.9719 16.6387 20.9719 16.6387 20.9719C16.6388 20.9719 16.6389 20.9719 16.6389 20.9719C16.639 20.9719 16.6391 20.9719 16.6391 20.9719C16.6392 20.9719 16.6393 20.9719 16.6393 20.9719C16.6394 20.9719 16.6395 20.9719 16.6395 20.9719C16.6396 20.9719 16.6397 20.9719 16.6397 20.9719C16.6398 20.9719 16.6398 20.9719 16.6399 20.9719C16.64 20.9719 16.64 20.9719 16.6401 20.9719C16.6402 20.9719 16.6402 20.9719 16.6403 20.9719C16.6404 20.9719 16.6404 20.9719 16.6405 20.9719C16.6406 20.9719 16.6406 20.9719 16.6407 20.9719C16.6408 20.9719 16.6408 20.9719 16.6409 20.9719C16.641 20.9719 16.641 20.9719 16.6411 20.9719C16.6412 20.9719 16.6412 20.9719 16.6413 20.9719C16.6414 20.9719 16.6414 20.9719 16.6415 20.9719C16.6416 20.9719 16.6416 20.9719 16.6417 20.9719C16.6418 20.9719 16.6418 20.9719 16.6419 20.9719C16.642 20.9719 16.642 20.9719 16.6421 20.9719C16.6422 20.9719 16.6422 20.9719 16.6423 20.9719C16.6424 20.9719 16.6424 20.9719 16.6425 20.9719C16.6426 20.9719 16.6426 20.9719 16.6427 20.9719C16.6427 20.9719 16.6428 20.9719 16.6429 20.9719C16.6429 20.9719 16.643 20.9719 16.6431 20.9719C16.6431 20.9719 16.6432 20.9719 16.6433 20.9719C16.6433 20.9719 16.6434 20.9719 16.6435 20.9719C16.6435 20.9719 16.6436 20.9719 16.6437 20.9719C16.6437 20.9719 16.6438 20.9719 16.6439 20.9719C16.6439 20.9719 16.644 20.9719 16.6441 20.9719C16.6441 20.9719 16.6442 20.9719 16.6443 20.9719C16.6443 20.9719 16.6444 20.9719 16.6445 20.9719C16.6445 20.9719 16.6446 20.9719 16.6447 20.9719C16.6447 20.9719 16.6448 20.9719 16.6449 20.9719C16.6449 20.9719 16.645 20.9719 16.6451 20.9719C16.6451 20.9719 16.6452 20.9719 16.6453 20.9719C16.6453 20.9719 16.6454 20.9719 16.6455 20.9719C16.6455 20.9719 16.6456 20.9719 16.6456 20.9719C16.6457 20.9719 16.6458 20.9719 16.6458 20.9719C16.6459 20.9719 16.646 20.9719 16.646 20.9719C16.6461 20.9719 16.6462 20.9719 16.6462 20.9719C16.6463 20.9719 16.6464 20.9719 16.6464 20.9719C16.6465 20.9719 16.6466 20.9719 16.6466 20.9719C16.6467 20.9719 16.6468 20.9719 16.6468 20.9719C16.6469 20.9719 16.647 20.9719 16.647 20.9719C16.6471 20.9719 16.6472 20.9719 16.6472 20.9719C16.6473 20.9719 16.6474 20.9719 16.6474 20.9719C16.6475 20.9719 16.6476 20.9719 16.6476 20.9719C16.6477 20.9719 16.6478 20.9719 16.6478 20.9719C16.6479 20.9719 16.648 20.9719 16.648 20.9719C16.6481 20.9719 16.6482 20.9719 16.6482 20.9719C16.6483 20.9719 16.6484 20.9719 16.6484 20.9719C16.6485 20.9719 16.6486 20.9719 16.6486 20.9719C16.6487 20.9719 16.6487 20.9719 16.6488 20.9719C16.6489 20.9719 16.6489 20.9719 16.649 20.9719C16.6491 20.9719 16.6491 20.9719 16.6492 20.9719C16.6493 20.9719 16.6493 20.9719 16.6494 20.9719C16.6495 20.9719 16.6495 20.9719 16.6496 20.9719C16.6497 20.9719 16.6497 20.9719 16.6498 20.9719C16.6499 20.9719 16.6499 20.9719 16.65 20.9719C16.6501 20.9719 16.6501 20.9719 16.6502 20.9719C16.6503 20.9719 16.6503 20.9719 16.6504 20.9719C16.6505 20.9719 16.6505 20.9719 16.6506 20.9719C16.6507 20.9719 16.6507 20.9719 16.6508 20.9719C16.6509 20.9719 16.6509 20.9719 16.651 20.9719C16.6511 20.9719 16.6511 20.9719 16.6512 20.9719C16.6513 20.9719 16.6513 20.9719 16.6514 20.9719C16.6515 20.9719 16.6515 20.9719 16.6516 20.9719C16.6516 20.9719 16.6517 20.9719 16.6518 20.9719C16.6518 20.9719 16.6519 20.9719 16.652 20.9719C16.652 20.9719 16.6521 20.9719 16.6522 20.9719C16.6522 20.9719 16.6523 20.9719 16.6524 20.9719C16.6524 20.9719 16.6525 20.9719 16.6526 20.9719C16.6526 20.9719 16.6527 20.9719 16.6528 20.9719C16.6528 20.9719 16.6529 20.9719 16.653 20.9719C16.653 20.9719 16.6531 20.9719 16.6532 20.9719C16.6532 20.9719 16.6533 20.9719 16.6534 20.9719C16.6534 20.9719 16.6535 20.9719 16.6536 20.9719C16.6536 20.9719 16.6537 20.9719 16.6538 20.9719C16.6538 20.9719 16.6539 20.9719 16.654 20.9719C16.654 20.9719 16.6541 20.9719 16.6542 20.9719C16.6542 20.9719 16.6543 20.9719 16.6544 20.9719C16.6544 20.9719 16.6545 20.9719 16.6545 20.9719C16.6546 20.9719 16.6547 20.9719 16.6547 20.9719C16.6548 20.9719 16.6549 20.9719 16.6549 20.9719C16.655 20.9719 16.6551 20.9719 16.6551 20.9719C16.6552 20.9719 16.6553 20.9719 16.6553 20.9719C16.6554 20.9719 16.6555 20.9719 16.6555 20.9719C16.6556 20.9719 16.6557 20.9719 16.6557 20.9719C16.6558 20.9719 16.6559 20.9719 16.6559 20.9719C16.656 20.9719 16.6561 20.9719 16.6561 20.9719C16.6562 20.9719 16.6563 20.9719 16.6563 20.9719C16.6564 20.9719 16.6565 20.9719 16.6565 20.9719C16.6566 20.9719 16.6567 20.9719 16.6567 20.9719C16.6568 20.9719 16.6569 20.9719 16.6569 20.9719C16.657 20.9719 16.6571 20.9719 16.6571 20.9719C16.6572 20.9719 16.6573 20.9719 16.6573 20.9719C16.6574 20.9719 16.6574 20.9719 16.6575 20.9719C16.6576 20.9719 16.6576 20.9719 16.6577 20.9719C16.6578 20.9719 16.6578 20.9719 16.6579 20.9719C16.658 20.9719 16.658 20.9719 16.6581 20.9719C16.6582 20.9719 16.6582 20.9719 16.6583 20.9719C16.6584 20.9719 16.6584 20.9719 16.6585 20.9719C16.6586 20.9719 16.6586 20.9719 16.6587 20.9719C16.6588 20.9719 16.6588 20.9719 16.6589 20.9719C16.659 20.9719 16.659 20.9719 16.6591 20.9719C16.6592 20.9719 16.6592 20.9719 16.6593 20.9719C16.6594 20.9719 16.6594 20.9719 16.6595 20.9719C16.6596 20.9719 16.6596 20.9719 16.6597 20.9719C16.6598 20.9719 16.6598 20.9719 16.6599 20.9719C16.66 20.9719 16.66 20.9719 16.6601 20.9719C16.6602 20.9719 16.6602 20.9719 16.6603 20.9719C16.6604 20.9719 16.6604 20.9719 16.6605 20.9719C16.6605 20.9719 16.6606 20.9719 16.6607 20.9719C16.6607 20.9719 16.6608 20.9719 16.6609 20.9719C16.6609 20.9719 16.661 20.9719 16.6611 20.9719C16.6611 20.9719 16.6612 20.9719 16.6613 20.9719C16.6613 20.9719 16.6614 20.9719 16.6615 20.9719C16.6615 20.9719 16.6616 20.9719 16.6617 20.9719C16.6617 20.9719 16.6618 20.9719 16.6619 20.9719C16.6619 20.9719 16.662 20.9719 16.6621 20.9719C16.6621 20.9719 16.6622 20.9719 16.6623 20.9719C16.6623 20.9719 16.6624 20.9719 16.6625 20.9719C16.6625 20.9719 16.6626 20.9719 16.6627 20.9719C16.6627 20.9719 16.6628 20.9719 16.6629 20.9719C16.6629 20.9719 16.663 20.9719 16.6631 20.9719C16.6631 20.9719 16.6632 20.9719 16.6633 20.9719C16.6633 20.9719 16.6634 20.9719 16.6634 20.9719C16.6635 20.9719 16.6636 20.9719 16.6636 20.9719C16.6637 20.9719 16.6638 20.9719 16.6638 20.9719C16.6639 20.9719 16.664 20.9719 16.664 20.9719C16.6641 20.9719 16.6642 20.9719 16.6642 20.9719C16.6643 20.9719 16.6644 20.9719 16.6644 20.9719C16.6645 20.9719 16.6646 20.9719 16.6646 20.9719C16.6647 20.9719 16.6648 20.9719 16.6648 20.9719C16.6649 20.9719 16.665 20.9719 16.665 20.9719C16.6651 20.9719 16.6652 20.9719 16.6652 20.9719C16.6653 20.9719 16.6654 20.9719 16.6654 20.9719C16.6655 20.9719 16.6656 20.9719 16.6656 20.9719C16.6657 20.9719 16.6658 20.9719 16.6658 20.9719C16.6659 20.9719 16.666 20.9719 16.666 20.9719C16.6661 20.9719 16.6662 20.9719 16.6662 20.9719C16.6663 20.9719 16.6663 20.9719 16.6664 20.9719C16.6665 20.9719 16.6665 20.9719 16.6666 20.9719C16.6667 20.9719 16.6667 20.9719 16.6668 20.9719C16.6669 20.9719 16.6669 20.9719 16.667 20.9719C16.6671 20.9719 16.6671 20.9719 16.6672 20.9719C16.6673 20.9719 16.6673 20.9719 16.6674 20.9719C16.6675 20.9719 16.6675 20.9719 16.6676 20.9719C16.6677 20.9719 16.6677 20.9719 16.6678 20.9719C16.6679 20.9719 16.6679 20.9719 16.668 20.9719C16.6681 20.9719 16.6681 20.9719 16.6682 20.9719C16.6683 20.9719 16.6683 20.9719 16.6684 20.9719C16.6685 20.9719 16.6685 20.9719 16.6686 20.9719C16.6687 20.9719 16.6687 20.9719 16.6688 20.9719C16.6689 20.9719 16.6689 20.9719 16.669 20.9719C16.6691 20.9719 16.6691 20.9719 16.6692 20.9719C16.6693 20.9719 16.6693 20.9719 16.6694 20.9719C16.6694 20.9719 16.6695 20.9719 16.6696 20.9719C16.6696 20.9719 16.6697 20.9719 16.6698 20.9719C16.6698 20.9719 16.6699 20.9719 16.67 20.9719C16.67 20.9719 16.6701 20.9719 16.6702 20.9719C16.6702 20.9719 16.6703 20.9719 16.6704 20.9719C16.6704 20.9719 16.6705 20.9719 16.6706 20.9719C16.6706 20.9719 16.6707 20.9719 16.6708 20.9719C16.6708 20.9719 16.6709 20.9719 16.671 20.9719C16.671 20.9719 16.6711 20.9719 16.6712 20.9719C16.6712 20.9719 16.6713 20.9719 16.6714 20.9719C16.6714 20.9719 16.6715 20.9719 16.6716 20.9719C16.6716 20.9719 16.6717 20.9719 16.6718 20.9719C16.6718 20.9719 16.6719 20.9719 16.672 20.9719C16.672 20.9719 16.6721 20.9719 16.6722 20.9719C16.6722 20.9719 16.6723 20.9719 16.6723 20.9719C16.6724 20.9719 16.6725 20.9719 16.6725 20.9719C16.6726 20.9719 16.6727 20.9719 16.6727 20.9719C16.6728 20.9719 16.6729 20.9719 16.6729 20.9719C16.673 20.9719 16.6731 20.9719 16.6731 20.9719C16.6732 20.9719 16.6733 20.9719 16.6733 20.9719C16.6734 20.9719 16.6735 20.9719 16.6735 20.9719C16.6736 20.9719 16.6737 20.9719 16.6737 20.9719C16.6738 20.9719 16.6739 20.9719 16.6739 20.9719C16.674 20.9719 16.6741 20.9719 16.6741 20.9719C16.6742 20.9719 16.6743 20.9719 16.6743 20.9719C16.6744 20.9719 16.6745 20.9719 16.6745 20.9719C16.6746 20.9719 16.6747 20.9719 16.6747 20.9719C16.6748 20.9719 16.6749 20.9719 16.6749 20.9719C16.675 20.9719 16.6751 20.9719 16.6751 20.9719C16.6752 20.9719 16.6752 20.9719 16.6753 20.9719C16.6754 20.9719 16.6754 20.9719 16.6755 20.9719C16.6756 20.9719 16.6756 20.9719 16.6757 20.9719C16.6758 20.9719 16.6758 20.9719 16.6759 20.9719C16.676 20.9719 16.676 20.9719 16.6761 20.9719C16.6762 20.9719 16.6762 20.9719 16.6763 20.9719C16.6764 20.9719 16.6764 20.9719 16.6765 20.9719C16.6766 20.9719 16.6766 20.9719 16.6767 20.9719C16.6768 20.9719 16.6768 20.9719 16.6769 20.9719C16.677 20.9719 16.677 20.9719 16.6771 20.9719C16.6772 20.9719 16.6772 20.9719 16.6773 20.9719C16.6774 20.9719 16.6774 20.9719 16.6775 20.9719C16.6776 20.9719 16.6776 20.9719 16.6777 20.9719C16.6778 20.9719 16.6778 20.9719 16.6779 20.9719C16.678 20.9719 16.678 20.9719 16.6781 20.9719C16.6782 20.9719 16.6782 20.9719 16.6783 20.9719C16.6783 20.9719 16.6784 20.9719 16.6785 20.9719C16.6785 20.9719 16.6786 20.9719 16.6787 20.9719C16.6787 20.9719 16.6788 20.9719 16.6789 20.9719C16.6789 20.9719 16.679 20.9719 16.6791 20.9719C16.6791 20.9719 16.6792 20.9719 16.6793 20.9719C16.6793 20.9719 16.6794 20.9719 16.6795 20.9719C16.6795 20.9719 16.6796 20.9719 16.6797 20.9719C16.6797 20.9719 16.6798 20.9719 16.6799 20.9719C16.6799 20.9719 16.68 20.9719 16.6801 20.9719C16.6801 20.9719 16.6802 20.9719 16.6803 20.9719C16.6803 20.9719 16.6804 20.9719 16.6805 20.9719C16.6805 20.9719 16.6806 20.9719 16.6807 20.9719C16.6807 20.9719 16.6808 20.9719 16.6809 20.9719C16.6809 20.9719 16.681 20.9719 16.6811 20.9719C16.6811 20.9719 16.6812 20.9719 16.6812 20.9719C16.6813 20.9719 16.6814 20.9719 16.6814 20.9719C16.6815 20.9719 16.6816 20.9719 16.6816 20.9719C16.6817 20.9719 16.6818 20.9719 16.6818 20.9719C16.6819 20.9719 16.682 20.9719 16.682 20.9719C16.6821 20.9719 16.6822 20.9719 16.6822 20.9719C16.6823 20.9719 16.6824 20.9719 16.6824 20.9719C16.6825 20.9719 16.6826 20.9719 16.6826 20.9719C16.6827 20.9719 16.6828 20.9719 16.6828 20.9719C16.6829 20.9719 16.683 20.9719 16.683 20.9719C16.6831 20.9719 16.6832 20.9719 16.6832 20.9719C16.6833 20.9719 16.6834 20.9719 16.6834 20.9719C16.6835 20.9719 16.6836 20.9719 16.6836 20.9719C16.6837 20.9719 16.6838 20.9719 16.6838 20.9719C16.6839 20.9719 16.684 20.9719 16.684 20.9719C16.6841 20.9719 16.6841 20.9719 16.6842 20.9719C16.6843 20.9719 16.6843 20.9719 16.6844 20.9719C16.6845 20.9719 16.6845 20.9719 16.6846 20.9719C16.6847 20.9719 16.6847 20.9719 16.6848 20.9719C16.6849 20.9719 16.6849 20.9719 16.685 20.9719C16.6851 20.9719 16.6851 20.9719 16.6852 20.9719C16.6853 20.9719 16.6853 20.9719 16.6854 20.9719C16.6855 20.9719 16.6855 20.9719 16.6856 20.9719C16.6857 20.9719 16.6857 20.9719 16.6858 20.9719C16.6859 20.9719 16.6859 20.9719 16.686 20.9719C16.6861 20.9719 16.6861 20.9719 16.6862 20.9719C16.6863 20.9719 16.6863 20.9719 16.6864 20.9719C16.6865 20.9719 16.6865 20.9719 16.6866 20.9719C16.6867 20.9719 16.6867 20.9719 16.6868 20.9719C16.6869 20.9719 16.6869 20.9719 16.687 20.9719C16.687 20.9719 16.6871 20.9719 16.6872 20.9719C16.6872 20.9719 16.6873 20.9719 16.6874 20.9719C16.6874 20.9719 16.6875 20.9719 16.6876 20.9719C16.6876 20.9719 16.6877 20.9719 16.6878 20.9719C16.6878 20.9719 16.6879 20.9719 16.688 20.9719C16.688 20.9719 16.6881 20.9719 16.6882 20.9719C16.6882 20.9719 16.6883 20.9719 16.6884 20.9719C16.6884 20.9719 16.6885 20.9719 16.6886 20.9719C16.6886 20.9719 16.6887 20.9719 16.6888 20.9719C16.6888 20.9719 16.6889 20.9719 16.689 20.9719C16.689 20.9719 16.6891 20.9719 16.6892 20.9719C16.6892 20.9719 16.6893 20.9719 16.6894 20.9719C16.6894 20.9719 16.6895 20.9719 16.6896 20.9719C16.6896 20.9719 16.6897 20.9719 16.6898 20.9719C16.6898 20.9719 16.6899 20.9719 16.69 20.9719C16.69 20.9719 16.6901 20.9719 16.6901 20.9719C16.6902 20.9719 16.6903 20.9719 16.6903 20.9719C16.6904 20.9719 16.6905 20.9719 16.6905 20.9719C16.6906 20.9719 16.6907 20.9719 16.6907 20.9719C16.6908 20.9719 16.6909 20.9719 16.6909 20.9719C16.691 20.9719 16.6911 20.9719 16.6911 20.9719C16.6912 20.9719 16.6913 20.9719 16.6913 20.9719C16.6914 20.9719 16.6915 20.9719 16.6915 20.9719C16.6916 20.9719 16.6917 20.9719 16.6917 20.9719C16.6918 20.9719 16.6919 20.9719 16.6919 20.9719C16.692 20.9719 16.6921 20.9719 16.6921 20.9719C16.6922 20.9719 16.6923 20.9719 16.6923 20.9719C16.6924 20.9719 16.6925 20.9719 16.6925 20.9719C16.6926 20.9719 16.6927 20.9719 16.6927 20.9719C16.6928 20.9719 16.6929 20.9719 16.6929 20.9719C16.693 20.9719 16.693 20.9719 16.6931 20.9719C16.6932 20.9719 16.6932 20.9719 16.6933 20.9719C16.6934 20.9719 16.6934 20.9719 16.6935 20.9719C16.6936 20.9719 16.6936 20.9719 16.6937 20.9719C16.6938 20.9719 16.6938 20.9719 16.6939 20.9719C16.694 20.9719 16.694 20.9719 16.6941 20.9719C16.6942 20.9719 16.6942 20.9719 16.6943 20.9719C16.6944 20.9719 16.6944 20.9719 16.6945 20.9719C16.6946 20.9719 16.6946 20.9719 16.6947 20.9719C16.6948 20.9719 16.6948 20.9719 16.6949 20.9719C16.695 20.9719 16.695 20.9719 16.6951 20.9719C16.6952 20.9719 16.6952 20.9719 16.6953 20.9719C16.6954 20.9719 16.6954 20.9719 16.6955 20.9719C16.6956 20.9719 16.6956 20.9719 16.6957 20.9719C16.6958 20.9719 16.6958 20.9719 16.6959 20.9719C16.6959 20.9719 16.696 20.9719 16.6961 20.9719C16.6961 20.9719 16.6962 20.9719 16.6963 20.9719C16.6963 20.9719 16.6964 20.9719 16.6965 20.9719C16.6965 20.9719 16.6966 20.9719 16.6967 20.9719C16.6967 20.9719 16.6968 20.9719 16.6969 20.9719C16.6969 20.9719 16.697 20.9719 16.6971 20.9719C16.6971 20.9719 16.6972 20.9719 16.6973 20.9719C16.6973 20.9719 16.6974 20.9719 16.6975 20.9719C16.6975 20.9719 16.6976 20.9719 16.6977 20.9719C16.6977 20.9719 16.6978 20.9719 16.6979 20.9719C16.6979 20.9719 16.698 20.9719 16.6981 20.9719C16.6981 20.9719 16.6982 20.9719 16.6983 20.9719C16.6983 20.9719 16.6984 20.9719 16.6985 20.9719C16.6985 20.9719 16.6986 20.9719 16.6987 20.9719C16.6987 20.9719 16.6988 20.9719 16.6989 20.9719C16.6989 20.9719 16.699 20.9719 16.699 20.9719C16.6991 20.9719 16.6992 20.9719 16.6992 20.9719C16.6993 20.9719 16.6994 20.9719 16.6994 20.9719C16.6995 20.9719 16.6996 20.9719 16.6996 20.9719C16.6997 20.9719 16.6998 20.9719 16.6998 20.9719C16.6999 20.9719 16.7 20.9719 16.7 20.9719C16.7001 20.9719 16.7002 20.9719 16.7002 20.9719C16.7003 20.9719 16.7004 20.9719 16.7004 20.9719C16.7005 20.9719 16.7006 20.9719 16.7006 20.9719C16.7007 20.9719 16.7008 20.9719 16.7008 20.9719C16.7009 20.9719 16.701 20.9719 16.701 20.9719C16.7011 20.9719 16.7012 20.9719 16.7012 20.9719C16.7013 20.9719 16.7014 20.9719 16.7014 20.9719C16.7015 20.9719 16.7016 20.9719 16.7016 20.9719C16.7017 20.9719 16.7018 20.9719 16.7018 20.9719C16.7019 20.9719 16.7019 20.9719 16.702 20.9719C16.7021 20.9719 16.7021 20.9719 16.7022 20.9719C16.7023 20.9719 16.7023 20.9719 16.7024 20.9719C16.7025 20.9719 16.7025 20.9719 16.7026 20.9719C16.7027 20.9719 16.7027 20.9719 16.7028 20.9719C16.7029 20.9719 16.7029 20.9719 16.703 20.9719C16.7031 20.9719 16.7031 20.9719 16.7032 20.9719C16.7033 20.9719 16.7033 20.9719 16.7034 20.9719C16.7035 20.9719 16.7035 20.9719 16.7036 20.9719C16.7037 20.9719 16.7037 20.9719 16.7038 20.9719C16.7039 20.9719 16.7039 20.9719 16.704 20.9719C16.7041 20.9719 16.7041 20.9719 16.7042 20.9719C16.7043 20.9719 16.7043 20.9719 16.7044 20.9719C16.7045 20.9719 16.7045 20.9719 16.7046 20.9719C16.7047 20.9719 16.7047 20.9719 16.7048 20.9719C16.7049 20.9719 16.7049 20.9719 16.705 20.9719C16.705 20.9719 16.7051 20.9719 16.7052 20.9719C16.7052 20.9719 16.7053 20.9719 16.7054 20.9719C16.7054 20.9719 16.7055 20.9719 16.7056 20.9719C16.7056 20.9719 16.7057 20.9719 16.7058 20.9719C16.7058 20.9719 16.7059 20.9719 16.706 20.9719C16.706 20.9719 16.7061 20.9719 16.7062 20.9719C16.7062 20.9719 16.7063 20.9719 16.7064 20.9719C16.7064 20.9719 16.7065 20.9719 16.7066 20.9719C16.7066 20.9719 16.7067 20.9719 16.7068 20.9719C16.7068 20.9719 16.7069 20.9719 16.707 20.9719C16.707 20.9719 16.7071 20.9719 16.7072 20.9719C16.7072 20.9719 16.7073 20.9719 16.7074 20.9719C16.7074 20.9719 16.7075 20.9719 16.7076 20.9719C16.7076 20.9719 16.7077 20.9719 16.7078 20.9719C16.7078 20.9719 16.7079 20.9719 16.7079 20.9719C16.708 20.9719 16.7081 20.9719 16.7081 20.9719C16.7082 20.9719 16.7083 20.9719 16.7083 20.9719C16.7084 20.9719 16.7085 20.9719 16.7085 20.9719C16.7086 20.9719 16.7087 20.9719 16.7087 20.9719C16.7088 20.9719 16.7089 20.9719 16.7089 20.9719C16.709 20.9719 16.7091 20.9719 16.7091 20.9719C16.7092 20.9719 16.7093 20.9719 16.7093 20.9719C16.7094 20.9719 16.7095 20.9719 16.7095 20.9719C16.7096 20.9719 16.7097 20.9719 16.7097 20.9719C16.7098 20.9719 16.7099 20.9719 16.7099 20.9719C16.71 20.9719 16.7101 20.9719 16.7101 20.9719C16.7102 20.9719 16.7103 20.9719 16.7103 20.9719C16.7104 20.9719 16.7105 20.9719 16.7105 20.9719C16.7106 20.9719 16.7107 20.9719 16.7107 20.9719C16.7108 20.9719 16.7108 20.9719 16.7109 20.9719C16.711 20.9719 16.711 20.9719 16.7111 20.9719C16.7112 20.9719 16.7112 20.9719 16.7113 20.9719C16.7114 20.9719 16.7114 20.9719 16.7115 20.9719C16.7116 20.9719 16.7116 20.9719 16.7117 20.9719C16.7118 20.9719 16.7118 20.9719 16.7119 20.9719C16.712 20.9719 16.712 20.9719 16.7121 20.9719C16.7122 20.9719 16.7122 20.9719 16.7123 20.9719C16.7124 20.9719 16.7124 20.9719 16.7125 20.9719C16.7126 20.9719 16.7126 20.9719 16.7127 20.9719C16.7128 20.9719 16.7128 20.9719 16.7129 20.9719C16.713 20.9719 16.713 20.9719 16.7131 20.9719C16.7132 20.9719 16.7132 20.9719 16.7133 20.9719C16.7134 20.9719 16.7134 20.9719 16.7135 20.9719C16.7136 20.9719 16.7136 20.9719 16.7137 20.9719C16.7137 20.9719 16.7138 20.9719 16.7139 20.9719C16.7139 20.9719 16.714 20.9719 16.7141 20.9719C16.7141 20.9719 16.7142 20.9719 16.7143 20.9719C16.7143 20.9719 16.7144 20.9719 16.7145 20.9719C16.7145 20.9719 16.7146 20.9719 16.7147 20.9719C16.7147 20.9719 16.7148 20.9719 16.7149 20.9719C16.7149 20.9719 16.715 20.9719 16.7151 20.9719C16.7151 20.9719 16.7152 20.9719 16.7153 20.9719V19.9719C16.7152 19.9719 16.7151 19.9719 16.7151 19.9719C16.715 19.9719 16.7149 19.9719 16.7149 19.9719C16.7148 19.9719 16.7147 19.9719 16.7147 19.9719C16.7146 19.9719 16.7145 19.9719 16.7145 19.9719C16.7144 19.9719 16.7143 19.9719 16.7143 19.9719C16.7142 19.9719 16.7141 19.9719 16.7141 19.9719C16.714 19.9719 16.7139 19.9719 16.7139 19.9719C16.7138 19.9719 16.7137 19.9719 16.7137 19.9719C16.7136 19.9719 16.7136 19.9719 16.7135 19.9719C16.7134 19.9719 16.7134 19.9719 16.7133 19.9719C16.7132 19.9719 16.7132 19.9719 16.7131 19.9719C16.713 19.9719 16.713 19.9719 16.7129 19.9719C16.7128 19.9719 16.7128 19.9719 16.7127 19.9719C16.7126 19.9719 16.7126 19.9719 16.7125 19.9719C16.7124 19.9719 16.7124 19.9719 16.7123 19.9719C16.7122 19.9719 16.7122 19.9719 16.7121 19.9719C16.712 19.9719 16.712 19.9719 16.7119 19.9719C16.7118 19.9719 16.7118 19.9719 16.7117 19.9719C16.7116 19.9719 16.7116 19.9719 16.7115 19.9719C16.7114 19.9719 16.7114 19.9719 16.7113 19.9719C16.7112 19.9719 16.7112 19.9719 16.7111 19.9719C16.711 19.9719 16.711 19.9719 16.7109 19.9719C16.7108 19.9719 16.7108 19.9719 16.7107 19.9719C16.7107 19.9719 16.7106 19.9719 16.7105 19.9719C16.7105 19.9719 16.7104 19.9719 16.7103 19.9719C16.7103 19.9719 16.7102 19.9719 16.7101 19.9719C16.7101 19.9719 16.71 19.9719 16.7099 19.9719C16.7099 19.9719 16.7098 19.9719 16.7097 19.9719C16.7097 19.9719 16.7096 19.9719 16.7095 19.9719C16.7095 19.9719 16.7094 19.9719 16.7093 19.9719C16.7093 19.9719 16.7092 19.9719 16.7091 19.9719C16.7091 19.9719 16.709 19.9719 16.7089 19.9719C16.7089 19.9719 16.7088 19.9719 16.7087 19.9719C16.7087 19.9719 16.7086 19.9719 16.7085 19.9719C16.7085 19.9719 16.7084 19.9719 16.7083 19.9719C16.7083 19.9719 16.7082 19.9719 16.7081 19.9719C16.7081 19.9719 16.708 19.9719 16.7079 19.9719C16.7079 19.9719 16.7078 19.9719 16.7078 19.9719C16.7077 19.9719 16.7076 19.9719 16.7076 19.9719C16.7075 19.9719 16.7074 19.9719 16.7074 19.9719C16.7073 19.9719 16.7072 19.9719 16.7072 19.9719C16.7071 19.9719 16.707 19.9719 16.707 19.9719C16.7069 19.9719 16.7068 19.9719 16.7068 19.9719C16.7067 19.9719 16.7066 19.9719 16.7066 19.9719C16.7065 19.9719 16.7064 19.9719 16.7064 19.9719C16.7063 19.9719 16.7062 19.9719 16.7062 19.9719C16.7061 19.9719 16.706 19.9719 16.706 19.9719C16.7059 19.9719 16.7058 19.9719 16.7058 19.9719C16.7057 19.9719 16.7056 19.9719 16.7056 19.9719C16.7055 19.9719 16.7054 19.9719 16.7054 19.9719C16.7053 19.9719 16.7052 19.9719 16.7052 19.9719C16.7051 19.9719 16.705 19.9719 16.705 19.9719C16.7049 19.9719 16.7049 19.9719 16.7048 19.9719C16.7047 19.9719 16.7047 19.9719 16.7046 19.9719C16.7045 19.9719 16.7045 19.9719 16.7044 19.9719C16.7043 19.9719 16.7043 19.9719 16.7042 19.9719C16.7041 19.9719 16.7041 19.9719 16.704 19.9719C16.7039 19.9719 16.7039 19.9719 16.7038 19.9719C16.7037 19.9719 16.7037 19.9719 16.7036 19.9719C16.7035 19.9719 16.7035 19.9719 16.7034 19.9719C16.7033 19.9719 16.7033 19.9719 16.7032 19.9719C16.7031 19.9719 16.7031 19.9719 16.703 19.9719C16.7029 19.9719 16.7029 19.9719 16.7028 19.9719C16.7027 19.9719 16.7027 19.9719 16.7026 19.9719C16.7025 19.9719 16.7025 19.9719 16.7024 19.9719C16.7023 19.9719 16.7023 19.9719 16.7022 19.9719C16.7021 19.9719 16.7021 19.9719 16.702 19.9719C16.7019 19.9719 16.7019 19.9719 16.7018 19.9719C16.7018 19.9719 16.7017 19.9719 16.7016 19.9719C16.7016 19.9719 16.7015 19.9719 16.7014 19.9719C16.7014 19.9719 16.7013 19.9719 16.7012 19.9719C16.7012 19.9719 16.7011 19.9719 16.701 19.9719C16.701 19.9719 16.7009 19.9719 16.7008 19.9719C16.7008 19.9719 16.7007 19.9719 16.7006 19.9719C16.7006 19.9719 16.7005 19.9719 16.7004 19.9719C16.7004 19.9719 16.7003 19.9719 16.7002 19.9719C16.7002 19.9719 16.7001 19.9719 16.7 19.9719C16.7 19.9719 16.6999 19.9719 16.6998 19.9719C16.6998 19.9719 16.6997 19.9719 16.6996 19.9719C16.6996 19.9719 16.6995 19.9719 16.6994 19.9719C16.6994 19.9719 16.6993 19.9719 16.6992 19.9719C16.6992 19.9719 16.6991 19.9719 16.699 19.9719C16.699 19.9719 16.6989 19.9719 16.6989 19.9719C16.6988 19.9719 16.6987 19.9719 16.6987 19.9719C16.6986 19.9719 16.6985 19.9719 16.6985 19.9719C16.6984 19.9719 16.6983 19.9719 16.6983 19.9719C16.6982 19.9719 16.6981 19.9719 16.6981 19.9719C16.698 19.9719 16.6979 19.9719 16.6979 19.9719C16.6978 19.9719 16.6977 19.9719 16.6977 19.9719C16.6976 19.9719 16.6975 19.9719 16.6975 19.9719C16.6974 19.9719 16.6973 19.9719 16.6973 19.9719C16.6972 19.9719 16.6971 19.9719 16.6971 19.9719C16.697 19.9719 16.6969 19.9719 16.6969 19.9719C16.6968 19.9719 16.6967 19.9719 16.6967 19.9719C16.6966 19.9719 16.6965 19.9719 16.6965 19.9719C16.6964 19.9719 16.6963 19.9719 16.6963 19.9719C16.6962 19.9719 16.6961 19.9719 16.6961 19.9719C16.696 19.9719 16.6959 19.9719 16.6959 19.9719C16.6958 19.9719 16.6958 19.9719 16.6957 19.9719C16.6956 19.9719 16.6956 19.9719 16.6955 19.9719C16.6954 19.9719 16.6954 19.9719 16.6953 19.9719C16.6952 19.9719 16.6952 19.9719 16.6951 19.9719C16.695 19.9719 16.695 19.9719 16.6949 19.9719C16.6948 19.9719 16.6948 19.9719 16.6947 19.9719C16.6946 19.9719 16.6946 19.9719 16.6945 19.9719C16.6944 19.9719 16.6944 19.9719 16.6943 19.9719C16.6942 19.9719 16.6942 19.9719 16.6941 19.9719C16.694 19.9719 16.694 19.9719 16.6939 19.9719C16.6938 19.9719 16.6938 19.9719 16.6937 19.9719C16.6936 19.9719 16.6936 19.9719 16.6935 19.9719C16.6934 19.9719 16.6934 19.9719 16.6933 19.9719C16.6932 19.9719 16.6932 19.9719 16.6931 19.9719C16.693 19.9719 16.693 19.9719 16.6929 19.9719C16.6929 19.9719 16.6928 19.9719 16.6927 19.9719C16.6927 19.9719 16.6926 19.9719 16.6925 19.9719C16.6925 19.9719 16.6924 19.9719 16.6923 19.9719C16.6923 19.9719 16.6922 19.9719 16.6921 19.9719C16.6921 19.9719 16.692 19.9719 16.6919 19.9719C16.6919 19.9719 16.6918 19.9719 16.6917 19.9719C16.6917 19.9719 16.6916 19.9719 16.6915 19.9719C16.6915 19.9719 16.6914 19.9719 16.6913 19.9719C16.6913 19.9719 16.6912 19.9719 16.6911 19.9719C16.6911 19.9719 16.691 19.9719 16.6909 19.9719C16.6909 19.9719 16.6908 19.9719 16.6907 19.9719C16.6907 19.9719 16.6906 19.9719 16.6905 19.9719C16.6905 19.9719 16.6904 19.9719 16.6903 19.9719C16.6903 19.9719 16.6902 19.9719 16.6901 19.9719C16.6901 19.9719 16.69 19.9719 16.69 19.9719C16.6899 19.9719 16.6898 19.9719 16.6898 19.9719C16.6897 19.9719 16.6896 19.9719 16.6896 19.9719C16.6895 19.9719 16.6894 19.9719 16.6894 19.9719C16.6893 19.9719 16.6892 19.9719 16.6892 19.9719C16.6891 19.9719 16.689 19.9719 16.689 19.9719C16.6889 19.9719 16.6888 19.9719 16.6888 19.9719C16.6887 19.9719 16.6886 19.9719 16.6886 19.9719C16.6885 19.9719 16.6884 19.9719 16.6884 19.9719C16.6883 19.9719 16.6882 19.9719 16.6882 19.9719C16.6881 19.9719 16.688 19.9719 16.688 19.9719C16.6879 19.9719 16.6878 19.9719 16.6878 19.9719C16.6877 19.9719 16.6876 19.9719 16.6876 19.9719C16.6875 19.9719 16.6874 19.9719 16.6874 19.9719C16.6873 19.9719 16.6872 19.9719 16.6872 19.9719C16.6871 19.9719 16.687 19.9719 16.687 19.9719C16.6869 19.9719 16.6869 19.9719 16.6868 19.9719C16.6867 19.9719 16.6867 19.9719 16.6866 19.9719C16.6865 19.9719 16.6865 19.9719 16.6864 19.9719C16.6863 19.9719 16.6863 19.9719 16.6862 19.9719C16.6861 19.9719 16.6861 19.9719 16.686 19.9719C16.6859 19.9719 16.6859 19.9719 16.6858 19.9719C16.6857 19.9719 16.6857 19.9719 16.6856 19.9719C16.6855 19.9719 16.6855 19.9719 16.6854 19.9719C16.6853 19.9719 16.6853 19.9719 16.6852 19.9719C16.6851 19.9719 16.6851 19.9719 16.685 19.9719C16.6849 19.9719 16.6849 19.9719 16.6848 19.9719C16.6847 19.9719 16.6847 19.9719 16.6846 19.9719C16.6845 19.9719 16.6845 19.9719 16.6844 19.9719C16.6843 19.9719 16.6843 19.9719 16.6842 19.9719C16.6841 19.9719 16.6841 19.9719 16.684 19.9719C16.684 19.9719 16.6839 19.9719 16.6838 19.9719C16.6838 19.9719 16.6837 19.9719 16.6836 19.9719C16.6836 19.9719 16.6835 19.9719 16.6834 19.9719C16.6834 19.9719 16.6833 19.9719 16.6832 19.9719C16.6832 19.9719 16.6831 19.9719 16.683 19.9719C16.683 19.9719 16.6829 19.9719 16.6828 19.9719C16.6828 19.9719 16.6827 19.9719 16.6826 19.9719C16.6826 19.9719 16.6825 19.9719 16.6824 19.9719C16.6824 19.9719 16.6823 19.9719 16.6822 19.9719C16.6822 19.9719 16.6821 19.9719 16.682 19.9719C16.682 19.9719 16.6819 19.9719 16.6818 19.9719C16.6818 19.9719 16.6817 19.9719 16.6816 19.9719C16.6816 19.9719 16.6815 19.9719 16.6814 19.9719C16.6814 19.9719 16.6813 19.9719 16.6812 19.9719C16.6812 19.9719 16.6811 19.9719 16.6811 19.9719C16.681 19.9719 16.6809 19.9719 16.6809 19.9719C16.6808 19.9719 16.6807 19.9719 16.6807 19.9719C16.6806 19.9719 16.6805 19.9719 16.6805 19.9719C16.6804 19.9719 16.6803 19.9719 16.6803 19.9719C16.6802 19.9719 16.6801 19.9719 16.6801 19.9719C16.68 19.9719 16.6799 19.9719 16.6799 19.9719C16.6798 19.9719 16.6797 19.9719 16.6797 19.9719C16.6796 19.9719 16.6795 19.9719 16.6795 19.9719C16.6794 19.9719 16.6793 19.9719 16.6793 19.9719C16.6792 19.9719 16.6791 19.9719 16.6791 19.9719C16.679 19.9719 16.6789 19.9719 16.6789 19.9719C16.6788 19.9719 16.6787 19.9719 16.6787 19.9719C16.6786 19.9719 16.6785 19.9719 16.6785 19.9719C16.6784 19.9719 16.6783 19.9719 16.6783 19.9719C16.6782 19.9719 16.6782 19.9719 16.6781 19.9719C16.678 19.9719 16.678 19.9719 16.6779 19.9719C16.6778 19.9719 16.6778 19.9719 16.6777 19.9719C16.6776 19.9719 16.6776 19.9719 16.6775 19.9719C16.6774 19.9719 16.6774 19.9719 16.6773 19.9719C16.6772 19.9719 16.6772 19.9719 16.6771 19.9719C16.677 19.9719 16.677 19.9719 16.6769 19.9719C16.6768 19.9719 16.6768 19.9719 16.6767 19.9719C16.6766 19.9719 16.6766 19.9719 16.6765 19.9719C16.6764 19.9719 16.6764 19.9719 16.6763 19.9719C16.6762 19.9719 16.6762 19.9719 16.6761 19.9719C16.676 19.9719 16.676 19.9719 16.6759 19.9719C16.6758 19.9719 16.6758 19.9719 16.6757 19.9719C16.6756 19.9719 16.6756 19.9719 16.6755 19.9719C16.6754 19.9719 16.6754 19.9719 16.6753 19.9719C16.6752 19.9719 16.6752 19.9719 16.6751 19.9719C16.6751 19.9719 16.675 19.9719 16.6749 19.9719C16.6749 19.9719 16.6748 19.9719 16.6747 19.9719C16.6747 19.9719 16.6746 19.9719 16.6745 19.9719C16.6745 19.9719 16.6744 19.9719 16.6743 19.9719C16.6743 19.9719 16.6742 19.9719 16.6741 19.9719C16.6741 19.9719 16.674 19.9719 16.6739 19.9719C16.6739 19.9719 16.6738 19.9719 16.6737 19.9719C16.6737 19.9719 16.6736 19.9719 16.6735 19.9719C16.6735 19.9719 16.6734 19.9719 16.6733 19.9719C16.6733 19.9719 16.6732 19.9719 16.6731 19.9719C16.6731 19.9719 16.673 19.9719 16.6729 19.9719C16.6729 19.9719 16.6728 19.9719 16.6727 19.9719C16.6727 19.9719 16.6726 19.9719 16.6725 19.9719C16.6725 19.9719 16.6724 19.9719 16.6723 19.9719C16.6723 19.9719 16.6722 19.9719 16.6722 19.9719C16.6721 19.9719 16.672 19.9719 16.672 19.9719C16.6719 19.9719 16.6718 19.9719 16.6718 19.9719C16.6717 19.9719 16.6716 19.9719 16.6716 19.9719C16.6715 19.9719 16.6714 19.9719 16.6714 19.9719C16.6713 19.9719 16.6712 19.9719 16.6712 19.9719C16.6711 19.9719 16.671 19.9719 16.671 19.9719C16.6709 19.9719 16.6708 19.9719 16.6708 19.9719C16.6707 19.9719 16.6706 19.9719 16.6706 19.9719C16.6705 19.9719 16.6704 19.9719 16.6704 19.9719C16.6703 19.9719 16.6702 19.9719 16.6702 19.9719C16.6701 19.9719 16.67 19.9719 16.67 19.9719C16.6699 19.9719 16.6698 19.9719 16.6698 19.9719C16.6697 19.9719 16.6696 19.9719 16.6696 19.9719C16.6695 19.9719 16.6694 19.9719 16.6694 19.9719C16.6693 19.9719 16.6693 19.9719 16.6692 19.9719C16.6691 19.9719 16.6691 19.9719 16.669 19.9719C16.6689 19.9719 16.6689 19.9719 16.6688 19.9719C16.6687 19.9719 16.6687 19.9719 16.6686 19.9719C16.6685 19.9719 16.6685 19.9719 16.6684 19.9719C16.6683 19.9719 16.6683 19.9719 16.6682 19.9719C16.6681 19.9719 16.6681 19.9719 16.668 19.9719C16.6679 19.9719 16.6679 19.9719 16.6678 19.9719C16.6677 19.9719 16.6677 19.9719 16.6676 19.9719C16.6675 19.9719 16.6675 19.9719 16.6674 19.9719C16.6673 19.9719 16.6673 19.9719 16.6672 19.9719C16.6671 19.9719 16.6671 19.9719 16.667 19.9719C16.6669 19.9719 16.6669 19.9719 16.6668 19.9719C16.6667 19.9719 16.6667 19.9719 16.6666 19.9719C16.6665 19.9719 16.6665 19.9719 16.6664 19.9719C16.6663 19.9719 16.6663 19.9719 16.6662 19.9719C16.6662 19.9719 16.6661 19.9719 16.666 19.9719C16.666 19.9719 16.6659 19.9719 16.6658 19.9719C16.6658 19.9719 16.6657 19.9719 16.6656 19.9719C16.6656 19.9719 16.6655 19.9719 16.6654 19.9719C16.6654 19.9719 16.6653 19.9719 16.6652 19.9719C16.6652 19.9719 16.6651 19.9719 16.665 19.9719C16.665 19.9719 16.6649 19.9719 16.6648 19.9719C16.6648 19.9719 16.6647 19.9719 16.6646 19.9719C16.6646 19.9719 16.6645 19.9719 16.6644 19.9719C16.6644 19.9719 16.6643 19.9719 16.6642 19.9719C16.6642 19.9719 16.6641 19.9719 16.664 19.9719C16.664 19.9719 16.6639 19.9719 16.6638 19.9719C16.6638 19.9719 16.6637 19.9719 16.6636 19.9719C16.6636 19.9719 16.6635 19.9719 16.6634 19.9719C16.6634 19.9719 16.6633 19.9719 16.6633 19.9719C16.6632 19.9719 16.6631 19.9719 16.6631 19.9719C16.663 19.9719 16.6629 19.9719 16.6629 19.9719C16.6628 19.9719 16.6627 19.9719 16.6627 19.9719C16.6626 19.9719 16.6625 19.9719 16.6625 19.9719C16.6624 19.9719 16.6623 19.9719 16.6623 19.9719C16.6622 19.9719 16.6621 19.9719 16.6621 19.9719C16.662 19.9719 16.6619 19.9719 16.6619 19.9719C16.6618 19.9719 16.6617 19.9719 16.6617 19.9719C16.6616 19.9719 16.6615 19.9719 16.6615 19.9719C16.6614 19.9719 16.6613 19.9719 16.6613 19.9719C16.6612 19.9719 16.6611 19.9719 16.6611 19.9719C16.661 19.9719 16.6609 19.9719 16.6609 19.9719C16.6608 19.9719 16.6607 19.9719 16.6607 19.9719C16.6606 19.9719 16.6605 19.9719 16.6605 19.9719C16.6604 19.9719 16.6604 19.9719 16.6603 19.9719C16.6602 19.9719 16.6602 19.9719 16.6601 19.9719C16.66 19.9719 16.66 19.9719 16.6599 19.9719C16.6598 19.9719 16.6598 19.9719 16.6597 19.9719C16.6596 19.9719 16.6596 19.9719 16.6595 19.9719C16.6594 19.9719 16.6594 19.9719 16.6593 19.9719C16.6592 19.9719 16.6592 19.9719 16.6591 19.9719C16.659 19.9719 16.659 19.9719 16.6589 19.9719C16.6588 19.9719 16.6588 19.9719 16.6587 19.9719C16.6586 19.9719 16.6586 19.9719 16.6585 19.9719C16.6584 19.9719 16.6584 19.9719 16.6583 19.9719C16.6582 19.9719 16.6582 19.9719 16.6581 19.9719C16.658 19.9719 16.658 19.9719 16.6579 19.9719C16.6578 19.9719 16.6578 19.9719 16.6577 19.9719C16.6576 19.9719 16.6576 19.9719 16.6575 19.9719C16.6574 19.9719 16.6574 19.9719 16.6573 19.9719C16.6573 19.9719 16.6572 19.9719 16.6571 19.9719C16.6571 19.9719 16.657 19.9719 16.6569 19.9719C16.6569 19.9719 16.6568 19.9719 16.6567 19.9719C16.6567 19.9719 16.6566 19.9719 16.6565 19.9719C16.6565 19.9719 16.6564 19.9719 16.6563 19.9719C16.6563 19.9719 16.6562 19.9719 16.6561 19.9719C16.6561 19.9719 16.656 19.9719 16.6559 19.9719C16.6559 19.9719 16.6558 19.9719 16.6557 19.9719C16.6557 19.9719 16.6556 19.9719 16.6555 19.9719C16.6555 19.9719 16.6554 19.9719 16.6553 19.9719C16.6553 19.9719 16.6552 19.9719 16.6551 19.9719C16.6551 19.9719 16.655 19.9719 16.6549 19.9719C16.6549 19.9719 16.6548 19.9719 16.6547 19.9719C16.6547 19.9719 16.6546 19.9719 16.6545 19.9719C16.6545 19.9719 16.6544 19.9719 16.6544 19.9719C16.6543 19.9719 16.6542 19.9719 16.6542 19.9719C16.6541 19.9719 16.654 19.9719 16.654 19.9719C16.6539 19.9719 16.6538 19.9719 16.6538 19.9719C16.6537 19.9719 16.6536 19.9719 16.6536 19.9719C16.6535 19.9719 16.6534 19.9719 16.6534 19.9719C16.6533 19.9719 16.6532 19.9719 16.6532 19.9719C16.6531 19.9719 16.653 19.9719 16.653 19.9719C16.6529 19.9719 16.6528 19.9719 16.6528 19.9719C16.6527 19.9719 16.6526 19.9719 16.6526 19.9719C16.6525 19.9719 16.6524 19.9719 16.6524 19.9719C16.6523 19.9719 16.6522 19.9719 16.6522 19.9719C16.6521 19.9719 16.652 19.9719 16.652 19.9719C16.6519 19.9719 16.6518 19.9719 16.6518 19.9719C16.6517 19.9719 16.6516 19.9719 16.6516 19.9719C16.6515 19.9719 16.6515 19.9719 16.6514 19.9719C16.6513 19.9719 16.6513 19.9719 16.6512 19.9719C16.6511 19.9719 16.6511 19.9719 16.651 19.9719C16.6509 19.9719 16.6509 19.9719 16.6508 19.9719C16.6507 19.9719 16.6507 19.9719 16.6506 19.9719C16.6505 19.9719 16.6505 19.9719 16.6504 19.9719C16.6503 19.9719 16.6503 19.9719 16.6502 19.9719C16.6501 19.9719 16.6501 19.9719 16.65 19.9719C16.6499 19.9719 16.6499 19.9719 16.6498 19.9719C16.6497 19.9719 16.6497 19.9719 16.6496 19.9719C16.6495 19.9719 16.6495 19.9719 16.6494 19.9719C16.6493 19.9719 16.6493 19.9719 16.6492 19.9719C16.6491 19.9719 16.6491 19.9719 16.649 19.9719C16.6489 19.9719 16.6489 19.9719 16.6488 19.9719C16.6487 19.9719 16.6487 19.9719 16.6486 19.9719C16.6486 19.9719 16.6485 19.9719 16.6484 19.9719C16.6484 19.9719 16.6483 19.9719 16.6482 19.9719C16.6482 19.9719 16.6481 19.9719 16.648 19.9719C16.648 19.9719 16.6479 19.9719 16.6478 19.9719C16.6478 19.9719 16.6477 19.9719 16.6476 19.9719C16.6476 19.9719 16.6475 19.9719 16.6474 19.9719C16.6474 19.9719 16.6473 19.9719 16.6472 19.9719C16.6472 19.9719 16.6471 19.9719 16.647 19.9719C16.647 19.9719 16.6469 19.9719 16.6468 19.9719C16.6468 19.9719 16.6467 19.9719 16.6466 19.9719C16.6466 19.9719 16.6465 19.9719 16.6464 19.9719C16.6464 19.9719 16.6463 19.9719 16.6462 19.9719C16.6462 19.9719 16.6461 19.9719 16.646 19.9719C16.646 19.9719 16.6459 19.9719 16.6458 19.9719C16.6458 19.9719 16.6457 19.9719 16.6456 19.9719C16.6456 19.9719 16.6455 19.9719 16.6455 19.9719C16.6454 19.9719 16.6453 19.9719 16.6453 19.9719C16.6452 19.9719 16.6451 19.9719 16.6451 19.9719C16.645 19.9719 16.6449 19.9719 16.6449 19.9719C16.6448 19.9719 16.6447 19.9719 16.6447 19.9719C16.6446 19.9719 16.6445 19.9719 16.6445 19.9719C16.6444 19.9719 16.6443 19.9719 16.6443 19.9719C16.6442 19.9719 16.6441 19.9719 16.6441 19.9719C16.644 19.9719 16.6439 19.9719 16.6439 19.9719C16.6438 19.9719 16.6437 19.9719 16.6437 19.9719C16.6436 19.9719 16.6435 19.9719 16.6435 19.9719C16.6434 19.9719 16.6433 19.9719 16.6433 19.9719C16.6432 19.9719 16.6431 19.9719 16.6431 19.9719C16.643 19.9719 16.6429 19.9719 16.6429 19.9719C16.6428 19.9719 16.6427 19.9719 16.6427 19.9719C16.6426 19.9719 16.6426 19.9719 16.6425 19.9719C16.6424 19.9719 16.6424 19.9719 16.6423 19.9719C16.6422 19.9719 16.6422 19.9719 16.6421 19.9719C16.642 19.9719 16.642 19.9719 16.6419 19.9719C16.6418 19.9719 16.6418 19.9719 16.6417 19.9719C16.6416 19.9719 16.6416 19.9719 16.6415 19.9719C16.6414 19.9719 16.6414 19.9719 16.6413 19.9719C16.6412 19.9719 16.6412 19.9719 16.6411 19.9719C16.641 19.9719 16.641 19.9719 16.6409 19.9719C16.6408 19.9719 16.6408 19.9719 16.6407 19.9719C16.6406 19.9719 16.6406 19.9719 16.6405 19.9719C16.6404 19.9719 16.6404 19.9719 16.6403 19.9719C16.6402 19.9719 16.6402 19.9719 16.6401 19.9719C16.64 19.9719 16.64 19.9719 16.6399 19.9719C16.6398 19.9719 16.6398 19.9719 16.6397 19.9719C16.6397 19.9719 16.6396 19.9719 16.6395 19.9719C16.6395 19.9719 16.6394 19.9719 16.6393 19.9719C16.6393 19.9719 16.6392 19.9719 16.6391 19.9719C16.6391 19.9719 16.639 19.9719 16.6389 19.9719C16.6389 19.9719 16.6388 19.9719 16.6387 19.9719C16.6387 19.9719 16.6386 19.9719 16.6385 19.9719C16.6385 19.9719 16.6384 19.9719 16.6383 19.9719C16.6383 19.9719 16.6382 19.9719 16.6381 19.9719C16.6381 19.9719 16.638 19.9719 16.6379 19.9719C16.6379 19.9719 16.6378 19.9719 16.6377 19.9719C16.6377 19.9719 16.6376 19.9719 16.6375 19.9719C16.6375 19.9719 16.6374 19.9719 16.6373 19.9719C16.6373 19.9719 16.6372 19.9719 16.6371 19.9719C16.6371 19.9719 16.637 19.9719 16.6369 19.9719C16.6369 19.9719 16.6368 19.9719 16.6367 19.9719C16.6367 19.9719 16.6366 19.9719 16.6366 19.9719C16.6365 19.9719 16.6364 19.9719 16.6364 19.9719C16.6363 19.9719 16.6362 19.9719 16.6362 19.9719C16.6361 19.9719 16.636 19.9719 16.636 19.9719C16.6359 19.9719 16.6358 19.9719 16.6358 19.9719C16.6357 19.9719 16.6356 19.9719 16.6356 19.9719C16.6355 19.9719 16.6354 19.9719 16.6354 19.9719C16.6353 19.9719 16.6352 19.9719 16.6352 19.9719C16.6351 19.9719 16.635 19.9719 16.635 19.9719C16.6349 19.9719 16.6348 19.9719 16.6348 19.9719C16.6347 19.9719 16.6346 19.9719 16.6346 19.9719C16.6345 19.9719 16.6344 19.9719 16.6344 19.9719C16.6343 19.9719 16.6342 19.9719 16.6342 19.9719C16.6341 19.9719 16.634 19.9719 16.634 19.9719C16.6339 19.9719 16.6338 19.9719 16.6338 19.9719C16.6337 19.9719 16.6337 19.9719 16.6336 19.9719C16.6335 19.9719 16.6335 19.9719 16.6334 19.9719C16.6333 19.9719 16.6333 19.9719 16.6332 19.9719C16.6331 19.9719 16.6331 19.9719 16.633 19.9719C16.6329 19.9719 16.6329 19.9719 16.6328 19.9719C16.6327 19.9719 16.6327 19.9719 16.6326 19.9719C16.6325 19.9719 16.6325 19.9719 16.6324 19.9719C16.6323 19.9719 16.6323 19.9719 16.6322 19.9719C16.6321 19.9719 16.6321 19.9719 16.632 19.9719C16.6319 19.9719 16.6319 19.9719 16.6318 19.9719C16.6317 19.9719 16.6317 19.9719 16.6316 19.9719C16.6315 19.9719 16.6315 19.9719 16.6314 19.9719C16.6313 19.9719 16.6313 19.9719 16.6312 19.9719C16.6311 19.9719 16.6311 19.9719 16.631 19.9719C16.6309 19.9719 16.6309 19.9719 16.6308 19.9719C16.6308 19.9719 16.6307 19.9719 16.6306 19.9719C16.6306 19.9719 16.6305 19.9719 16.6304 19.9719C16.6304 19.9719 16.6303 19.9719 16.6302 19.9719C16.6302 19.9719 16.6301 19.9719 16.63 19.9719C16.63 19.9719 16.6299 19.9719 16.6298 19.9719C16.6298 19.9719 16.6297 19.9719 16.6296 19.9719C16.6296 19.9719 16.6295 19.9719 16.6294 19.9719C16.6294 19.9719 16.6293 19.9719 16.6292 19.9719C16.6292 19.9719 16.6291 19.9719 16.629 19.9719C16.629 19.9719 16.6289 19.9719 16.6288 19.9719C16.6288 19.9719 16.6287 19.9719 16.6286 19.9719C16.6286 19.9719 16.6285 19.9719 16.6284 19.9719C16.6284 19.9719 16.6283 19.9719 16.6282 19.9719C16.6282 19.9719 16.6281 19.9719 16.628 19.9719C16.628 19.9719 16.6279 19.9719 16.6278 19.9719C16.6278 19.9719 16.6277 19.9719 16.6277 19.9719C16.6276 19.9719 16.6275 19.9719 16.6275 19.9719C16.6274 19.9719 16.6273 19.9719 16.6273 19.9719C16.6272 19.9719 16.6271 19.9719 16.6271 19.9719C16.627 19.9719 16.6269 19.9719 16.6269 19.9719C16.6268 19.9719 16.6267 19.9719 16.6267 19.9719C16.6266 19.9719 16.6265 19.9719 16.6265 19.9719C16.6264 19.9719 16.6263 19.9719 16.6263 19.9719C16.6262 19.9719 16.6261 19.9719 16.6261 19.9719C16.626 19.9719 16.6259 19.9719 16.6259 19.9719C16.6258 19.9719 16.6257 19.9719 16.6257 19.9719C16.6256 19.9719 16.6255 19.9719 16.6255 19.9719C16.6254 19.9719 16.6253 19.9719 16.6253 19.9719C16.6252 19.9719 16.6251 19.9719 16.6251 19.9719C16.625 19.9719 16.6249 19.9719 16.6249 19.9719C16.6248 19.9719 16.6248 19.9719 16.6247 19.9719C16.6246 19.9719 16.6246 19.9719 16.6245 19.9719C16.6244 19.9719 16.6244 19.9719 16.6243 19.9719C16.6242 19.9719 16.6242 19.9719 16.6241 19.9719C16.624 19.9719 16.624 19.9719 16.6239 19.9719C16.6238 19.9719 16.6238 19.9719 16.6237 19.9719C16.6236 19.9719 16.6236 19.9719 16.6235 19.9719C16.6234 19.9719 16.6234 19.9719 16.6233 19.9719C16.6232 19.9719 16.6232 19.9719 16.6231 19.9719C16.623 19.9719 16.623 19.9719 16.6229 19.9719C16.6228 19.9719 16.6228 19.9719 16.6227 19.9719C16.6226 19.9719 16.6226 19.9719 16.6225 19.9719C16.6224 19.9719 16.6224 19.9719 16.6223 19.9719C16.6222 19.9719 16.6222 19.9719 16.6221 19.9719C16.622 19.9719 16.622 19.9719 16.6219 19.9719C16.6219 19.9719 16.6218 19.9719 16.6217 19.9719C16.6217 19.9719 16.6216 19.9719 16.6215 19.9719C16.6215 19.9719 16.6214 19.9719 16.6213 19.9719C16.6213 19.9719 16.6212 19.9719 16.6211 19.9719C16.6211 19.9719 16.621 19.9719 16.6209 19.9719C16.6209 19.9719 16.6208 19.9719 16.6207 19.9719C16.6207 19.9719 16.6206 19.9719 16.6205 19.9719C16.6205 19.9719 16.6204 19.9719 16.6203 19.9719C16.6203 19.9719 16.6202 19.9719 16.6201 19.9719C16.6201 19.9719 16.62 19.9719 16.6199 19.9719C16.6199 19.9719 16.6198 19.9719 16.6197 19.9719C16.6197 19.9719 16.6196 19.9719 16.6195 19.9719C16.6195 19.9719 16.6194 19.9719 16.6193 19.9719C16.6193 19.9719 16.6192 19.9719 16.6191 19.9719C16.6191 19.9719 16.619 19.9719 16.6189 19.9719C16.6189 19.9719 16.6188 19.9719 16.6188 19.9719C16.6187 19.9719 16.6186 19.9719 16.6186 19.9719C16.6185 19.9719 16.6184 19.9719 16.6184 19.9719C16.6183 19.9719 16.6182 19.9719 16.6182 19.9719C16.6181 19.9719 16.618 19.9719 16.618 19.9719C16.6179 19.9719 16.6178 19.9719 16.6178 19.9719C16.6177 19.9719 16.6176 19.9719 16.6176 19.9719C16.6175 19.9719 16.6174 19.9719 16.6174 19.9719C16.6173 19.9719 16.6172 19.9719 16.6172 19.9719C16.6171 19.9719 16.617 19.9719 16.617 19.9719C16.6169 19.9719 16.6168 19.9719 16.6168 19.9719C16.6167 19.9719 16.6166 19.9719 16.6166 19.9719C16.6165 19.9719 16.6164 19.9719 16.6164 19.9719C16.6163 19.9719 16.6162 19.9719 16.6162 19.9719C16.6161 19.9719 16.616 19.9719 16.616 19.9719C16.6159 19.9719 16.6159 19.9719 16.6158 19.9719C16.6157 19.9719 16.6157 19.9719 16.6156 19.9719C16.6155 19.9719 16.6155 19.9719 16.6154 19.9719C16.6153 19.9719 16.6153 19.9719 16.6152 19.9719C16.6151 19.9719 16.6151 19.9719 16.615 19.9719C16.6149 19.9719 16.6149 19.9719 16.6148 19.9719C16.6147 19.9719 16.6147 19.9719 16.6146 19.9719C16.6145 19.9719 16.6145 19.9719 16.6144 19.9719C16.6143 19.9719 16.6143 19.9719 16.6142 19.9719C16.6141 19.9719 16.6141 19.9719 16.614 19.9719V20.9719ZM16.7383 20.9714C16.9954 20.9595 17.2775 20.9357 17.5741 20.9134L17.4991 19.9162C17.1882 19.9396 16.9302 19.9614 16.6922 19.9724L16.7383 20.9714ZM17.5794 20.9129C18.0573 20.8719 18.5728 20.7003 18.9756 20.43C19.3627 20.1701 19.7636 19.7308 19.7232 19.1353L18.7255 19.2031C18.73 19.2703 18.6865 19.4196 18.4182 19.5997C18.1656 19.7692 17.8148 19.8891 17.4939 19.9166L17.5794 20.9129ZM19.7235 19.1403C19.6724 18.2577 19.0164 17.8173 18.3902 17.6279L18.1007 18.585C18.5321 18.7156 18.7088 18.9151 18.7251 19.1981L19.7235 19.1403ZM18.283 18.6051C18.5864 18.5822 18.8917 18.5593 19.1748 18.5363L19.0938 17.5395C18.8143 17.5623 18.5121 17.585 18.2079 17.6079L18.283 18.6051ZM19.1771 18.5361C19.65 18.4955 20.1074 18.3405 20.4464 18.051C20.8001 17.7488 21.0078 17.3094 20.9473 16.7915L19.9541 16.9075C19.9723 17.0638 19.9213 17.1843 19.7968 17.2906C19.6576 17.4096 19.4174 17.5118 19.0915 17.5397L19.1771 18.5361ZM20.9481 16.7988C20.896 16.2872 20.5932 15.8938 20.2248 15.6273C19.8583 15.3622 19.398 15.198 18.9351 15.1318L18.7935 16.1217C19.1294 16.1698 19.4286 16.2856 19.6387 16.4375C19.8469 16.5881 19.9379 16.749 19.9533 16.9001L20.9481 16.7988ZM18.8643 15.1268C18.882 15.1268 18.8961 15.1279 18.9052 15.1288C18.9144 15.1297 18.9213 15.1307 18.9248 15.1313C18.9302 15.1321 18.9336 15.1329 18.9244 15.131C18.9195 15.1301 18.9021 15.1264 18.8833 15.1234C18.8731 15.1218 18.8597 15.1199 18.8442 15.1183C18.829 15.1168 18.8089 15.1153 18.7855 15.1153V16.1153C18.7678 16.1153 18.7536 16.1142 18.7446 16.1133C18.7354 16.1124 18.7285 16.1114 18.725 16.1108C18.7196 16.1099 18.7162 16.1092 18.7254 16.111C18.7303 16.112 18.7477 16.1157 18.7665 16.1187C18.7767 16.1203 18.7901 16.1222 18.8055 16.1238C18.8208 16.1253 18.8409 16.1268 18.8643 16.1268V15.1268ZM18.8204 16.1141C19.1141 16.0935 19.4733 16.0789 19.739 16.0564L19.6547 15.06C19.3804 15.0832 19.1095 15.0914 18.7506 15.1166L18.8204 16.1141ZM19.7183 16.0577C20.2122 16.0365 20.6764 15.8694 21.0129 15.5645C21.3583 15.2515 21.5554 14.8007 21.4862 14.291L20.4953 14.4256C20.5161 14.5787 20.4657 14.7108 20.3414 14.8234C20.2081 14.9442 19.9804 15.0456 19.6754 15.0587L19.7183 16.0577ZM5.25026 10.8643H3V11.8643H5.25026V10.8643ZM2.5 11.3643V19.3634H3.5V11.3643H2.5ZM3 19.8634H5.25026V18.8634H3V19.8634ZM5.25026 19.8634C6.15251 19.8634 6.8754 19.118 6.8754 18.2207H5.8754C5.8754 18.5804 5.58566 18.8634 5.25026 18.8634V19.8634ZM6.8754 18.2207V12.507H5.8754V18.2207H6.8754ZM6.8754 12.507C6.8754 11.595 6.14927 10.8643 5.25026 10.8643V11.8643C5.5889 11.8643 5.8754 12.1392 5.8754 12.507H6.8754Z" fill="#0D2159"/>
</svg>
